<?xml version="1.0" encoding="utf-8"?>
<!-- Generator: Adobe Illustrator 18.0.0, SVG Export Plug-In . SVG Version: 6.00 Build 0)  -->
<!DOCTYPE svg PUBLIC "-//W3C//DTD SVG 1.1//EN" "http://www.w3.org/Graphics/SVG/1.1/DTD/svg11.dtd">
<svg version="1.1" id="Layer_1" xmlns="http://www.w3.org/2000/svg" xmlns:xlink="http://www.w3.org/1999/xlink" x="0px" y="0px"
	 viewBox="0 0 1280 720" enable-background="new 0 0 1280 720" xml:space="preserve">
<g opacity="0.3">
	
		<linearGradient id="SVGID_1_" gradientUnits="userSpaceOnUse" x1="858.5153" y1="386.8791" x2="864.019" y2="310.0987" gradientTransform="matrix(0.2534 0.9674 0.9674 -0.2534 322.2739 -419.3705)">
		<stop  offset="0" style="stop-color:#484242"/>
		<stop  offset="1" style="stop-color:#6F6C6B"/>
	</linearGradient>
	<path fill="url(#SVGID_1_)" d="M888.2,334.7C888.2,334.7,888.2,334.7,888.2,334.7C888.2,334.7,888.2,334.7,888.2,334.7
		C888.2,334.6,888.2,334.6,888.2,334.7L888.2,334.7c-0.1-0.1-0.1-0.1-0.1-0.1c0,0,0,0,0,0c0,0,0,0,0,0c-0.9-0.8-1.5-1.4-2-1.7
		c-0.3-0.3-1-0.7-1.9-1.3c-0.7-0.4-1.4-0.8-2.3-1.2c0,0,0,0,0,0c0,0-0.1,0-0.1,0c-0.2-0.1-0.3-0.1-0.5-0.2c-0.2-0.1-0.4-0.2-0.6-0.2
		c-0.7-0.3-1.2-0.4-1.3-0.4c-0.4-0.3-0.8-0.6-1.2-0.9c-1.8-1.3-3.1-2.1-3.9-2.6c-0.8-0.5-2.6-1.8-5.5-3.9c-0.6-0.5-1.4-0.8-2.1-1.1
		c-1.6-1.5-2.8-2.6-3.5-3.2c-0.5-0.5-2.2-1.6-5-3.5c-1.7-1.1-2.7-1.8-2.9-1.9c-0.1-0.1-0.7-0.2-1.7-0.5l-0.4-0.1
		c-1.2-1.1-2.2-0.3-2.2,0.3c0.1,1.3-2.3,1.4-2.1,1.3l0.1,1.6l2.4,3.2c0,0,0,0,0,0c0.4,0.3,1.1,0.9,2.2,1.7c3,2.2,6,4.5,9,6.7
		c-1.3-0.8-2.9-1.7-4.9-2.8c-0.9-0.5-2.9-1.6-5.8-3.2c-2.8-1.6-4.8-2.7-6.1-3.6c-0.2-0.1-0.6-0.1-1.1,0c-0.6-0.5-1.2-0.9-1.7-1.2
		c-0.3-0.2-0.8-0.5-1.3-0.7c-0.2,0.2-0.5,0.4-1,0.7c-0.5,0.3-1.6,0.8-4.4,0.7c-0.1,0.5-1.1,0.4-1.5,1c-1.8,3.2,11.6,8.5,13.8,9.7
		l7.2,4.1c0.9,0.5,1.7,1.2,2.3,2.1l5.6,2.8c0.3,0.3,0.8,0.6,1.5,1c0.7,0.4,1.7,1,3,1.8c0.7,0.4,1.9,1.3,3.8,2.6
		c2.2,1.2,4.3,2.1,6.4,2.8c0.1,0.1,4.6,2.2,4.6,2.3l14.1-7C896.6,339.6,888.5,334.9,888.2,334.7z"/>
</g>
<g>
	<path fill="#6A6A6A" d="M851.5,254.9c0,0.4,0,1.1,0.1,2.3c0.1,1.2,0.1,2.1,0.1,2.8c0,0.1,0,0.3-0.1,0.6c0,0.2,0.1,1.3,0.3,3.4
		c2.4-0.4,3.8-1,4.2-1.6c0.4-0.6,0.5-1.7,0.6-3.3c0-1.6,0.1-3.1,0.3-4.5c0.2-1.4-0.1-2.7-0.9-3.8c-0.8-1.1-1.8-1.6-2.8-1.3
		c-0.5,0.3-0.8,0.4-0.8,0.4c-0.6,0-1,0.5-1.1,1.6C851.5,251.5,851.5,252.7,851.5,254.9L851.5,254.9z"/>
	<path fill="#A88B73" d="M835.5,252.4c0-0.2,0.3-0.3,0.7-0.4c0.4,0,0.6-0.1,0.8-0.2c0.1-0.1,0.3-0.1,0.5-0.1c0.1,0,0.4,0,0.9,0.1
		c0.1-0.1,0.1-0.2,0.2-0.4c0-0.1,0-0.2,0.1-0.3c-0.2-0.1-0.5-0.2-0.7-0.3c-0.5-0.2-0.8-0.3-0.9-0.3c-0.5,0-1,0.3-1.8,0.9
		c0,0-0.1,0.1-0.1,0.2c-0.1-0.1-0.2-0.2-0.4-0.3c0.1,0.2,0.2,0.3,0.1,0.4c-0.5,0.4-0.8,0.6-0.9,0.5c-0.1,0-0.1,0-0.2-0.1
		c-0.2,0.2-0.3,0.3-0.2,0.4c0,0.1,0.1,0.2,0.2,0.2c0.1,0,0.2,0.1,0.2,0.1c-0.1,0.3,0,0.4,0.3,0.5c-0.1,0.1-0.1,0.3,0,0.4
		c0.1,0.1,0.2,0.2,0.5,0.2c0.3,0,0.5,0,0.7,0c0.2,0,0.4,0,0.5,0c0.2,0,0.3,0,0.3,0c0.2,0,0.6,0.2,1.1,0.6c0.5,0.4,1.3,0.5,2.3,0.4
		c0.7-0.1,1.2-0.4,1.6-0.9c-0.7,0-1.1,0.1-1.4,0.1c-0.3,0-0.5,0-0.7,0c-0.2,0-0.5-0.2-1-0.5c-0.5-0.3-0.8-0.5-0.9-0.5
		c-0.2,0-0.4,0-0.6,0c-0.2,0-0.5,0-0.9-0.2c-0.1,0-0.2-0.1-0.2-0.1c0,0,0,0-0.1,0C835.5,252.8,835.5,252.6,835.5,252.4L835.5,252.4z
		"/>
	<path fill="#EFD28F" d="M836.2,252.1c-0.4,0-0.6,0.2-0.7,0.4c-0.1,0.2,0,0.4,0.1,0.5c0,0,0-0.1,0-0.2c0-0.1,0-0.1,0,0
		c0,0,0.2,0.1,0.5,0.2c0.3,0.1,0.5,0,0.6-0.1c0-0.1,0-0.2,0.1-0.4c0-0.2,0.1-0.3,0.2-0.3l0.3,0.1c0.2,0,0.4,0.1,0.5,0.1
		c0.2,0,0.4,0,0.5-0.1c0.1-0.1,0.2-0.2,0.2-0.4l0-0.3c0,0.2-0.1,0.3-0.2,0.4c-0.4-0.1-0.7-0.1-0.9-0.1c-0.2,0-0.4,0-0.5,0.1
		C836.8,251.9,836.6,252,836.2,252.1L836.2,252.1z"/>
	<path fill="#E3BA99" d="M835.1,251.6c0.1-0.1,0.1-0.1,0.1-0.2c0.7-0.6,1.3-0.9,1.8-0.9c0.1,0,0.5,0.1,0.9,0.3
		c0.2,0.1,0.4,0.2,0.7,0.3c0,0.1,0,0.2-0.1,0.3l0,0.3c0,0.2-0.1,0.3-0.2,0.4c-0.1,0-0.3,0.1-0.5,0.1c-0.1,0-0.3,0-0.5-0.1l-0.3-0.1
		c-0.1,0-0.1,0.1-0.2,0.3c0,0.2-0.1,0.3-0.1,0.4c-0.1,0.1-0.3,0.2-0.6,0.1c-0.3-0.1-0.5-0.1-0.5-0.2c0,0,0,0,0,0c0,0.1,0,0.1,0,0.2
		c0,0,0,0,0.1,0c0.1,0,0.1,0.1,0.2,0.1c0.3,0.1,0.6,0.2,0.9,0.2c0.2,0,0.4,0,0.6,0c0.1,0,0.4,0.2,0.9,0.5c0.4,0.3,0.8,0.5,1,0.5
		c0.2,0,0.5,0,0.7,0c0.3,0,0.7-0.1,1.4-0.1c0.2-0.3,0.4-0.7,0.5-1.2c-1.9-1.6-3.1-2.6-3.7-2.9c-0.6,0.1-1.3,0.1-1.9,0.1
		c-0.6,0-1.1,0.1-1.3,0.3c-0.2,0.2-0.5,0.4-0.9,0.8c-0.4,0.3-0.6,0.6-0.5,0.8c0,0.1,0,0.1,0.1,0.2c0,0,0,0,0,0c0,0,0.1,0.1,0.2,0.1
		c0.1,0,0.4-0.2,0.9-0.5c0-0.1,0-0.2-0.1-0.4C834.8,251.4,834.9,251.5,835.1,251.6L835.1,251.6z"/>
	<path fill="#1E1E1E" d="M853.7,237.8c0.2-2.1-0.4-3.5-1.7-4c-1.3-0.5-2.2-0.9-2.5-1.3c-0.3-0.3-0.7-0.6-1.1-0.8
		c-1.3-0.3-2.2-0.1-2.6,0.7c-0.1,0.2-0.5,0.2-0.9,0.1c-0.8,0.3-1.5,0.6-1.9,1c-0.5,0.4-0.7,0.9-0.9,1.6c-0.1,0.7,0,1.2,0.3,1.6
		c0.8,0.8,1.4,1.3,1.8,1.6c0.3,0.3,0.5,0.5,0.7,0.6c0.4,0.1,0.5,0.2,0.6,0.2c-0.1,0.1-0.2,0.3-0.3,0.4c0,0,0,0-0.1,0
		c-0.1,0.3-0.2,0.7-0.2,1.2c0,0.3,0,0.5,0,0.7c0,0,0,0,0,0.1c-0.1,0.1-0.3,0.6-0.6,1.3l-0.6,1c-0.1-0.3-0.2-0.6-0.3-0.8
		c-0.1-0.2-0.5-0.2-1.2-0.2c-0.1,0-0.1,0.1-0.1,0.2c0,0.2-0.1,0.3-0.1,0.4c0,0.1,0.1,0.2,0.3,0.3c0.1,0,0.3,0,0.6-0.1
		c0.3-0.1,0.4,0.3,0.4,1.3c0.1,0.4,0.1,0.7-0.1,0.8l-0.5-0.2c-0.1,0-0.1,0.1-0.2,0.1c-0.1,0.1-0.1,0.2-0.1,0.5
		c0,0.3,0.1,0.5,0.3,0.7c0.2,0.2,0.5,0.3,0.9,0.4c0.4,0,0.6,0,0.8-0.2c0.2-0.1,0.4-0.3,0.6-0.5c0.4-0.4,0.6-0.8,0.7-1.2
		c0-0.1,0-0.3,0-0.4c-0.2-1.1-0.3-1.9-0.3-2.4c0-0.2,0-0.4,0-0.5h0c0.1-0.4,0.1-0.7,0.3-0.8c0.1-0.2,0.3-0.3,0.6-0.3
		c0.3,0,0.4,0,0.6,0.1c0.1,0.1,0.1,0.5,0,1.2c-0.1,0.7-0.2,1.1-0.5,1.3c-0.2,0.2-0.5,0.5-0.7,0.9c0,0.1,0,0.3,0.1,0.6
		c0,0.1,0,0.1,0.1,0.2c0.1,0.3,0.2,0.6,0.2,0.8c0.1,0.3,0.1,0.5,0.2,0.5c0,0,0.1,0.1,0.2,0.1c0.1,0.1,0.4,0.2,0.6,0.4c0,0,0,0,0,0
		c0.6-1.4,0.9-2.6,1-3.4c0-0.5,0.1-0.7,0.2-0.7l0.4,0.3c0.3,0.2,0.5,0.3,0.6,0.3c0.3,0,0.6-0.3,0.9-1c0.3-0.6,0.5-1.4,0.6-2.4l0-0.1
		l0.3,1c0.2,0.6,0.3,0.9,0.5,0.9c0.1,0,0.4-0.4,0.9-1.3c0.3-0.3,0.5-0.6,0.7-0.8c0.1-0.1,0.2-0.2,0.3-0.4c0.1-0.2,0.2-0.5,0.3-0.8
		c0,0,0-0.1,0-0.1C853.9,238.3,853.8,238.1,853.7,237.8z M848.5,233.2c0.2,0,0.3,0.2,0.3,0.5c0.1,0.3,0.3,0.5,0.6,0.5l0.4-0.1
		l0.3,0.1c0,0.1-0.1,0.3-0.2,0.8l0,0.2h0.5c0.1,0,0.3-0.1,0.6-0.1c0.5,0,0.8,0.1,0.8,0.3c0,0.2-0.2,0.3-0.6,0.3
		c-0.3,0-0.5,0.1-0.8,0.2c-0.3,0.1-0.4,0.2-0.4,0.2c-0.1,0-0.3-0.2-0.6-0.6c-0.5-0.6-0.8-0.8-0.9-0.9c-0.2-0.2-0.6-0.4-1.2-0.8
		c0,0,0,0-0.1,0c0.1-0.1,0.3-0.2,0.5-0.3C848.1,233.4,848.3,233.2,848.5,233.2z M846.9,233.1c0.3-0.2,0.5-0.3,0.6-0.3l0.2,0v0.1
		c-0.3,0.4-0.5,0.7-0.6,0.9c-0.3-0.1-0.5-0.2-0.6-0.3C846.6,233.4,846.8,233.3,846.9,233.1z M845.2,235.8c-0.3-0.2-0.5-0.3-0.7-0.3
		c0,0-0.2,0.1-0.6,0.2c-0.3,0.1-0.6,0.2-0.8,0.2l-0.1-0.3c0-0.6,0.2-1.1,0.6-1.5c0.1-0.1,0.1-0.1,0.2-0.2c0.1-0.1,0.3-0.1,0.5-0.1
		c0.1,0,0.2,0,0.4,0.1c0.2,0,0.4,0.1,0.4,0.1c0.1,0.1,0.1,0.2,0.1,0.5c0.1,0.3,0.2,0.4,0.5,0.5c0.2,0.1,0.6,0.2,1.2,0.3
		c0.5,0.1,0.8,0.2,1,0.3l-0.1,0.4c0,0.3,0.1,0.5,0.4,0.7c0.5,0.4,0.8,0.7,0.9,0.7c-0.2,0-0.4,0.2-0.7,0.6c-0.2,0.3-0.3,0.5-0.4,0.7
		c0,0-0.2-0.2-0.5-0.4c-0.1-0.1-0.2-0.2-0.2-0.4c0-0.5-0.2-0.7-0.5-0.7c-0.2,0-0.3,0-0.5,0.1c-0.2,0.1-0.3,0.1-0.3,0.1l-0.2-0.2
		c0.7-1,1-1.6,1.1-1.7h0c-0.6,0.4-0.9,0.6-1,0.6C845.7,236.1,845.5,236,845.2,235.8z"/>
	<path fill="#090909" d="M850.2,234.2l-0.3-0.1l-0.4,0.1c-0.4,0-0.6-0.2-0.6-0.5c-0.1-0.3-0.2-0.5-0.3-0.5c-0.2,0-0.4,0.1-0.7,0.3
		c-0.2,0.1-0.4,0.2-0.5,0.3c0,0,0,0,0.1,0c0.6,0.4,1,0.6,1.2,0.8c0,0,0.3,0.3,0.9,0.9c0.3,0.4,0.5,0.6,0.6,0.6c0,0,0.2-0.1,0.4-0.2
		c0.3-0.1,0.6-0.2,0.8-0.2c0.4,0,0.6-0.1,0.6-0.3c0-0.2-0.3-0.3-0.8-0.3c-0.3,0-0.5,0-0.6,0.1H850l0-0.2
		C850.1,234.6,850.2,234.3,850.2,234.2L850.2,234.2z"/>
	<path fill="#444444" d="M848.5,237.9c0.3-0.4,0.5-0.6,0.7-0.6c-0.1-0.1-0.3-0.3-0.9-0.7c-0.2-0.2-0.4-0.4-0.4-0.7l0.1-0.4
		c-0.2-0.1-0.5-0.3-1-0.3c-0.6-0.1-1-0.2-1.2-0.3c-0.2-0.1-0.4-0.3-0.5-0.5c0-0.3-0.1-0.4-0.1-0.5c0,0-0.1,0-0.4-0.1
		c-0.2,0-0.4-0.1-0.4-0.1c-0.2,0-0.4,0-0.5,0.1c-0.1,0.1-0.1,0.1-0.2,0.2c-0.4,0.4-0.6,1-0.6,1.5l0.1,0.3c0.2,0,0.4-0.1,0.8-0.2
		c0.4-0.1,0.5-0.2,0.6-0.2c0.2,0,0.4,0.1,0.7,0.3c0.2,0.2,0.5,0.3,0.7,0.3c0.1,0,0.5-0.2,1-0.6h0c0,0.1-0.4,0.7-1.1,1.7l0.2,0.2
		c0,0,0.1,0,0.3-0.1c0.2-0.1,0.4-0.1,0.5-0.1c0.3,0,0.5,0.2,0.5,0.7c0,0.1,0.1,0.3,0.2,0.4c0.3,0.2,0.5,0.4,0.5,0.4
		C848.2,238.5,848.3,238.2,848.5,237.9L848.5,237.9z"/>
	<path fill="#090909" d="M847.5,232.8c-0.1,0-0.3,0.1-0.6,0.3c-0.2,0.1-0.3,0.2-0.4,0.3c0.1,0.1,0.3,0.2,0.6,0.3
		c0.1-0.1,0.3-0.4,0.6-0.9v-0.1L847.5,232.8L847.5,232.8z"/>
	<path fill="#111111" d="M850.9,239.9L850.9,239.9c-0.2,1-0.4,1.8-0.6,2.4c-0.3,0.7-0.6,1-0.9,1c-0.1,0-0.4-0.1-0.6-0.3l-0.4-0.3
		c-0.1,0-0.2,0.2-0.2,0.7c-0.1,0.9-0.4,2-1,3.4c0.4,0.3,1.1,0.4,1.8,0.3c0.8-0.1,1.3-0.2,1.7-0.5c0.3-0.2,0.5-0.4,0.6-0.6
		c0.2-0.1,0.3-0.3,0.3-0.5c0-0.2,0.1-0.4,0.3-0.7c0.1-0.2,0.3-0.4,0.4-0.5c0.1-0.1,0.4-0.5,0.7-1.2c0.3-0.7,0.7-1.5,1-2.4
		c0.3-0.8,0.3-1.6,0.1-2.3c0,0,0,0.1,0,0.1c-0.1,0.5-0.3,0.8-0.6,1.2c-0.2,0.2-0.4,0.4-0.7,0.8c-0.6,0.8-0.9,1.3-0.9,1.3
		c-0.1,0-0.3-0.3-0.5-0.9L850.9,239.9L850.9,239.9z"/>
	<path fill="#E3BA99" d="M842.4,236.7c-0.2,0.8-0.3,1.5-0.2,2.1c0.1,0.7,0.1,1.1,0,1.2c-0.1,0.1-0.1,0.6-0.2,1.5
		c0,0.4,0,0.8,0.2,1.3c0.7,0,1.1,0.1,1.2,0.2c0.1,0.2,0.2,0.4,0.3,0.8l0.6-1c0.3-0.7,0.5-1.2,0.6-1.3c0,0,0,0,0-0.1
		c0-0.2,0-0.4,0-0.7c0-0.6,0.1-1,0.2-1.2c0.1-0.1,0.2-0.3,0.4-0.4c0,0-0.2-0.1-0.6-0.2c-0.2-0.1-0.4-0.3-0.7-0.6
		C843.8,238,843.2,237.5,842.4,236.7L842.4,236.7z"/>
	<path fill="#E3BA99" d="M846.3,240.8c-0.3,0-0.5,0.1-0.6,0.3c-0.1,0.2-0.2,0.4-0.3,0.8h0c0,0.1,0,0.3,0,0.5c0,0.5,0.1,1.3,0.3,2.4
		c0,0.1,0,0.3,0,0.4c0.1-0.1,0.1-0.2,0.2-0.3c0-0.1-0.1-0.1-0.1-0.2c-0.1-0.3-0.1-0.5-0.1-0.6c0.2-0.4,0.5-0.7,0.7-0.9
		c0.2-0.2,0.4-0.6,0.5-1.3c0.1-0.7,0.1-1.1,0-1.2C846.7,240.8,846.5,240.8,846.3,240.8L846.3,240.8z"/>
	<path fill="#BD9C81" d="M845.9,245c-0.1,0.1-0.1,0.2-0.2,0.3c-0.1,0.4-0.3,0.8-0.7,1.2c-0.2,0.2-0.4,0.4-0.6,0.5
		c0.1,0.1,0.3,0.1,0.4,0.1v0.1c0.2-0.1,0.4-0.2,0.7-0.3c0.4-0.2,0.7-0.4,0.8-0.5c-0.1-0.1-0.1-0.2-0.2-0.5
		C846.1,245.6,846,245.3,845.9,245L845.9,245z"/>
	<path fill="#E3BA99" d="M843.3,244.9c0.1-0.9-0.1-1.3-0.4-1.3c-0.3,0.1-0.5,0.1-0.6,0.1c0.1,0.5,0.3,1.1,0.4,1.8l0.5,0.2
		C843.4,245.6,843.4,245.3,843.3,244.9L843.3,244.9z"/>
	<path fill="#BD9C81" d="M846.5,246.6c-0.1,0.5-0.2,0.9-0.2,1.3c-0.1,0.5-0.1,1.2-0.1,2.2c2.1,0.3,3.9-0.2,5.2-1.5
		c-0.1-1.1-0.2-2-0.2-2.5c-0.1,0.2-0.3,0.4-0.6,0.6c-0.3,0.2-0.9,0.4-1.7,0.5c-0.8,0.1-1.4,0-1.8-0.3c0,0,0,0,0,0
		C846.9,246.7,846.6,246.6,846.5,246.6L846.5,246.6L846.5,246.6z"/>
	<path fill="#E3BA99" d="M846.3,247.9c0-0.4,0.1-0.8,0.2-1.3v-0.1c-0.1-0.1-0.2-0.1-0.2-0.1c-0.1,0.1-0.4,0.3-0.8,0.5
		c-0.3,0.1-0.5,0.2-0.7,0.3l-0.2,2.6c0.6,0.2,1.1,0.3,1.6,0.4C846.2,249.1,846.2,248.4,846.3,247.9L846.3,247.9z"/>
	<path fill="#CCCCCC" d="M843.5,251.4c-0.1,0-0.1,0.1-0.1,0.1c-1.4,0.7-2.5,1.6-3.3,2.7c-0.5,1.1-0.6,2.9-0.1,5.5
		c0.5,2.6,0.7,4.6,0.6,6c-0.1,1-0.1,1.9-0.2,2.8c0.3-0.3,0.7-0.6,1.2-1c0.6-0.4,0.9-1,0.9-1.8c0-0.7-0.3-2.1-0.8-4.2
		c-0.5-2.1-0.8-3.8-0.8-5.1c0-0.9,0.7-1.9,2-2.9c1.2-0.8,2.2-1.5,3-2.1c-0.2,0-0.3,0-0.4-0.1c-0.2,0-0.4-0.1-0.4-0.2
		c-0.2-0.2-0.4-0.3-0.5-0.3c-0.4,0.2-0.7,0.4-1.1,0.6L843.5,251.4L843.5,251.4z"/>
	<path fill="#E6E6E6" d="M843.3,251.5c0,0,0.1,0,0.1-0.1L843.3,251.5c0.4-0.2,0.7-0.4,1.1-0.6c0.1,0,0.2,0.1,0.5,0.3
		c0.1,0.1,0.2,0.1,0.4,0.2c0-0.1,0.1-0.3,0.2-0.5c0.2-0.4,0.3-0.9,0.5-1.4c0-0.2,0.1-0.3,0.2-0.5c-0.6,0.1-1.1,0.3-1.6,0.6
		C843.9,250.3,843.5,250.9,843.3,251.5L843.3,251.5z"/>
	<path fill="#B7B7B7" d="M842.7,253.5c-1.3,1-2,2-2,2.9c0,1.3,0.3,3,0.8,5.1c0.5,2.1,0.8,3.5,0.8,4.2c0,0.8-0.3,1.4-0.9,1.8
		c-0.5,0.3-0.9,0.6-1.2,1c0,0.4-0.1,0.9-0.1,1.3c-0.4,1.1-0.2,2,0.6,2.8c0,0,0,0,0,0c0,0,0,0,0,0c0,0,0.1-0.1,0.1-0.1
		c0.2-0.3,0.3-0.7,0.2-1.1c-0.1-0.4-0.1-0.7-0.1-0.7c0-0.2,0.1-0.3,0.3-0.3c0.2,0,0.3,0.1,0.5,0.4c0.1,0.2,0.3,0.5,0.5,1
		c0.5-0.3,0.8-0.5,0.9-0.8c0.1-0.2,0.2-0.7,0.2-1.3c0-0.3-0.1-0.7-0.2-1.3c-0.1-0.6-0.2-1.1-0.2-1.5c0-1.1,0.2-1.7,0.5-1.9
		c0.1-0.1,0.3-0.1,0.5-0.2c0.3,0,0.5-0.1,0.6-0.1c1.2-0.4,2-2.8,2.4-7.2c0.1-1.2,0.5-2,1.2-2.3c0.3-0.1,0.7-0.3,1.2-0.4
		c0.3-0.1,0.9-0.2,1.6-0.3c0.4-0.1,1.1-0.3,2-0.7c0.8-0.4,1.3-0.5,1.5-0.5c0.5,0,0.9,0.2,1.1,0.5c0.1,0.2,0.2,0.7,0.2,1.3
		c0,1,0,1.7,0,2c0,0.4,0.1,0.7,0.2,1.1c0.4-1.1,0.7-2.3,0.9-3.5c0.3-1.6,0.1-2.8-0.6-3.8c-0.7-1-1.6-1.6-2.9-1.8
		c-0.4-0.1-0.9-0.1-1.6,0c0-0.1,0-0.2-0.1-0.2c0-0.2-0.1-0.4-0.1-0.6c0-0.2-0.2-0.4-0.4-0.6c-1.1,0.7-2,1.1-2.7,1.2
		c-0.7,0.1-1.4,0.1-2.2,0.2c-0.1,0-0.2,0-0.3,0c-0.1,0.1-0.1,0.3-0.2,0.5c-0.1,0.5-0.3,1-0.5,1.4c-0.1,0.2-0.1,0.3-0.2,0.5
		c0.1,0,0.2,0,0.4,0.1C845,252,844,252.7,842.7,253.5L842.7,253.5z"/>
	<path fill="#959595" d="M849.5,254.9c-0.5,0.1-0.9,0.2-1.2,0.4c-0.7,0.4-1.1,1.1-1.2,2.3c-0.4,4.4-1.2,6.9-2.4,7.2
		c-0.1,0-0.3,0.1-0.6,0.1c-0.2,0-0.4,0.1-0.5,0.2c-0.3,0.2-0.5,0.9-0.5,1.9c0,0.4,0.1,0.9,0.2,1.5c0.1,0.6,0.2,1.1,0.2,1.3
		c0,0.6-0.1,1-0.2,1.3c-0.1,0.2-0.4,0.5-0.9,0.8c-0.3-0.5-0.4-0.9-0.5-1c-0.1-0.3-0.3-0.4-0.5-0.4c-0.2,0-0.3,0.1-0.3,0.3
		c0,0,0,0.2,0.1,0.7c0.1,0.5,0,0.9-0.2,1.1c0,0,0,0-0.1,0.1c0,0,0,0,0,0c0,0,0,0,0,0c0.1,0,0.1,0.1,0.2,0.1c0.1,0.1,0.2,0.2,0.4,0.2
		c0.5,0.3,1.1,0.5,1.9,0.7c0.1,0,0.2,0.1,0.3,0.1c0-0.2-0.1-0.4-0.2-0.6c-0.2-0.4-0.2-0.7-0.2-0.9c0-0.2,0.2-0.3,0.5-0.3
		c0.2,0,0.4,0.1,0.7,0.4c0.2,0.3,0.4,0.4,0.4,0.4c0.3,0,0.6,0,0.9-0.1s0.5-0.1,0.8-0.1c0.3,0,0.6-0.5,1-1.6c0.3-1.1,0.7-1.6,1.2-1.6
		c0.2,0,0.3,0,0.4,0.1c0.2,0.1,0.2,0.3,0.2,0.5c0,0,0,0.2-0.2,0.5c-0.1,0.4-0.2,0.6-0.2,0.7c0,0.2,0,0.3,0.1,0.3c0,0,0.1,0,0.3,0
		c0.4,0,1.1-0.5,2-1.6c0.9-1.1,1.3-1.6,1.4-1.6c0.1,0,0.2,0.1,0.4,0.2c0.1,0.1,0.2,0.2,0.3,0.1c-0.3-0.9-0.1-1.8,0.5-2.7
		c0.4-0.5,0.7-0.9,1.1-1.1l0.1-1.6c0-1.6,0.3-3,0.8-4.4c0.1-0.3,0.2-0.6,0.3-0.9c-0.1-0.3-0.1-0.7-0.2-1.1c0-0.3,0-1,0-2
		c0-0.7-0.1-1.1-0.2-1.3c-0.2-0.3-0.5-0.5-1.1-0.5c-0.2,0-0.7,0.2-1.5,0.5c-0.9,0.4-1.6,0.6-2,0.7
		C850.3,254.7,849.8,254.8,849.5,254.9L849.5,254.9z"/>
	<path fill="#1A5277" d="M841.1,272.8c-0.1,0-0.1-0.1-0.2-0.1c0,0.1,0,0.4,0,0.7c0,0.4,0,0.8,0.1,1.2c0,0.2,0.1,0.3,0.1,0.4
		c-0.5,2.1-0.7,4.4-0.8,6.9c0.2,2.3,0.3,3.8,0.3,4.6c0.1,1.6,0.1,2.7,0.1,3.6c0,0.8,0,1.4,0.1,1.8l-0.4,6.2c0.5,1,0.7,2,0.7,3
		l-0.1,8.3c0,2.5-0.1,4.6-0.1,6.4l-0.4,1c0.7,0.4,1.2,0.7,1.6,1c0-1.1,0.1-3.7,0.2-7.7c0.1-2,0.1-3.9,0.1-5.7c0-1.7,0-2.8,0-3.3
		c-0.1-0.8,1-2.1,3.3-3.8c-2.4,1.3-3.8,1.4-4.3,0.2c-0.2-0.7-0.3-1.6-0.2-2.8c0.1-1.2,0.1-3.3-0.1-6.4c-0.2-3-0.3-5-0.3-5.9
		c0-1.2,0.2-2.8,0.6-4.9c0.2-1.1,0.4-2,0.6-2.6c-0.2-0.1-0.4-0.2-0.6-0.3c0-0.1,0-0.3,0-0.4c0-0.4,0-0.7,0.1-0.9
		C841.3,273,841.2,272.9,841.1,272.8L841.1,272.8z"/>
	<path fill="#808080" d="M843.2,272.3c0,0.2,0.1,0.5,0.2,0.9c0.1,0.3,0.2,0.5,0.2,0.6c0.1,0,0.3,0,0.4,0.1c0.2,0,0.4,0,0.7,0
		c1,0,2.3-0.2,3.7-0.5c0.2-0.1,0.4-0.1,0.6-0.2c0.3-0.1,0.5-0.1,0.7-0.2c0.5-0.2,1-0.4,1.4-0.5c0.2-0.1,0.3-0.1,0.4-0.2
		c0.1,0,0.2-0.1,0.2-0.1c0.4-0.2,0.7-0.4,1-0.6c0.4-0.3,0.7-0.6,0.9-0.9c0.2-0.2,0.3-0.4,0.5-0.5c0.1-0.1,0.1-0.2,0.2-0.3
		c0.7-0.6,0.9-1.5,0.4-2.7l0.1-2.2c-0.4,0.2-0.7,0.6-1.1,1.1c-0.6,0.9-0.8,1.8-0.5,2.7c-0.1,0-0.2,0-0.3-0.1
		c-0.1-0.1-0.3-0.2-0.4-0.2c0,0-0.5,0.5-1.4,1.6c-0.9,1.1-1.5,1.6-2,1.6c-0.1,0-0.2,0-0.3,0c-0.1,0-0.1-0.2-0.1-0.3
		c0-0.1,0.1-0.3,0.2-0.7c0.1-0.3,0.2-0.5,0.2-0.5c0-0.2-0.1-0.4-0.2-0.5c-0.1-0.1-0.3-0.1-0.4-0.1c-0.5,0-0.8,0.5-1.2,1.6
		c-0.3,1.1-0.7,1.6-1,1.6c-0.3,0-0.6,0-0.8,0.1s-0.5,0.1-0.9,0.1c0,0-0.2-0.1-0.4-0.4c-0.2-0.3-0.5-0.4-0.7-0.4
		C843.3,272,843.2,272.1,843.2,272.3L843.2,272.3z"/>
	<path d="M843.3,273.8c-0.8-0.2-1.4-0.5-1.9-0.7c0,0.2-0.1,0.5-0.1,0.9c0,0.2,0,0.3,0,0.4c0.2,0.1,0.4,0.2,0.6,0.3
		c0.4,0.2,0.9,0.4,1.5,0.5c0.2,0,0.3,0.1,0.5,0.1c0-0.1,0-0.1,0-0.2c0-0.3,0-0.6,0-0.9c0-0.1,0-0.3,0.1-0.4c-0.1,0-0.3,0-0.4-0.1
		C843.5,273.8,843.4,273.8,843.3,273.8L843.3,273.8z"/>
	<path fill="#133F5B" d="M845.2,319c-0.1,0-0.1,0-0.2,0c-0.6,0-1.6-0.4-2.9-1.2c0,0,0,0,0,0c0-1.3,0.1-4.1,0.2-7.7
		c0.1-1.9,0.1-3.9,0.1-5.7c0-1.6,0-2.8,0-3.3c-0.1-0.8,0.9-1.9,2.8-3.5c-1,0.5-1.8,0.7-2.4,0.7c-0.7,0-1.2-0.3-1.4-0.9
		c-0.2-0.7-0.3-1.7-0.2-2.9c0.1-1.2,0.1-3.4-0.1-6.4c-0.2-3-0.3-5-0.3-5.9c0-1.2,0.2-2.8,0.6-4.9c0.1-0.6,0.2-1.1,0.3-1.6
		c0.1-0.4,0.2-0.7,0.2-1c0,0,0,0,0,0c0,0,0,0,0,0c0,0,0,0,0,0c0.4,0.2,0.9,0.4,1.5,0.5c0.1,0,0.3,0.1,0.4,0.1v-0.2
		c0-0.3,0-0.6,0-0.9c0-0.2,0-0.3,0.1-0.4c0,0,0,0,0.1,0c0,0,0,0,0,0c0.2,0,0.5,0,0.7,0c0,0,0.1,0,0.1,0.1c0,0.2,0,0.7-0.1,1.4
		c0.1,0,0.2,0,0.3,0c1,0,2.2-0.2,3.5-0.5c0.1,0,0.2-0.1,0.3-0.1c0.1,0,0.2-0.1,0.3-0.1v-0.2c0-0.2,0-0.6-0.1-0.9c0-0.1,0-0.1,0-0.2
		c0-0.1,0-0.1,0-0.2c0,0,0-0.1,0-0.1c0.2-0.1,0.4-0.1,0.6-0.2l0.1,0c0,0,0,0,0,0c0,0,0,0,0.1,0c0.1,0.2,0.1,0.5,0.1,0.8
		c0,0.2,0,0.4,0,0.6c0.5-0.2,1-0.3,1.4-0.5l0-0.1c0-0.1,0-0.2,0-0.3c0-0.4,0-0.6,0-0.7c0-0.1-0.1-0.3-0.1-0.3c0,0,0,0,0,0
		c0,0,0,0,0,0c0.2-0.1,0.3-0.1,0.4-0.2c0.1,0,0.2-0.1,0.2-0.1c0,0,0,0,0,0c0,0,0,0,0,0c0,0,0,0.1,0.1,0.1c0,0.2,0.1,0.4,0.1,0.7
		c0,0,0,0.1,0,0.4v0.1c0.3-0.2,0.6-0.4,0.9-0.6c0.3-0.3,0.6-0.6,0.9-0.8l0-0.2c0-0.3,0-0.6-0.1-1l0-0.1c0-0.1,0-0.1,0-0.2
		c0,0,0,0,0,0c0.2-0.2,0.3-0.4,0.5-0.5c0,0,0,0,0,0c0,0,0,0,0,0c0,0,0,0,0,0c0,0,0,0.1,0,0.1c0.1,0.2,0.1,0.5,0.1,0.8
		c0,0.1,0,0.2,0,0.3c0,0,0-0.1,0-0.1c0,0,0,0,0,0c0,0,0,0,0,0c0,0,0,0,0,0.1v0c0,0,0,0,0,0c0,0,0,0,0,0c0,0,0,0,0,0.1
		c0.3,1.2,0.4,2.1,0.5,2.6c0,0.4,0.1,1.2,0.2,2.3c0,0.8,0,1.7-0.1,2.6c0,0,0,0,0,0c0,0-0.1,0.1-0.1,0.2c-0.8,1.1-1.6,1.9-2.5,2.4
		c-0.3,0.1-0.5,0.3-0.9,0.4c0,0,0,0,0,0c0,0,0,0,0,0c0,0,0,0,0-0.1c0.3-0.7,0.4-1.2,0.5-1.6c0.2-0.6,0.3-1.3,0.3-1.9
		c0-0.6-0.1-1-0.3-1.4c-0.1-0.2-0.2-0.3-0.3-0.5c0,0.6,0,1.3-0.1,2c-0.2,0.8-0.4,1.6-0.7,2.2c0,0,0,0,0,0c-0.5,0.7-1.1,1.2-1.9,1.6
		c-1.7,0.8-2.9,1.4-3.6,1.9c0,0,0,0,0,0.1c0.8,0.2,1.4,0.2,1.9,0.3c0,0,0,0,0,0c0.1,0,0.2,0.1,0.2,0.3c0,0.1,0,0.4,0,0.8
		c0,0.7-0.1,1.7-0.3,2.9c-0.2,1.2-0.3,2.1-0.3,2.6c0,0,0,0.3-0.1,0.6c0,0.3-0.1,0.6-0.1,0.8c0,1.3,0,2,0,2.1c0,0.9-0.1,1.7-0.2,2.4
		c0.1,0.5-0.1,0.9-0.5,1.2c-0.5,0.4-0.8,0.7-0.9,0.9c1.2,0.3,1.3,0.5,1.3,0.5c0,0,0.1,0.1,0.1,1.4c0,0.2-0.1,1.4-0.4,3.9
		c-0.3,2.4-0.4,4.5-0.4,6.5l0.4,7.2c0,0,0,0,0,0.1C845.9,319,845.6,319,845.2,319L845.2,319z"/>
	<path d="M849.1,273.3c-0.2,0.1-0.4,0.1-0.6,0.2c-1.4,0.4-2.7,0.6-3.7,0.5c0,0.2,0,0.7-0.1,1.5c1.1,0,2.4-0.1,3.9-0.5
		c0.2-0.1,0.4-0.1,0.6-0.2c0-0.1,0-0.1,0-0.2c0-0.2,0-0.5-0.1-0.9C849.1,273.5,849.1,273.4,849.1,273.3L849.1,273.3z"/>
	<path d="M849.8,273c0.1,0.2,0.1,0.5,0.1,0.8c0,0.3,0,0.5,0,0.7c0.6-0.2,1-0.4,1.5-0.5c0-0.2,0-0.3,0-0.4c0-0.4,0-0.6,0-0.7
		c0-0.2-0.1-0.3-0.1-0.4C850.8,272.7,850.4,272.9,849.8,273L849.8,273z"/>
	<path d="M852,272.2c0,0,0,0.1,0.1,0.1c0,0.2,0.1,0.4,0.1,0.7c0,0,0,0.1,0,0.4c0,0,0,0.1,0,0.1c0,0,0,0.1,0,0.1
		c0.4-0.2,0.7-0.4,1-0.6c0.4-0.3,0.7-0.6,0.9-0.8l0-0.3c0-0.3,0-0.6-0.1-1c0-0.1,0-0.2,0-0.3c-0.3,0.3-0.6,0.6-0.9,0.9
		C852.7,271.8,852.3,272,852,272.2L852,272.2z"/>
	<path fill="#133F5B" d="M852.4,278.3c0-0.6-0.1-1.1-0.3-1.4c-0.1-0.2-0.3-0.5-0.4-0.7c0,0.7,0,1.4-0.1,2.2
		c-0.2,0.8-0.4,1.6-0.7,2.2c-0.5,0.7-1.1,1.2-1.9,1.5c-1.7,0.8-2.9,1.4-3.7,2c0.1,0,0.1,0,0.1,0.1c0.8,0.2,1.5,0.3,1.9,0.3
		c0.1,0,0.1,0.1,0.1,0.3c0,0.1,0,0.4,0,0.8c0,0.7-0.1,1.7-0.3,2.9c-0.2,1.2-0.3,2.1-0.3,2.6c0,0,0,0.2-0.1,0.6
		c0,0.4-0.1,0.6-0.1,0.8c0,1.1,0,1.8,0,2.1c0,0.9-0.1,1.7-0.2,2.4c0.1,0.5-0.1,0.9-0.4,1.2c-0.5,0.4-0.8,0.7-1,1
		c0.8,0.2,1.3,0.4,1.3,0.5c0.1,0.1,0.1,0.6,0.1,1.4c0,0.2-0.1,1.5-0.4,3.9c-0.3,2.4-0.4,4.5-0.4,6.5l0.4,7.2c0.4-0.1,0.7-0.3,1-0.5
		c0.1-0.1,0.3-0.2,0.5-0.4c0.4-0.4,0.6-0.7,0.6-0.9c0-1.6,0-3.9,0-7.1c0.1-3.4,0.1-5.6,0.2-6.7c0.1-2.4,0.1-4.5,0-6.1
		c0-0.5,0-0.9,0-1.3l0-1c0.6-3.5,1-6.9,1.3-10.4c1.8-0.9,2.7-1.1,2.7-0.7c0,0.4-0.1,1.2-0.4,2.4v2.5c-0.1,0.6-0.3,1.3-0.6,2.2
		c-0.3,0.8-0.4,1.5-0.4,2.2c0,0,0.2,0.6,0.5,1.6c0.3,1.1,0.5,1.9,0.5,2.4c0,0.2-0.2,0.3-0.5,0.4c-0.4,0.1-0.8,0.4-1.1,0.7
		c0,0,0.4,0.3,1.1,0.9c0.3,0.3,0.5,0.5,0.7,0.8c0.3,0.5,0.7,1.9,1.1,4.2c0.3,1.5,0.6,3.9,0.9,7.2l0.3,3.3c1.1,0.1,1.8-0.3,2.1-1
		l0.1-0.4c0.3-1.1,0.4-1.7,0.4-1.8c0-0.3-0.1-1.5-0.2-3.5c-0.2-3.4-0.4-5.4-0.5-6.1c-0.2-1-0.6-2.5-1-4.7c0.2-0.8,0.2-1.6,0.1-2.4
		c-0.4-3.6-0.6-5.8-0.6-6.7c0-0.9-0.1-2.4-0.3-4.6c0-0.5-0.1-1-0.1-1.5c0-0.1,0.1-0.5,0.3-1.3c0-0.2,0.1-0.4,0.1-0.6
		c0.1-0.2,0.1-0.4,0.1-0.6c0,0-0.1,0.1-0.1,0.2c-0.8,1.1-1.6,1.9-2.5,2.4c-0.3,0.2-0.6,0.3-0.9,0.4c0.2-0.7,0.4-1.2,0.5-1.6
		C852.3,279.6,852.4,279,852.4,278.3L852.4,278.3z"/>
	<path d="M854.5,269.9c0,0.1-0.1,0.2-0.2,0.3c0,0,0,0.1,0,0.1c0.1,0.2,0.1,0.5,0.1,0.8c0,0.2,0,0.4,0,0.5c0.1-0.1,0.1-0.2,0.2-0.2
		C854.6,270.9,854.5,270.4,854.5,269.9L854.5,269.9z"/>
	<path fill="#B7B7B7" d="M854.6,271.4c0,0,0,0.1,0,0.1C854.6,271.5,854.6,271.4,854.6,271.4C854.6,271.4,854.6,271.4,854.6,271.4
		L854.6,271.4z"/>
	<path fill="#0B2231" d="M854.6,314.3C854.6,314.3,854.6,314.2,854.6,314.3c0,0-0.1,0-0.1,0c-1.3-0.1-2-0.3-2.2-0.6
		c-0.2-0.3-0.7-0.8-1.3-1.5l-0.7-0.7c0,0,0,0,0,0c-0.1-0.5-0.2-1.4-0.4-2.7c-0.4-3.9-0.8-7.8-1.3-11.6c0-0.5,0-0.9,0-1.3l0-1
		c0.6-3.5,1-7,1.3-10.4c0,0,0,0,0,0c1.2-0.6,2-0.9,2.4-0.9c0.1,0,0.2,0,0.2,0.1c0,0,0.1,0.1,0.1,0.2c0,0.4-0.2,1.2-0.4,2.4v2.5
		c-0.1,0.6-0.3,1.3-0.6,2.3c-0.3,0.7-0.4,1.5-0.4,2.2c0,0,0.1,0.3,0.5,1.6c0.3,1.1,0.5,1.9,0.5,2.4c0,0.2-0.2,0.4-0.5,0.5
		c-0.4,0.1-0.7,0.3-1,0.6c0,0,0,0,0.1,0.1c0.2,0.1,0.5,0.4,1,0.8c0.3,0.3,0.6,0.5,0.7,0.8c0.3,0.6,0.7,2,1.1,4.2
		c0.3,1.5,0.6,4,0.9,7.2L854.6,314.3C854.7,314.2,854.7,314.2,854.6,314.3C854.6,314.2,854.6,314.3,854.6,314.3L854.6,314.3z"/>
	<path fill="#55371A" d="M854.6,314.2c0,0,0,0-0.1,0c-1.2-0.1-2-0.3-2.2-0.6c-0.2-0.3-0.7-0.8-1.4-1.5l-0.3,0.5
		c-0.2,0.1-0.6,0.2-1.2,0.4c-0.5,0.2-0.8,0.5-0.7,1.1c0.1,0.6,0.2,0.9,0.4,1.1c0.2,0.2,0.7,0.4,1.3,0.7c0.7,0.3,1.4,0.9,2.3,1.7
		c0.8,0.2,1.6,0.3,2.5,0.1c0.9-0.2,1.4-0.5,1.6-1.1c0.2-0.6,0.1-1.7-0.2-3.3C856.4,313.9,855.7,314.3,854.6,314.2L854.6,314.2z"/>
	<path fill="#55371A" d="M842.1,317.8c-0.4-0.2-0.9-0.5-1.6-1l0.4-1c-0.6,0.3-1.3,0.5-2.1,0.7c-1.1-0.3-2.4-0.2-3.7,0.4
		c-0.6,0.7-0.8,1.3-0.5,1.8c0.3,0.5,1.7,1.2,4.1,2.2c0.8,0.3,2,0.4,3.5,0.2c0.3,0.6,1.1,1.1,2.5,1.5c0.9-0.1,1.6-0.2,2.1-0.5
		c0.5-0.3,0.9-0.4,1.1-0.5c0.1-0.6,0.1-1.1,0.1-1.5c0-0.6-0.1-1.3-0.2-2.1c-0.2,0.2-0.4,0.3-0.5,0.4c-0.3,0.2-0.7,0.4-1,0.5
		c-0.4,0.1-0.9,0.2-1.3,0.2C844.3,318.9,843.4,318.5,842.1,317.8L842.1,317.8z"/>
	<path fill="#CCCCCC" d="M843.5,257c-0.4-0.9-1.3-1.7-2.7-2.3c-1.2,1.6-1.6,4.1-1.3,7.4c-0.4-1.3-0.6-2.4-0.7-3.4
		c-0.6,2.1-1.2,3.7-1.7,4.6c-0.4,0.8-0.8,2.2-1.4,4.2c-0.3,1-0.6,2.3-1,3.7c-0.1-0.2-0.2-0.8-0.3-1.8c-0.1-0.5-0.1-1,0-1.5
		c0.1-0.5,0.2-0.9,0.2-1.3c0.1-0.4,0.3-1.1,0.8-1.9c-0.5-1.2-1.3-2.3-2.5-3.2c-0.3-0.1-0.5-0.2-0.6-0.2l-0.4-0.5c0,0,0,0,0,0
		c-0.1-0.1-0.3-0.2-0.6-0.4c-0.6-0.2-1.1-0.2-1.6,0.1c-0.3,0.2-0.5,0.4-0.7,0.6c-0.1,0.1-0.2,0.2-0.2,0.4c-0.1,0.1-0.1,0.3-0.1,0.4
		c0,0.2,0,0.3-0.1,0.5c0,0,0.1,0.1,0.1,0.2c0.3,0.5,0.5,0.8,0.6,1c0.3-0.8,0.7-1.2,1.1-1.4c-0.3,0.1-0.6,0.6-0.8,1.5
		c0,0.1,0,0.3,0,0.4c0,0.1,0.1,0.5,0.3,1.4c0.2,0.9,0.9,2.3,2,4.1c1.1,1.8,2.4,2.9,3.9,3.2c0.3,0,0.5-0.1,0.8-0.2
		c0.8-1.1,1.9-2.6,3.3-4.6c2.5-4.6,3.7-7.7,3.6-9.4C843.8,257.8,843.7,257.4,843.5,257L843.5,257z"/>
	<path fill="#E1E1E1" d="M840.9,254.7C841.1,254.8,841,254.7,840.9,254.7l-1-0.1c-0.6,0.9-1.7,3.3-3.2,7c-0.5,1.3-0.9,2.2-1.2,2.9
		c-0.5,0.9-0.8,1.5-0.8,1.9c-0.1,0.4-0.1,0.9-0.2,1.3c-0.1,0.5-0.1,0.9,0,1.5c0.1,1.1,0.2,1.7,0.3,1.8c0.4-1.4,0.7-2.6,1-3.7
		c0.6-2,1-3.4,1.4-4.2c0.5-0.9,1.1-2.5,1.7-4.6c0,0.9,0.3,2.1,0.7,3.4C839.3,258.8,839.7,256.4,840.9,254.7L840.9,254.7z"/>
	<path fill="#F0D597" d="M830.1,256.1c-0.1,0.2-0.1,0.4-0.2,0.6c-0.1,0.3-0.2,0.6-0.2,0.9c0.1-0.2,0.2-0.3,0.3-0.3
		c0,0,0.1-0.2,0.2-0.5c0.1-0.3,0.2-0.5,0.3-0.6c0.1-0.1,0.2-0.1,0.4-0.1c0,0,0,0,0,0c0,0,0,0,0,0l0,0v0h0l0-0.2
		c0-0.2,0.1-0.4,0.1-0.6c0-0.2,0.1-0.3,0.1-0.5c0-0.2-0.1-0.3-0.3-0.3c-0.1,0.2-0.3,0.5-0.4,0.9
		C830.5,255.5,830.3,255.8,830.1,256.1L830.1,256.1z"/>
	<path fill="#E3BA99" d="M830,256.7c0-0.2,0.1-0.4,0.2-0.6c0.2-0.4,0.4-0.6,0.4-0.7c-0.1,0.1-0.3,0.1-0.4,0.2
		c-0.5,0.3-0.9,0.5-1.1,0.8c-0.2,0.2-0.6,0.8-1,1.6c0,0.3-0.1,0.6-0.1,0.9c0.2,0.7,0.3,1.2,0.5,1.6c0.2,0.3,0.3,0.6,0.4,0.8
		c0,0,0,0,0-0.1c0.1-0.1,0.2-0.2,0.3-0.3c0.2-0.2,0.4-0.4,0.7-0.6c0.5-0.3,1-0.3,1.6-0.1c0.3,0.2,0.5,0.3,0.6,0.4
		c0-0.1,0.1-0.3,0.1-0.5c0-0.4,0.1-0.7,0.1-0.7c0-0.1,0-0.2,0-0.4c0-0.2,0-0.3-0.1-0.5c0-0.1,0-0.1,0-0.2c0-0.3-0.1-0.7-0.4-1.1
		c0-0.1-0.1-0.2-0.2-0.3c-0.1-0.2-0.1-0.3-0.1-0.3c0,0,0-0.2,0.1-0.4c0.1-0.2,0.1-0.4,0.1-0.5c0-0.1,0-0.3-0.1-0.7
		c0-0.1-0.1-0.3-0.1-0.5c0-0.1-0.1-0.1-0.1-0.1c-0.1-0.1-0.2-0.2-0.3-0.2c-0.1,0-0.1,0.1-0.2,0.2c0.2,0,0.3,0.1,0.3,0.3
		c0,0.2-0.1,0.4-0.1,0.5c0,0.2-0.1,0.3-0.1,0.6l0,0.2h0v0l0,0c0,0,0,0,0,0c0,0,0,0,0,0c-0.1,0-0.3,0-0.4,0.1
		c-0.1,0.1-0.2,0.3-0.3,0.6c-0.1,0.3-0.1,0.5-0.2,0.5c0,0-0.1,0.1-0.3,0.3c0,0,0,0,0,0.1c0,0,0,0.1,0,0.1c-0.1,0-0.2,0.1-0.4,0.2
		c-0.2,0.1-0.4,0.2-0.5,0.2l0,0c0.2-0.5,0.4-0.8,0.5-1C829.4,257,829.6,256.9,830,256.7L830,256.7z M829.6,258.7
		c-0.1,0.4-0.1,0.6-0.1,0.7c0-0.1-0.1-0.2-0.1-0.2c-0.1-0.1-0.1-0.2-0.1-0.3c0-0.3,0.1-0.5,0.2-0.6c0.3-0.2,0.6-0.3,1-0.3
		C830,258.2,829.7,258.5,829.6,258.7L829.6,258.7z"/>
	<path fill="#F0D597" d="M829.5,259.4c0-0.1,0-0.3,0.1-0.7c0.1-0.3,0.4-0.5,0.9-0.7c-0.4,0-0.7,0.1-1,0.3c-0.1,0.1-0.2,0.3-0.2,0.6
		c0,0.1,0,0.2,0.1,0.3C829.4,259.2,829.5,259.3,829.5,259.4L829.5,259.4z"/>
	<path fill="#A88B73" d="M829.3,258c0.2-0.1,0.3-0.1,0.4-0.2c0,0,0-0.1,0-0.1c0,0,0-0.1,0-0.1c0.1-0.3,0.2-0.6,0.2-0.9
		c-0.3,0.1-0.5,0.3-0.7,0.5c-0.1,0.1-0.2,0.5-0.5,1l0,0C828.9,258.2,829.1,258.1,829.3,258L829.3,258z"/>
	<path fill="#A88B73" d="M832.4,255.1c-0.3,0-0.5,0-0.7,0c0,0.3,0.1,0.6,0.1,0.7c0,0.1-0.1,0.3-0.1,0.5c-0.1,0.2-0.1,0.3-0.1,0.4
		c0,0,0.1,0.1,0.1,0.3c0.1,0.2,0.2,0.3,0.2,0.3c0.2,0.4,0.4,0.8,0.4,1.1c0,0,0,0.1,0,0.2c0.2-0.1,0.4-0.2,0.8-0.4
		c0.4-0.2,0.6-0.5,0.6-0.9c0-0.4,0-0.8-0.1-1.3C833.4,255.4,833.1,255.2,832.4,255.1L832.4,255.1z"/>
	<path fill="#A88B73" d="M829,261.3C829,261.3,829,261.3,829,261.3c-0.1-0.2-0.3-0.4-0.5-0.8c-0.2-0.3-0.3-0.9-0.5-1.6
		c0,1.3,0.2,2.5,0.8,3.5c0,0,0,0,0,0v0c0,0,0,0,0,0v0c0-0.1,0-0.2,0-0.3c0-0.2,0-0.3,0.1-0.5C828.9,261.6,828.9,261.4,829,261.3
		c0.1-0.1,0.2-0.2,0.3-0.3C829.1,261.1,829,261.2,829,261.3L829,261.3z"/>
	<path fill="#AAAAAA" d="M828.9,262.3c0-0.1-0.1-0.1-0.1-0.2c0,0.1,0,0.2,0,0.3v0c0,0,0,0,0,0v0c0,0,0,0,0,0.1c0,0.1,0,0.3,0,0.4
		c0.1,0.1,0.1,0.2,0.2,0.4c0.2,0.3,0.3,0.6,0.5,0.8c0-0.3,0.1-0.6,0.1-0.8C829.4,263.1,829.2,262.8,828.9,262.3L828.9,262.3z"/>
	<path fill="#999999" d="M830.2,265.3c-0.2-0.9-0.3-1.4-0.3-1.4c0-0.1,0-0.3,0-0.4c0.2-0.9,0.5-1.4,0.8-1.5
		c-0.5,0.1-0.8,0.6-1.1,1.4c0,0.2-0.1,0.5-0.1,0.8c0,0,0,0,0,0.1c0,0.6,0.2,1.6,0.7,3c0.6,1.7,2.1,3.5,4.6,5.4c0.5,0,0.9,0,1.4-0.1
		c-1.5-0.3-2.8-1.3-3.9-3.2C831.1,267.5,830.5,266.2,830.2,265.3L830.2,265.3z"/>
	<path fill="#999999" d="M843.7,262.6c0.3-1.8,0.4-3.3,0.2-4.3c0.1,1.7-1.1,4.8-3.6,9.4c-1.4,2-2.5,3.5-3.3,4.6
		c1.6-0.5,3-1.8,4.1-3.8C842.6,265.6,843.5,263.6,843.7,262.6L843.7,262.6z"/>
</g>
</svg>
