<?xml version="1.0" encoding="utf-8"?>
<!-- Generator: Adobe Illustrator 18.0.0, SVG Export Plug-In . SVG Version: 6.00 Build 0)  -->
<!DOCTYPE svg PUBLIC "-//W3C//DTD SVG 1.1//EN" "http://www.w3.org/Graphics/SVG/1.1/DTD/svg11.dtd">
<svg version="1.1" id="Layer_1" xmlns="http://www.w3.org/2000/svg" xmlns:xlink="http://www.w3.org/1999/xlink" x="0px" y="0px"
	 viewBox="0 0 1280 720" enable-background="new 0 0 1280 720" xml:space="preserve">
<g>
	<linearGradient id="SVGID_1_" gradientUnits="userSpaceOnUse" x1="426.3698" y1="491.5247" x2="413.5085" y2="418.585">
		<stop  offset="0" style="stop-color:#FFFBCC"/>
		<stop  offset="0.1351" style="stop-color:#FFFBCC;stop-opacity:0.8649"/>
		<stop  offset="1" style="stop-color:#FFFBCC;stop-opacity:0"/>
	</linearGradient>
	<path fill="url(#SVGID_1_)" d="M443.5,488.5l-59.4-48.8l61.4-26.7l5.9,70.8C449.2,480.2,441.9,484,443.5,488.5z"/>
	<linearGradient id="SVGID_2_" gradientUnits="userSpaceOnUse" x1="334.5457" y1="339.4511" x2="353.118" y2="307.2829">
		<stop  offset="0" style="stop-color:#FFFBCC"/>
		<stop  offset="0.1351" style="stop-color:#FFFBCC;stop-opacity:0.8649"/>
		<stop  offset="1" style="stop-color:#FFFBCC;stop-opacity:0"/>
	</linearGradient>
	<path fill="url(#SVGID_2_)" d="M327.5,260.7l12.6,55.1l7.6,33.3c1.3-0.6,3-0.4,4.6,0.7c1,0.7,1.8,1.6,2.1,2.5l33.9-15.2l0-26.5
		L327.5,260.7z"/>
	<linearGradient id="SVGID_3_" gradientUnits="userSpaceOnUse" x1="463.8791" y1="405.433" x2="482.4515" y2="373.2648">
		<stop  offset="0" style="stop-color:#FFFBCC"/>
		<stop  offset="0.1351" style="stop-color:#FFFBCC;stop-opacity:0.8649"/>
		<stop  offset="1" style="stop-color:#FFFBCC;stop-opacity:0"/>
	</linearGradient>
	<path fill="url(#SVGID_3_)" d="M456.9,326.7l12.6,55.1l7.6,33.3c1.3-0.6,3-0.4,4.6,0.7c1,0.7,1.8,1.6,2.1,2.5l33.9-15.2v-36.5
		L456.9,326.7z"/>
	<linearGradient id="SVGID_4_" gradientUnits="userSpaceOnUse" x1="553.9565" y1="449.3041" x2="572.5289" y2="417.1359">
		<stop  offset="0" style="stop-color:#FFFBCC"/>
		<stop  offset="0.1351" style="stop-color:#FFFBCC;stop-opacity:0.8649"/>
		<stop  offset="1" style="stop-color:#FFFBCC;stop-opacity:0"/>
	</linearGradient>
	<path fill="url(#SVGID_4_)" d="M546.9,370.5l12.6,55.1l7.6,33.3c1.3-0.6,3-0.4,4.6,0.7c1,0.7,1.8,1.6,2.1,2.5l33.9-15.2v-26.5
		L546.9,370.5z"/>
</g>
</svg>
