<?xml version="1.0" encoding="utf-8"?>
<!-- Generator: Adobe Illustrator 18.0.0, SVG Export Plug-In . SVG Version: 6.00 Build 0)  -->
<!DOCTYPE svg PUBLIC "-//W3C//DTD SVG 1.1//EN" "http://www.w3.org/Graphics/SVG/1.1/DTD/svg11.dtd">
<svg version="1.1" id="Layer_1" xmlns="http://www.w3.org/2000/svg" xmlns:xlink="http://www.w3.org/1999/xlink" x="0px" y="0px"
	 viewBox="0 0 1280 720" enable-background="new 0 0 1280 720" xml:space="preserve">
<g>
	<g opacity="0.5">
		<image overflow="visible" width="235" height="155" xlink:href="B9DD57E50E49E14.png"  transform="matrix(1 0 0 1 135 336)">
		</image>
	</g>
	<polygon points="237.2,418.8 246.8,417.6 250.3,427 248,431.5 243.2,430.3 	"/>
	<path fill="#1D1D1D" d="M235.1,442.4c-0.2,0-0.3,0.1-0.5,0.1C234.8,442.5,234.9,442.4,235.1,442.4z"/>
	<path fill="#1D1D1D" d="M236.6,441.8c-0.3,0.1-0.5,0.3-0.8,0.4C236.1,442.1,236.3,442,236.6,441.8z"/>
	<path fill="#1D1D1D" d="M235.8,442.2c-0.2,0.1-0.4,0.1-0.6,0.2C235.4,442.3,235.6,442.3,235.8,442.2z"/>
	<path fill="#1D1D1D" d="M236.9,441.7c-0.1,0.1-0.2,0.1-0.3,0.2C236.7,441.8,236.8,441.7,236.9,441.7z"/>
	<path fill="#1D1D1D" d="M235.2,442.4c0,0-0.1,0-0.1,0C235.1,442.4,235.2,442.4,235.2,442.4z"/>
	<path fill="#1D1D1D" d="M236.9,441.7c0.1,0,0.2-0.1,0.3-0.1l0,0C237.1,441.5,237,441.6,236.9,441.7z"/>
	<path fill="#1D1D1D" d="M234.6,442.5C234.6,442.5,234.6,442.5,234.6,442.5C234.6,442.5,234.6,442.5,234.6,442.5L234.6,442.5z"/>
	<path d="M236.4,437.7l-1.9,4.8c0,0,0,0,0.1,0c0.2,0,0.3,0,0.5-0.1c0,0,0.1,0,0.1,0c0.2,0,0.4-0.1,0.6-0.2c0.3-0.1,0.5-0.2,0.8-0.4
		c0.1-0.1,0.2-0.1,0.3-0.2c0.1,0,0.2-0.1,0.3-0.2L236.4,437.7z"/>
	<path fill="#1D1D1D" d="M232.3,442C232.3,442,232.3,442,232.3,442L232.3,442C232.3,442,232.3,442,232.3,442z"/>
	<path fill="#1D1D1D" d="M234.5,442.5c-0.2,0-0.4,0-0.6,0C234.1,442.5,234.3,442.5,234.5,442.5z"/>
	<linearGradient id="SVGID_1_" gradientUnits="userSpaceOnUse" x1="227.6035" y1="442.739" x2="237.174" y2="421.5362">
		<stop  offset="0" style="stop-color:#000000"/>
		<stop  offset="3.261226e-02" style="stop-color:#050202"/>
		<stop  offset="0.1835" style="stop-color:#180B09"/>
		<stop  offset="0.3595" style="stop-color:#26110E"/>
		<stop  offset="0.5816" style="stop-color:#2E1411"/>
		<stop  offset="1" style="stop-color:#301512"/>
	</linearGradient>
	<path fill="url(#SVGID_1_)" d="M238.4,419.4c-8.3,1.1-15.1,21.5-15.1,21.5l8.1,3.8c-1.4-0.6-2.5-2.1-2.9-4.3
		c-1-5.2,2-12.7,6.6-16.7c2.7-2.3,5.4-3,7.4-2.1l-2.1-1.1L238.4,419.4z"/>
	<path fill="#0C000E" d="M245.4,425.9c-0.4-2.2-1.5-3.6-2.9-4.3l0,0c-2-0.9-4.6-0.3-7.3,2.1c-4.7,4-7.6,11.5-6.6,16.7
		c0.4,2.2,1.5,3.6,2.9,4.3c2,0.9,4.6,0.3,7.4-2.1c3.5-3,6-7.9,6.7-12.4C245.7,428.8,245.7,427.3,245.4,425.9z M243.7,429.8
		c0,0.1,0,0.2,0,0.3c0,0.1,0,0.1,0,0.2c0,0.1,0,0.3,0,0.4c0,0.1,0,0.1,0,0.2c0,0.1,0,0.1,0,0.2c0,0.2-0.1,0.4-0.1,0.6
		c0,0.1-0.1,0.3-0.1,0.4c0,0.1-0.1,0.3-0.1,0.4c-0.1,0.2-0.1,0.5-0.2,0.7c0,0.1,0,0.2-0.1,0.2c-0.2,0.5-0.4,1.1-0.6,1.6
		c-0.1,0.1-0.1,0.3-0.2,0.4c-0.1,0.2-0.2,0.4-0.3,0.7c0,0.1-0.1,0.1-0.1,0.2c-0.1,0.1-0.1,0.3-0.2,0.4c-0.1,0.2-0.2,0.4-0.3,0.5
		c-0.1,0.1-0.2,0.3-0.2,0.4c-0.1,0.2-0.2,0.4-0.4,0.5c-0.1,0.1-0.2,0.2-0.2,0.3c-0.2,0.3-0.4,0.5-0.6,0.8c0,0,0,0,0,0
		c-0.1,0.1-0.1,0.1-0.2,0.2c-0.2,0.2-0.3,0.4-0.5,0.5c-0.1,0.1-0.1,0.1-0.2,0.2c-0.1,0.1-0.1,0.1-0.2,0.2c-0.1,0.1-0.1,0.1-0.2,0.2
		c-0.1,0.1-0.1,0.1-0.2,0.2c-0.1,0-0.1,0.1-0.2,0.1c-0.1,0-0.1,0.1-0.2,0.1c-0.1,0-0.1,0.1-0.2,0.1c-0.1,0-0.1,0.1-0.2,0.1
		c-0.1,0-0.1,0.1-0.2,0.1c-0.2,0.1-0.3,0.2-0.5,0.3c-0.1,0.1-0.2,0.1-0.3,0.1c-0.1,0.1-0.2,0.1-0.3,0.2c-0.3,0.1-0.5,0.3-0.8,0.4
		c-0.2,0.1-0.4,0.1-0.6,0.2c0,0-0.1,0-0.1,0c-0.2,0-0.3,0.1-0.5,0.1c0,0-0.1,0-0.1,0c0,0,0,0-0.1,0c-0.2,0-0.4,0-0.6,0
		c0,0-0.1,0-0.1,0c0,0-0.1,0-0.1,0c-0.1,0-0.2,0-0.3-0.1c-0.1,0-0.2,0-0.3-0.1c0,0-0.1,0-0.1,0c-0.1,0-0.1-0.1-0.2-0.1
		c0,0-0.1,0-0.1,0c-0.1,0-0.2-0.1-0.2-0.1c0,0,0,0-0.1,0c0,0,0,0-0.1,0c0,0,0,0,0,0c0,0-0.1,0-0.1-0.1c0,0-0.1,0-0.1-0.1
		c0,0-0.1-0.1-0.1-0.1c-0.1-0.1-0.1-0.1-0.2-0.2c0,0-0.1-0.1-0.1-0.1c0,0-0.1-0.1-0.1-0.1c0,0,0,0,0,0c0,0-0.1-0.1-0.1-0.1
		c0,0-0.1-0.1-0.1-0.1c0,0-0.1-0.1-0.1-0.1c0,0-0.1-0.1-0.1-0.1c0,0-0.1-0.1-0.1-0.1c0,0-0.1-0.1-0.1-0.1c-0.1-0.1-0.1-0.2-0.1-0.3
		c0-0.1,0-0.1-0.1-0.2c0,0,0-0.1-0.1-0.1c0-0.1,0-0.1-0.1-0.2c0-0.1-0.1-0.2-0.1-0.3c0,0,0-0.1,0-0.1c0,0,0,0,0-0.1c0,0,0-0.1,0-0.1
		c0-0.1-0.1-0.2-0.1-0.4c0-0.1,0-0.1,0-0.2c0-0.1,0-0.3-0.1-0.4c0-0.1,0-0.1,0-0.2c0-0.1,0-0.3,0-0.4c0-0.1,0-0.2,0-0.4
		c0,0,0-0.1,0-0.1c0-0.1,0-0.2,0-0.3c0-0.1,0-0.1,0-0.2c0,0,0-0.1,0-0.1c0-0.1,0-0.1,0-0.2c0-0.1,0-0.2,0-0.2c0,0,0-0.1,0-0.1
		c0-0.3,0.1-0.7,0.1-1c0-0.1,0-0.1,0-0.2c0.1-0.4,0.2-0.8,0.3-1.1c0.1-0.3,0.1-0.5,0.2-0.8c0.1-0.3,0.2-0.6,0.3-0.8
		c0.1-0.2,0.2-0.4,0.3-0.7c0,0,0,0,0,0c0.2-0.4,0.4-0.8,0.6-1.2c0,0,0-0.1,0-0.1c0.2-0.3,0.3-0.6,0.5-0.8c0.1-0.1,0.2-0.3,0.3-0.4
		c0.1-0.1,0.2-0.3,0.3-0.4c0-0.1,0.1-0.1,0.1-0.2c0-0.1,0.1-0.1,0.1-0.2c0-0.1,0.1-0.1,0.1-0.2c0,0,0,0,0,0c0.1-0.1,0.2-0.2,0.3-0.3
		c0-0.1,0.1-0.1,0.1-0.2c0-0.1,0.1-0.1,0.2-0.2c0.1-0.1,0.1-0.1,0.2-0.2c0-0.1,0.1-0.1,0.1-0.2c0.3-0.4,0.7-0.7,1-1
		c0.1-0.1,0.1-0.1,0.2-0.2c0.1,0,0.1-0.1,0.2-0.1c0.1-0.1,0.2-0.2,0.4-0.3c0.1,0,0.1-0.1,0.2-0.1c0.1,0,0.1-0.1,0.2-0.1
		c0.1-0.1,0.2-0.1,0.3-0.2c0,0,0,0,0,0c0.1,0,0.1-0.1,0.2-0.1c0.1-0.1,0.2-0.1,0.3-0.2c0.1,0,0.1-0.1,0.2-0.1
		c0.2-0.1,0.3-0.1,0.5-0.2c0.1,0,0.2-0.1,0.3-0.1c0.1,0,0.1,0,0.2,0c0.1,0,0.2-0.1,0.3-0.1c0,0,0.1,0,0.1,0c0,0,0.1,0,0.1,0
		c0,0,0.1,0,0.1,0c0,0,0.1,0,0.1,0c0,0,0.1,0,0.1,0c0,0,0.1,0,0.1,0c0,0,0.1,0,0.1,0c0.1,0,0.2,0,0.3,0c0,0,0.1,0,0.1,0
		c0,0,0.1,0,0.1,0c0,0,0,0,0.1,0c0,0,0.1,0,0.1,0c0,0,0.1,0,0.1,0c0,0,0.1,0,0.1,0c0,0,0.1,0,0.1,0c0,0,0.1,0,0.1,0c0,0,0.1,0,0.1,0
		c0.1,0,0.1,0.1,0.2,0.1c0,0,0.1,0,0.1,0.1c0,0,0.1,0,0.1,0.1c0.1,0,0.1,0.1,0.2,0.1c0.1,0,0.1,0.1,0.2,0.2c0,0,0.1,0.1,0.1,0.1
		c0,0,0.1,0.1,0.1,0.1c0,0,0.1,0.1,0.1,0.1c0.1,0.1,0.2,0.2,0.3,0.3c0,0,0.1,0.1,0.1,0.1c0,0,0.1,0.1,0.1,0.1
		c0.1,0.1,0.2,0.2,0.2,0.4c0,0,0,0.1,0.1,0.1c0,0,0,0.1,0.1,0.1c0,0,0,0.1,0.1,0.1c0,0,0,0,0,0.1c0.1,0.1,0.1,0.3,0.2,0.4
		c0,0,0,0.1,0,0.1c0,0,0,0.1,0,0.1c0,0.1,0,0.1,0,0.2c0,0,0,0,0,0c0,0.1,0,0.1,0,0.2c0,0.1,0.1,0.2,0.1,0.4c0,0.1,0,0.1,0,0.2
		c0,0.1,0,0.1,0,0.2c0,0,0,0.1,0,0.1c0,0.1,0,0.1,0,0.2c0,0,0,0,0,0c0,0.1,0,0.1,0,0.2c0,0,0,0,0,0c0,0.1,0,0.3,0,0.4
		c0,0.1,0,0.1,0,0.2C243.7,429.3,243.7,429.5,243.7,429.8z"/>
	<path fill="#1D1D1D" d="M232.7,429.3c-0.2,0.3-0.3,0.5-0.5,0.8l0,0C232.4,429.8,232.6,429.6,232.7,429.3z"/>
	<path d="M233.7,434.4l-2.9-0.6c-0.1,0.4-0.2,0.8-0.3,1.1c0,0.1,0,0.1,0,0.2c-0.1,0.4-0.1,0.7-0.1,1c0,0,0,0.1,0,0.1
		c0,0.1,0,0.2,0,0.2c0,0.1,0,0.1,0,0.2c0,0,0,0.1,0,0.1c0,0.1,0,0.1,0,0.2c0,0.1,0,0.2,0,0.3c0,0,0,0.1,0,0.1L233.7,434.4z"/>
	<path d="M234.2,437.2l-3.4,2.9c0,0.1,0,0.1,0.1,0.2c0,0.1,0.1,0.2,0.1,0.3c0,0,0.1,0.1,0.1,0.1c0,0,0.1,0.1,0.1,0.1
		c0,0,0.1,0.1,0.1,0.1c0,0,0.1,0.1,0.1,0.1c0,0,0.1,0.1,0.1,0.1c0,0,0.1,0.1,0.1,0.1c0,0,0,0,0,0c0,0,0.1,0.1,0.1,0.1
		c0,0,0.1,0.1,0.1,0.1c0.1,0.1,0.1,0.1,0.2,0.2c0,0,0.1,0.1,0.1,0.1c0,0,0.1,0,0.1,0.1c0,0,0.1,0,0.1,0.1c0,0,0,0,0,0c0,0,0,0,0.1,0
		L234.2,437.2z"/>
	<path d="M235.1,430.7l-0.7-3.7c-0.1,0.1-0.1,0.1-0.2,0.2c-0.1,0.1-0.1,0.1-0.2,0.2c-0.1,0.1-0.1,0.1-0.1,0.2
		c-0.1,0.1-0.2,0.2-0.3,0.3c0,0,0,0,0,0c0,0.1-0.1,0.1-0.1,0.2c0,0.1-0.1,0.1-0.1,0.2c0,0.1-0.1,0.1-0.1,0.2
		c-0.1,0.1-0.2,0.3-0.3,0.4c-0.1,0.1-0.2,0.3-0.3,0.4c-0.2,0.3-0.3,0.6-0.5,0.8L235.1,430.7z"/>
	<path fill="#1D1D1D" d="M231.6,431.4c0.2-0.4,0.4-0.8,0.6-1.2C232,430.6,231.8,431,231.6,431.4z"/>
	<path fill="#B4A79F" d="M243.7,429.1c0-0.1,0-0.1,0-0.2c0-0.1,0-0.3,0-0.4c0,0,0,0,0,0c0-0.1,0-0.1,0-0.2c0,0,0,0,0,0
		c0-0.1,0-0.1,0-0.2c0-0.1,0-0.1,0-0.1c0-0.1,0-0.1,0-0.2c0-0.1,0-0.1,0-0.2c0-0.1-0.1-0.3-0.1-0.4c0-0.1,0-0.1,0-0.2c0,0,0,0,0,0
		c0-0.1,0-0.1,0-0.2c0,0,0-0.1,0-0.1c0,0,0-0.1,0-0.1c0-0.1-0.1-0.3-0.2-0.4l-3.2,2.8l1.8-4.6c-0.1,0-0.1-0.1-0.2-0.1
		c0,0-0.1,0-0.1-0.1c0,0-0.1,0-0.1-0.1c-0.1,0-0.1-0.1-0.2-0.1c0,0-0.1,0-0.1,0c0,0-0.1,0-0.1,0c0,0-0.1,0-0.1,0c0,0-0.1,0-0.1,0
		c0,0-0.1,0-0.1,0c0,0-0.1,0-0.1,0c0,0,0,0-0.1,0c0,0-0.1,0-0.1,0c0,0-0.1,0-0.1,0c-0.1,0-0.2,0-0.3,0c0,0-0.1,0-0.1,0
		c0,0-0.1,0-0.1,0v0l-1.8,4.6l-0.7-3.7c0,0,0,0,0,0c-0.1,0.1-0.2,0.1-0.3,0.2c-0.1,0-0.1,0.1-0.2,0.1c-0.1,0-0.1,0.1-0.2,0.1
		c-0.1,0.1-0.2,0.2-0.4,0.3c-0.1,0-0.1,0.1-0.2,0.1c-0.1,0.1-0.1,0.1-0.2,0.2c-0.4,0.3-0.7,0.7-1,1c0,0.1-0.1,0.1-0.1,0.2l0.7,3.7
		l-2.9-0.6c0,0,0,0.1-0.1,0.1c-0.2,0.4-0.4,0.8-0.6,1.2c0,0,0,0,0,0c-0.1,0.2-0.2,0.4-0.3,0.7c-0.1,0.3-0.2,0.6-0.3,0.8
		c-0.1,0.3-0.2,0.5-0.2,0.8l2.9,0.6l-3.4,2.9c0,0.1,0,0.2,0,0.4c0,0.1,0,0.3,0,0.4c0,0.1,0,0.1,0,0.2c0,0.1,0,0.3,0.1,0.4
		c0,0.1,0,0.1,0,0.2c0,0.1,0.1,0.3,0.1,0.4c0,0,0,0.1,0,0.1c0,0,0,0,0,0.1c0,0,0,0.1,0,0.1c0,0.1,0.1,0.2,0.1,0.3
		c0,0.1,0,0.1,0.1,0.2c0,0.1,0,0.1,0.1,0.1l3.4-2.9l-1.9,4.8c0,0,0,0,0.1,0c0.1,0,0.2,0.1,0.2,0.1c0,0,0.1,0,0.1,0
		c0.1,0,0.1,0.1,0.2,0.1c0,0,0.1,0,0.1,0c0.1,0,0.2,0.1,0.3,0.1c0.1,0,0.2,0,0.3,0.1c0,0,0.1,0,0.1,0c0,0,0.1,0,0.1,0
		c0.2,0,0.4,0,0.6,0c0,0,0,0,0.1,0l1.9-4.8l0.7,3.8c0.2-0.1,0.3-0.2,0.5-0.3c0.1,0,0.1-0.1,0.2-0.1c0.1,0,0.1-0.1,0.2-0.1
		c0.1,0,0.1-0.1,0.2-0.1c0.1,0,0.1-0.1,0.2-0.1c0.1,0,0.1-0.1,0.2-0.1c0.1-0.1,0.1-0.1,0.2-0.2c0.1-0.1,0.1-0.1,0.2-0.2
		c0.1-0.1,0.1-0.1,0.2-0.2c0.1-0.1,0.1-0.1,0.2-0.2c0.2-0.2,0.3-0.3,0.5-0.5c0.1-0.1,0.1-0.1,0.2-0.2l-0.7-3.8l2.8,0.6
		c0.1-0.2,0.2-0.4,0.3-0.7c0.1-0.1,0.1-0.3,0.2-0.4c0.2-0.5,0.4-1.1,0.6-1.6c0-0.1,0-0.2,0.1-0.2c0.1-0.2,0.1-0.5,0.2-0.7l-2.8-0.6
		L243.7,429.1z M237.4,435.3c-1,0.9-2,0.7-2.2-0.5c-0.2-1.1,0.4-2.7,1.4-3.6c1-0.9,2-0.7,2.2,0.5C239,432.8,238.4,434.4,237.4,435.3
		z"/>
	<path fill="#1D1D1D" d="M232.3,430.1C232.2,430.2,232.2,430.2,232.3,430.1C232.2,430.2,232.2,430.2,232.3,430.1L232.3,430.1z"/>
	<path fill="#1D1D1D" d="M234.5,442.5C234.5,442.5,234.5,442.5,234.5,442.5L234.5,442.5C234.5,442.5,234.5,442.5,234.5,442.5z"/>
	<path fill="#1D1D1D" d="M232.3,442C232.4,442,232.4,442.1,232.3,442C232.4,442.1,232.4,442,232.3,442L232.3,442z"/>
	<path fill="#000002" d="M236.6,431.2c-1,0.9-1.6,2.5-1.4,3.6c0.2,1.1,1.2,1.3,2.2,0.5c1-0.9,1.6-2.5,1.4-3.6
		C238.6,430.5,237.6,430.3,236.6,431.2z"/>
	<linearGradient id="SVGID_2_" gradientUnits="userSpaceOnUse" x1="229.4694" y1="444.2706" x2="238.6302" y2="420.5097">
		<stop  offset="0" style="stop-color:#603E23;stop-opacity:0"/>
		<stop  offset="0.6458" style="stop-color:#603E23"/>
		<stop  offset="1" style="stop-color:#603E23;stop-opacity:0"/>
	</linearGradient>
	<path fill="url(#SVGID_2_)" d="M232.3,444.8c-1.4-0.6-2.5-2.1-2.9-4.3c-1-5.2,2-12.7,6.6-16.7c1.8-1.5,3.5-2.3,5.1-2.4
		c-1.7-0.1-3.8,0.6-5.9,2.4c-4.7,4-7.6,11.5-6.6,16.7c0.4,2.2,1.5,3.6,2.9,4.3c0.7,0.3,1.4,0.4,2.3,0.4
		C233.2,445.1,232.7,445,232.3,444.8z"/>
	<path fill="#9B908A" d="M241.5,424.3c0,0-0.1,0-0.1-0.1c0,0-0.1,0-0.1-0.1c-0.1,0-0.1-0.1-0.2-0.1c0,0-0.1,0-0.1,0c0,0-0.1,0-0.1,0
		c0,0-0.1,0-0.1,0c0,0-0.1,0-0.1,0c0,0-0.1,0-0.1,0c0,0-0.1,0-0.1,0c0,0,0,0-0.1,0c0,0-0.1,0-0.1,0c0,0-0.1,0-0.1,0
		c-0.1,0-0.2,0-0.3,0c0,0-0.1,0-0.1,0c0,0-0.1,0-0.1,0v0l-1.8,4.6l-0.7-3.7c0,0,0,0,0,0c-0.1,0.1-0.2,0.1-0.3,0.2
		c-0.1,0-0.1,0.1-0.2,0.1c-0.1,0-0.1,0.1-0.2,0.1c-0.1,0.1-0.2,0.2-0.4,0.3c-0.1,0-0.1,0.1-0.2,0.1c-0.1,0.1-0.1,0.1-0.2,0.2
		c-0.4,0.3-0.7,0.7-1,1c0,0.1-0.1,0.1-0.1,0.2l0.7,3.7l-2.9-0.6c0,0,0,0.1-0.1,0.1c-0.2,0.4-0.4,0.8-0.6,1.2c0,0,0,0,0,0
		c-0.1,0.2-0.2,0.4-0.3,0.7c-0.1,0.3-0.2,0.6-0.3,0.8c-0.1,0.3-0.2,0.5-0.2,0.8l2.9,0.6l-3.4,2.9c0,0.1,0,0.2,0,0.4
		c0,0.1,0,0.3,0,0.4c0,0.1,0,0.1,0,0.2c0,0.1,0,0.3,0.1,0.4c0,0.1,0,0.1,0,0.2c0,0.1,0.1,0.3,0.1,0.4c0,0,0,0.1,0,0.1c0,0,0,0,0,0.1
		c0,0,0,0.1,0,0.1c0,0.1,0.1,0.2,0.1,0.3c0,0.1,0,0.1,0.1,0.2c0,0.1,0,0.1,0.1,0.1l3.4-2.9l-1.8,4.5l3.5-6c-0.4-0.1-0.6-0.4-0.7-1
		c-0.2-1.1,0.4-2.7,1.4-3.6c0.8-0.7,1.6-0.7,2-0.1l1.5-2.6l1.6-4.1C241.6,424.4,241.6,424.4,241.5,424.3z"/>
	<path fill="#1D1D1D" d="M315.8,396.3c-0.2,0.5-0.4,1.1-0.6,1.6C315.4,397.3,315.6,396.8,315.8,396.3z"/>
	<polygon fill="#68233D" points="199.5,427.9 199.5,432 200.8,432.7 200.4,428.3 	"/>
	<path fill="#1D1D1D" d="M314.5,399.2c-0.1,0.1-0.1,0.3-0.2,0.4C314.4,399.4,314.5,399.3,314.5,399.2z"/>
	<polygon fill="#1D1D1D" points="185.1,420.7 185.1,420.7 185.1,420.7 	"/>
	<polygon fill="#882F4E" points="185.1,420.7 185.1,424.9 199.5,432 199.5,427.9 	"/>
	<polygon fill="#68233D" points="185.1,420.7 184.4,420.4 183.7,424.1 185.1,424.9 185.1,420.7 	"/>
	<path fill="#C63405" d="M179.8,410.5v-9.9l-1.6-2.7l0-1.2c-1.2,2.4-2,8.9-2,8.9l0.9,3.2L179.8,410.5z"/>
	<path fill="#1D1D1D" d="M314.3,399.5c-0.1,0.2-0.2,0.4-0.3,0.5C314.1,399.9,314.2,399.7,314.3,399.5z"/>
	<path fill="#882F4E" d="M177.1,414.2l2.6-3.7l-2.7-1.7l-0.9-3.2c0,0-1.5,2.8-1.9,4l1.1,3.3L177.1,414.2z"/>
	<polygon fill="#511C32" points="182.5,419.4 183.7,424.1 184.4,420.4 	"/>
	<path fill="#1D1D1D" d="M313.8,400.4c-0.1,0.2-0.2,0.4-0.4,0.5C313.5,400.8,313.7,400.6,313.8,400.4z"/>
	<path fill="#1D1D1D" d="M314,400.1c-0.1,0.1-0.2,0.3-0.2,0.4C313.9,400.3,313.9,400.2,314,400.1z"/>
	<linearGradient id="SVGID_3_" gradientUnits="userSpaceOnUse" x1="210.1638" y1="384.7557" x2="193.5231" y2="418.8741">
		<stop  offset="0" style="stop-color:#862A47"/>
		<stop  offset="1" style="stop-color:#72253F"/>
	</linearGradient>
	<path fill="url(#SVGID_3_)" d="M179.8,400.6v9.9v1.9l28.4,14.2l0.9-1.4l0.8-4.7l1.9-3.9l7.4,0.3l1.9-0.9l1.9-21.1l-1.2-1.7
		l-27.3-13.6l0,0l-2,0.4h0c-0.7,0.6-1.5,1.2-2.1,1.8l29.1,14.6l-2.8,16.9l-2.6,0.2l-33.9-17l-0.6-2.2c-0.7,1-1.3,1.9-1.6,2.5l0,1.2
		L179.8,400.6z M191,414.8l5.4,2.7v2.2l-5.4-2.7V414.8z"/>
	<path fill="#1D1D1D" d="M313.2,401.3c-0.2,0.3-0.4,0.5-0.6,0.8C312.8,401.8,313,401.6,313.2,401.3z"/>
	<path fill="#1D1D1D" d="M313.4,401c-0.1,0.1-0.2,0.2-0.2,0.3C313.2,401.2,313.3,401.1,313.4,401z"/>
	<path fill="#742540" d="M222.7,441c0,0,1.8-10,4.3-16l-0.2-0.1l-6.4,2.1l-7.8-0.3l-3.5-1.4l-0.9,1.4l0,0l0,0l-1.5,2.3l-29.5-14.8
		l-1.9-1.4l-1.1-3.3c0,0.1,0,0.1-0.1,0.2c-0.3,1,1.5,9,2,10.1c0.4,1,4.1,4.1,9.5,7.3c5.3,3.2,22.6,12.2,27.5,13.3
		c2.9,0.7,6.4,0.7,8.8,0.6C222.2,441,222.5,441,222.7,441c1.2-0.1,2-0.1,2-0.1s2.4-8.2,5.8-13.6L227,425
		C224.5,431,222.7,441,222.7,441z M199.5,432l-14.3-7.2l-1.4-0.7l-1.2-4.8l1.9,1l0.7,0.4l14.3,7.2l0.9,0.5l0.5,4.4L199.5,432z"/>
	<linearGradient id="SVGID_4_" gradientUnits="userSpaceOnUse" x1="276.6799" y1="389.5846" x2="268.9794" y2="373.0709">
		<stop  offset="0.2938" style="stop-color:#0D0011"/>
		<stop  offset="0.7258" style="stop-color:#0C1C40"/>
		<stop  offset="1" style="stop-color:#385074"/>
	</linearGradient>
	<polygon fill="url(#SVGID_4_)" points="268.6,374 261.3,376.5 253.8,380.2 258.3,388.7 261.7,397.4 289.8,384.4 289.1,383.9 
		288.3,381.1 288.5,379.6 289.4,379.1 290.6,379.3 285.2,376.6 276.1,373.7 	"/>
	<polygon fill="#882F4E" points="177.1,414.2 206.7,429 208.2,426.6 179.8,412.4 	"/>
	<polygon fill="#E76C5E" points="292.3,381.9 292.8,383.4 292.8,385.7 293.6,384.3 293.6,382.7 293.3,381.9 291.1,379.5 
		290.6,379.3 290.6,379.3 289.4,379.1 	"/>
	<path fill="#C63405" d="M323.5,371.4l1.6,3.1l1-0.7c-0.1-0.3-0.2-0.7-0.4-1c-0.4-0.9-1.4-2.3-2.9-4l0.2,0.8L323.5,371.4z"/>
	<polygon fill="#511C32" points="179.8,410.5 177.1,414.2 179.8,412.4 	"/>
	<linearGradient id="SVGID_5_" gradientUnits="userSpaceOnUse" x1="203.1375" y1="377.7872" x2="195.1209" y2="374.2588">
		<stop  offset="0.3221" style="stop-color:#0D0011"/>
		<stop  offset="0.4985" style="stop-color:#0C1C40"/>
		<stop  offset="1" style="stop-color:#385074"/>
	</linearGradient>
	<path fill="url(#SVGID_5_)" d="M194.6,379.5l11.1-7.3c-0.2,0.1-0.3,0.2-0.3,0.2s-7.4,3.2-12.8,7.5L194.6,379.5L194.6,379.5z"/>
	<linearGradient id="SVGID_6_" gradientUnits="userSpaceOnUse" x1="219.7977" y1="405.2055" x2="182.3775" y2="388.7354">
		<stop  offset="0.2938" style="stop-color:#0D0011"/>
		<stop  offset="0.5919" style="stop-color:#0C1C40"/>
		<stop  offset="1" style="stop-color:#385074"/>
	</linearGradient>
	<path fill="url(#SVGID_6_)" d="M214.2,413.4l2.6-0.2l2.8-16.9l-29.1-14.6c-0.1,0.1-0.1,0.1-0.2,0.2c-4,4-8.2,9-10.5,12.3l0.6,2.2
		L214.2,413.4z"/>
	<path opacity="0.3" fill="#B76B15" d="M180.7,396.1c1-1.2,2-2.6,3.2-3.9c0,0,0.1-0.1,0.1-0.1c0.6-0.7,1.1-1.4,1.7-2.1
		c0,0,0,0,0-0.1c1.2-1.4,2.5-2.8,3.7-4.2c0,0,0.1-0.1,0.1-0.1c0.9-1,1.9-2,2.8-3l-1.1-0.6c-4.1,4.3-8.3,9.2-11.3,13l0.3,1.3l0.1,0
		c0.1-0.1,0.1-0.2,0.2-0.2C180.6,396.2,180.7,396.1,180.7,396.1z"/>
	<linearGradient id="SVGID_7_" gradientUnits="userSpaceOnUse" x1="187.0081" y1="388.6052" x2="193.069" y2="393.8739">
		<stop  offset="0" style="stop-color:#8BC7BF"/>
		<stop  offset="1" style="stop-color:#8BC7BF;stop-opacity:0"/>
	</linearGradient>
	<path opacity="0.4" fill="url(#SVGID_7_)" d="M192.3,382.6c-0.9,1-1.9,2-2.8,3c0,0-0.1,0.1-0.1,0.1c-1.3,1.4-2.5,2.8-3.7,4.2
		c0,0,0,0,0,0.1c-0.6,0.7-1.2,1.4-1.7,2.1c0,0-0.1,0.1-0.1,0.1c-1.1,1.3-2.2,2.7-3.2,3.9c0,0-0.1,0.1-0.1,0.1
		c-0.1,0.1-0.1,0.2-0.2,0.2l7.9,3.9c3.6-4.4,7.8-9.2,12.1-13.8L192.3,382.6z"/>
	<linearGradient id="SVGID_8_" gradientUnits="userSpaceOnUse" x1="321.9724" y1="367.0051" x2="222.7155" y2="417.579">
		<stop  offset="0" style="stop-color:#DC5B74"/>
		<stop  offset="4.498198e-02" style="stop-color:#CA526D"/>
		<stop  offset="0.1324" style="stop-color:#AE4461"/>
		<stop  offset="0.2202" style="stop-color:#9A3A59"/>
		<stop  offset="0.3075" style="stop-color:#8E3454"/>
		<stop  offset="0.3942" style="stop-color:#8A3252"/>
		<stop  offset="0.4227" style="stop-color:#893050"/>
		<stop  offset="0.5755" style="stop-color:#872B49"/>
		<stop  offset="1" style="stop-color:#862A47"/>
	</linearGradient>
	<path fill="url(#SVGID_8_)" d="M273.4,370.5l-6.3,0.4l-3.6,1.4l-12.7,6.4l5.2,10.9l3.1,9.3l1.4,7.4l0.6,4.6l35.9-17.9v1.2
		L261.2,412l0.4,2.9l1.2,4.3l1.8,1.3l33-16.5l0.9-6.9l-0.5-9.2l-3.4-9.1l-2.5-2.6l-7.2-2.7L273.4,370.5z M267.1,400.7l-5.1,2.6v-1.2
		l5.1-2.6V400.7z M290.6,379.3L290.6,379.3l0.5,0.1l2.1,2.4l0.3,0.8v1.6l-0.7,1.4h-1.4l-1.7-1.3l-28.1,13l-3.4-8.7l-4.5-8.4l7.5-3.7
		l7.3-2.5l7.5-0.3l9.1,3L290.6,379.3z"/>
	<polygon fill="#C63405" points="211.9,416.6 209.9,420.5 209.1,425.2 212.6,426.6 220.4,426.9 226.8,424.8 223.1,420.7 221.1,416 
		219.2,416.9 	"/>
	<path d="M313.2,394.7l2.8,0.6c0-0.1,0.1-0.3,0.1-0.4c0-0.1,0.1-0.3,0.1-0.4c0-0.2,0.1-0.4,0.1-0.6c0-0.1,0-0.1,0-0.2
		c0-0.1,0-0.1,0-0.2c0-0.1,0-0.3,0-0.4c0-0.1,0-0.1,0-0.2c0-0.1,0-0.2,0-0.3c0-0.2,0-0.5,0-0.7L313.2,394.7z"/>
	<path fill="#1D1D1D" d="M314.5,399.2c0-0.1,0.1-0.1,0.1-0.2l0,0C314.6,399,314.6,399.1,314.5,399.2z"/>
	<path d="M311.8,398.4l0.7,3.8c0,0,0,0,0,0c0.2-0.3,0.4-0.5,0.6-0.8c0.1-0.1,0.2-0.2,0.2-0.3c0.1-0.2,0.3-0.4,0.4-0.5
		c0.1-0.1,0.2-0.2,0.2-0.4c0.1-0.2,0.2-0.4,0.3-0.5c0.1-0.1,0.1-0.3,0.2-0.4c0-0.1,0.1-0.1,0.1-0.2L311.8,398.4z"/>
	<linearGradient id="SVGID_9_" gradientUnits="userSpaceOnUse" x1="322.2622" y1="368.0597" x2="223.4763" y2="418.3936">
		<stop  offset="0" style="stop-color:#DC5B74"/>
		<stop  offset="4.498198e-02" style="stop-color:#CA526D"/>
		<stop  offset="0.1324" style="stop-color:#AE4461"/>
		<stop  offset="0.2202" style="stop-color:#9A3A59"/>
		<stop  offset="0.3075" style="stop-color:#8E3454"/>
		<stop  offset="0.3942" style="stop-color:#8A3252"/>
		<stop  offset="0.4227" style="stop-color:#893050"/>
		<stop  offset="0.5755" style="stop-color:#872B49"/>
		<stop  offset="1" style="stop-color:#862A47"/>
	</linearGradient>
	<path fill="url(#SVGID_9_)" d="M325.1,374.6l-1.6-3.1l-0.5-1.7l-9.4,1.4l-18.1,6.2l-3.3-1.2l2.5,2.6l3.4,9.1l0.5,9.2l-0.9,6.9
		l-33,16.5l-1.8-1.3l-1.2-4.3l-0.4-2.9l-9.8,4.9v-1.2l9.6-4.8l-0.6-4.6l-1.4-7.4l-3.1-9.3l-5.2-10.9l-28.8,14.4l1.2,1.7l-1.9,21.1
		l1.9,4.7l3.7,4.2l0.2,0.1c0.5-1.3,1.1-2.4,1.7-3.2c3.4-4.5,12.7-10.1,17.8-5.8c5.1,4.3,3.1,14.7,3.1,14.7s2-10.4-3.1-14.7
		c-5.1-4.3-14.4,1.3-17.8,5.8c-0.6,0.8-1.2,1.9-1.7,3.2l3.5,2.3c1-1.6,2.2-3,3.3-3.9c2.2-1.6,4.2-2.7,6.1-3.4
		c2.5-0.9,4.6-0.9,6.4,0.4c2.4,1.7,2.1,7.4,1.9,9.9h0h0c-0.1,0.7-0.1,1.2-0.1,1.2l1.6-0.8l49.6-24.8c0,0-0.8-13.7,2.8-20.1
		c2.6-4.8,6.8-8.5,11.6-8.3c4.8,0.1,9,4.8,6.7,14.5c1.6-1.6,4-4.2,4.8-6.7c1.1-3.5,2-8.1,1-11.4L325.1,374.6z M236,409.2l-2-0.3
		l-0.9-2.2l0.4-12.5l0.9-3.4l7.2-4.9l9.2-4.2l4.2,8.8l2.9,8.9L236,409.2z"/>
	<path fill="#1D1D1D" d="M316.5,392.6c0-0.2,0-0.5,0-0.7l0,0C316.5,392.2,316.5,392.4,316.5,392.6z"/>
	<linearGradient id="SVGID_10_" gradientUnits="userSpaceOnUse" x1="320.7558" y1="383.6746" x2="295.0155" y2="396.7899">
		<stop  offset="0" style="stop-color:#DC5B74"/>
		<stop  offset="4.498198e-02" style="stop-color:#CA526D"/>
		<stop  offset="0.1324" style="stop-color:#AE4461"/>
		<stop  offset="0.2202" style="stop-color:#9A3A59"/>
		<stop  offset="0.3075" style="stop-color:#8E3454"/>
		<stop  offset="0.3942" style="stop-color:#8A3252"/>
		<stop  offset="0.4227" style="stop-color:#893050"/>
		<stop  offset="0.5755" style="stop-color:#872B49"/>
		<stop  offset="1" style="stop-color:#862A47"/>
	</linearGradient>
	<path fill="url(#SVGID_10_)" d="M313.6,377.4c-4.8-0.1-9,3.6-11.6,8.3c-3.5,6.5-2.8,20.1-2.8,20.1l1.1-0.5
		c-0.7-9.9,4.5-21,10.9-23.1c0.7-0.2,1.4-0.4,2.2-0.4c4.7,0,6.1,1.2,5.3,11.5c0,0,0.7-0.6,1.6-1.5v0
		C322.6,382.1,318.4,377.5,313.6,377.4z"/>
	<path d="M313.4,381.9c-0.7,0-1.5,0.1-2.2,0.4l2.1,1.1l2.1,1.1c1.4,0.6,2.5,2.1,2.9,4.3c0.3,1.3,0.3,2.8,0,4.3l0.5,0.3
		C319.4,383.1,318.1,381.9,313.4,381.9z"/>
	<path fill="#1D1D1D" d="M312.3,386.8c0,0-0.1,0-0.1,0C312.2,386.8,312.2,386.8,312.3,386.8L312.3,386.8z"/>
	<path d="M312.3,386.8c0,0-0.1,0-0.1,0c0,0-0.1,0-0.1,0c0,0-0.1,0-0.1,0c0,0-0.1,0-0.1,0c0,0-0.1,0-0.1,0c-0.1,0-0.2,0.1-0.3,0.1
		c-0.1,0-0.1,0-0.2,0c-0.1,0-0.2,0.1-0.3,0.1c-0.2,0.1-0.3,0.1-0.5,0.2c-0.1,0-0.1,0.1-0.2,0.1c-0.1,0.1-0.2,0.1-0.3,0.2
		c-0.1,0-0.1,0.1-0.2,0.1l0.7,3.7L312.3,386.8z"/>
	<path fill="#1D1D1D" d="M303.1,400.1C303.1,400.1,303.1,400.1,303.1,400.1L303.1,400.1C303.1,400.1,303.1,400.1,303.1,400.1z"/>
	<path fill="#1D1D1D" d="M314.7,387.4c-0.1-0.1-0.1-0.1-0.2-0.2l0,0C314.6,387.4,314.6,387.4,314.7,387.4z"/>
	<path d="M312.7,391.9l3.2-2.8c0,0,0,0,0-0.1c0,0,0-0.1-0.1-0.1c0,0,0-0.1-0.1-0.1c0,0,0-0.1-0.1-0.1c-0.1-0.1-0.2-0.3-0.2-0.4
		c0,0-0.1-0.1-0.1-0.1c0,0-0.1-0.1-0.1-0.1c-0.1-0.1-0.2-0.2-0.3-0.3c0,0-0.1-0.1-0.1-0.1c0,0-0.1-0.1-0.1-0.1c0,0-0.1-0.1-0.1-0.1
		c-0.1-0.1-0.1-0.1-0.2-0.1L312.7,391.9z"/>
	<path fill="#1D1D1D" d="M194.6,379.5L194.6,379.5l27.3,13.7l28.8-14.4l12.7-6.4l3.6-1.4l6.3-0.4l-6.3-4.5l-7.9-4.5l-9.1-3.9
		l-7.5-2.4h0c-1.4,0-2.8,0.2-4,0.6c-2.5,0.8-16.8,7.1-21.6,9.8c-4.2,2.3-9.9,5.9-11.2,6.7L194.6,379.5L194.6,379.5z"/>
	<path fill="#1D1D1D" d="M316.5,391.9L316.5,391.9c0-0.1,0-0.1,0-0.2C316.5,391.8,316.5,391.9,316.5,391.9z"/>
	<path fill="#1D1D1D" d="M314.5,387.3c-0.1,0-0.1-0.1-0.2-0.1C314.4,387.2,314.4,387.3,314.5,387.3L314.5,387.3z"/>
	<path fill="#1D1D1D" d="M310,404.4c0.2-0.1,0.3-0.2,0.5-0.3C310.3,404.2,310.1,404.3,310,404.4L310,404.4z"/>
	<path fill="#1D1D1D" d="M314.6,399c0.1-0.2,0.2-0.4,0.3-0.7C314.9,398.5,314.8,398.7,314.6,399L314.6,399z"/>
	<path fill="#1D1D1D" d="M303.1,400.1c0,0.1,0,0.2,0,0.4C303.1,400.4,303.1,400.3,303.1,400.1L303.1,400.1z"/>
	<path fill="#1D1D1D" d="M255,390.3l-4.2-8.8l-9.2,4.2l-7.2,4.9l-0.9,3.4l-0.4,12.5l0.9,2.2l2,0.3l22-10L255,390.3z M235.8,407.8
		l-0.8-0.1l-0.5-1.2l0.4-12.1l0.7-2.8l6.7-4.6l7.9-3.6l3.6,7.5l2.5,7.6L235.8,407.8z"/>
	<linearGradient id="SVGID_11_" gradientUnits="userSpaceOnUse" x1="246.7731" y1="404.3553" x2="238.9591" y2="387.598">
		<stop  offset="0.2938" style="stop-color:#0D0011"/>
		<stop  offset="0.7258" style="stop-color:#0C1C40"/>
		<stop  offset="1" style="stop-color:#385074"/>
	</linearGradient>
	<polygon fill="url(#SVGID_11_)" points="253.8,390.8 250.2,383.3 242.3,387 235.6,391.5 234.9,394.3 234.5,406.4 235,407.6 
		235.8,407.8 256.3,398.5 	"/>
	<path fill="#913555" d="M292.3,381.9l-3-2.8l-0.9,0.5l-0.1,1.5l0.7,2.8l0.7,0.6l1.7,1.3h1.4v-2.3L292.3,381.9z M292.5,385.4h-1
		l-2.2-1.7l-0.7-2.6l0.1-1.3l0.6-0.3l2.7,2.6l0.5,1.4V385.4z"/>
	<polygon fill="#CDC6BE" points="289.3,379.5 288.8,379.8 288.6,381.1 289.3,383.7 291.6,385.4 292.5,385.4 292.5,383.4 292.1,382 	
		"/>
	<linearGradient id="SVGID_12_" gradientUnits="userSpaceOnUse" x1="295.4233" y1="375.9186" x2="243.7183" y2="353.1611">
		<stop  offset="0.3221" style="stop-color:#0D0011"/>
		<stop  offset="0.4985" style="stop-color:#0C1C40"/>
		<stop  offset="1" style="stop-color:#385074"/>
	</linearGradient>
	<path fill="url(#SVGID_12_)" d="M259.1,361.4l7.9,4.5l6.3,4.5l11.6,3l7.2,2.7l3.3,1.2l-5.4-5.4l-4.9-4l-5.9-3.4l-7.2-3.1l-6.9-2h0
		l-0.9-0.3l-9.6-1.8c0,0-4.2-1.6-7.3-2c-1.6-0.2-3.3-0.4-4.8-0.3l7.5,2.4L259.1,361.4z"/>
	<linearGradient id="SVGID_13_" gradientUnits="userSpaceOnUse" x1="282.5227" y1="374.4826" x2="296.1534" y2="350.8734">
		<stop  offset="0" style="stop-color:#842A46"/>
		<stop  offset="0.18" style="stop-color:#882C48"/>
		<stop  offset="0.3518" style="stop-color:#93324D"/>
		<stop  offset="0.5202" style="stop-color:#A73B56"/>
		<stop  offset="0.6856" style="stop-color:#C14963"/>
		<stop  offset="0.7836" style="stop-color:#D5536C"/>
		<stop  offset="1" style="stop-color:#F17B96"/>
	</linearGradient>
	<path fill="url(#SVGID_13_)" d="M322.8,368.9L322.8,368.9c-1.2-1.4-2.7-2.9-4.5-4.4c-4.2-3.7-9.8-7.4-16-9.2
		c-3.9-1.1-6.9-2-9.3-2.7c-5.1-1.5-7.4-2-8.1-2.1c-1.1,0-9.2,0-15.7,2.1c-6.4,2.1-14.5,4.8-14.5,4.8l9.1,1.7l0,0l8.4,2.3l7.2,3.1
		l5.9,3.4l4.9,4l5.4,5.4l18.1-6.2l9.4-1.4L322.8,368.9z"/>
	<linearGradient id="SVGID_14_" gradientUnits="userSpaceOnUse" x1="225.6031" y1="389.5639" x2="246.8848" y2="352.7031">
		<stop  offset="0" style="stop-color:#842A46"/>
		<stop  offset="0.2024" style="stop-color:#882C48"/>
		<stop  offset="0.3956" style="stop-color:#93324D"/>
		<stop  offset="0.585" style="stop-color:#A73B56"/>
		<stop  offset="0.7709" style="stop-color:#C14963"/>
		<stop  offset="0.8811" style="stop-color:#D5536C"/>
		<stop  offset="1" style="stop-color:#F17B55"/>
	</linearGradient>
	<path fill="url(#SVGID_14_)" d="M194.6,379.5L194.6,379.5l27.3,13.7l28.8-14.4l12.7-6.4l3.6-1.4l6.3-0.4l-6.3-4.5l-7.9-4.5
		l-9.1-3.9l-7.5-2.4h0c-1.4,0-2.8,0.2-4,0.6c-2.5,0.8-16.8,7.1-21.6,9.8c-4.2,2.3-9.9,5.9-11.2,6.7L194.6,379.5L194.6,379.5z"/>
	<linearGradient id="SVGID_15_" gradientUnits="userSpaceOnUse" x1="266.2715" y1="358.1564" x2="265.0296" y2="365.3212">
		<stop  offset="0" style="stop-color:#ECAC2E"/>
		<stop  offset="1" style="stop-color:#ECAC2E;stop-opacity:0"/>
	</linearGradient>
	<path opacity="0.4" fill="url(#SVGID_15_)" d="M285.3,368l-5.9-3.4l-7.2-3.1l-6.9-2h0l-0.9-0.3l-9.6-1.8c0,0-4.2-1.6-7.3-2
		c-1.6-0.2-3.3-0.4-4.8-0.3l7.5,2.4l9.1,3.9l7,4l22.3,5.1L285.3,368z"/>
	<polygon fill="#ECBC99" points="191,414.3 191,414.8 196.5,417.6 196.5,417 	"/>
	<polygon fill="#511C32" points="191,417.1 196.5,419.8 196.5,419.3 191,416.5 	"/>
	<polygon fill="#C7C9C8" points="191,416.5 196.5,419.3 196.5,417.6 191,414.8 	"/>
	<path opacity="0.4" fill="#B76B15" d="M178.2,397.9l0-1.2c-1.2,2.4-2,8.9-2,8.9l0.6,2.2l2.1-8.7L178.2,397.9z"/>
	
		<linearGradient id="SVGID_16_" gradientUnits="userSpaceOnUse" x1="352.0716" y1="348.7185" x2="360.4782" y2="348.7185" gradientTransform="matrix(1.2633 -0.1504 0.1182 0.993 -273.0486 128.8389)">
		<stop  offset="0" style="stop-color:#B76B15;stop-opacity:0"/>
		<stop  offset="0.6109" style="stop-color:#B76B15"/>
		<stop  offset="1" style="stop-color:#B76B15;stop-opacity:0"/>
	</linearGradient>
	<polygon opacity="0.5" fill="url(#SVGID_16_)" points="220.4,426.9 224.1,425.7 223.6,421.3 223.1,420.7 221.1,416 219.2,416.9 
		212.3,416.6 213.5,426.7 	"/>
	<polygon fill="#B4A79F" points="289.3,379.5 288.8,379.8 288.6,381.1 289.1,383 292,382 	"/>
	<polygon fill="#511C32" points="296.9,393.8 261,411.7 261.2,412.8 296.9,394.9 	"/>
	<polygon fill="#511C32" points="251.4,416.5 251.4,417.7 261.2,412.8 261,411.7 	"/>
	<polygon opacity="0.3" fill="#444444" points="296.9,392.1 261,410.1 261.2,411.2 296.9,393.3 	"/>
	<polygon fill="#444444" points="296.9,392.9 261,410.9 261.2,412 296.9,394.1 	"/>
	<polygon opacity="0.3" fill="#444444" points="251.4,414.9 251.4,416.1 261.2,411.2 261,410.1 	"/>
	<polygon fill="#444444" points="251.4,415.7 251.4,416.9 261.2,412 261,410.9 	"/>
	<path fill="#1D1D1D" d="M307.9,405.3c-0.2,0-0.3,0.1-0.5,0.1C307.6,405.3,307.7,405.3,307.9,405.3z"/>
	<path fill="#1D1D1D" d="M309.4,404.7c-0.3,0.1-0.5,0.3-0.8,0.4C308.9,404.9,309.1,404.8,309.4,404.7z"/>
	<path fill="#1D1D1D" d="M308.6,405c-0.2,0.1-0.4,0.1-0.6,0.2C308.2,405.2,308.4,405.1,308.6,405z"/>
	<path fill="#1D1D1D" d="M309.7,404.5c-0.1,0.1-0.2,0.1-0.3,0.2C309.5,404.6,309.6,404.6,309.7,404.5z"/>
	<path fill="#1D1D1D" d="M308,405.2c0,0-0.1,0-0.1,0C307.9,405.2,308,405.2,308,405.2z"/>
	<path fill="#1D1D1D" d="M309.7,404.5c0.1,0,0.2-0.1,0.3-0.1l0,0C309.9,404.4,309.8,404.5,309.7,404.5z"/>
	<path fill="#1D1D1D" d="M307.3,405.3C307.4,405.3,307.4,405.3,307.3,405.3C307.4,405.3,307.4,405.3,307.3,405.3L307.3,405.3z"/>
	<path d="M309.2,400.6l-1.9,4.8c0,0,0,0,0.1,0c0.2,0,0.3,0,0.5-0.1c0,0,0.1,0,0.1,0c0.2,0,0.4-0.1,0.6-0.2c0.3-0.1,0.5-0.2,0.8-0.4
		c0.1-0.1,0.2-0.1,0.3-0.2c0.1,0,0.2-0.1,0.3-0.2L309.2,400.6z"/>
	<path fill="#1D1D1D" d="M305.1,404.9C305.1,404.9,305.1,404.9,305.1,404.9L305.1,404.9C305.1,404.9,305.1,404.9,305.1,404.9z"/>
	<path fill="#1D1D1D" d="M307.3,405.4c-0.2,0-0.4,0-0.6,0C306.9,405.4,307.1,405.4,307.3,405.4z"/>
	<linearGradient id="SVGID_17_" gradientUnits="userSpaceOnUse" x1="300.8215" y1="406.269" x2="310.5517" y2="384.7123">
		<stop  offset="0" style="stop-color:#000000"/>
		<stop  offset="3.261226e-02" style="stop-color:#050202"/>
		<stop  offset="0.1835" style="stop-color:#180B09"/>
		<stop  offset="0.3595" style="stop-color:#26110E"/>
		<stop  offset="0.5816" style="stop-color:#2E1411"/>
		<stop  offset="1" style="stop-color:#301512"/>
	</linearGradient>
	<path fill="url(#SVGID_17_)" d="M311.2,382.2c-6.4,2.1-11.6,13.1-10.9,23.1l-1.1,0.5l5,1.8c-1.4-0.6-2.5-2.1-2.9-4.3
		c-1-5.2,2-12.7,6.6-16.7c2.7-2.3,5.4-3,7.4-2.1l-2.1-1.1L311.2,382.2z"/>
	<path fill="#0C000E" d="M318.2,388.8c-0.4-2.2-1.5-3.6-2.9-4.3l0,0c-2-0.9-4.6-0.3-7.3,2.1c-4.7,4-7.6,11.5-6.6,16.7
		c0.4,2.2,1.5,3.6,2.9,4.3c2,0.9,4.6,0.3,7.4-2.1c3.5-3,6-7.9,6.7-12.4C318.5,391.6,318.5,390.1,318.2,388.8z M316.5,392.6
		c0,0.1,0,0.2,0,0.3c0,0.1,0,0.1,0,0.2c0,0.1,0,0.3,0,0.4c0,0.1,0,0.1,0,0.2c0,0.1,0,0.1,0,0.2c0,0.2-0.1,0.4-0.1,0.6
		c0,0.1-0.1,0.3-0.1,0.4c0,0.1-0.1,0.3-0.1,0.4c-0.1,0.2-0.1,0.5-0.2,0.7c0,0.1,0,0.2-0.1,0.2c-0.2,0.5-0.4,1.1-0.6,1.6
		c-0.1,0.1-0.1,0.3-0.2,0.4c-0.1,0.2-0.2,0.4-0.3,0.7c0,0.1-0.1,0.1-0.1,0.2c-0.1,0.1-0.1,0.3-0.2,0.4c-0.1,0.2-0.2,0.4-0.3,0.5
		c-0.1,0.1-0.2,0.3-0.2,0.4c-0.1,0.2-0.2,0.4-0.4,0.5c-0.1,0.1-0.2,0.2-0.2,0.3c-0.2,0.3-0.4,0.5-0.6,0.8c0,0,0,0,0,0
		c-0.1,0.1-0.1,0.1-0.2,0.2c-0.2,0.2-0.3,0.4-0.5,0.5c-0.1,0.1-0.1,0.1-0.2,0.2c-0.1,0.1-0.1,0.1-0.2,0.2c-0.1,0.1-0.1,0.1-0.2,0.2
		c-0.1,0.1-0.1,0.1-0.2,0.2c-0.1,0-0.1,0.1-0.2,0.1c-0.1,0-0.1,0.1-0.2,0.1c-0.1,0-0.1,0.1-0.2,0.1c-0.1,0-0.1,0.1-0.2,0.1
		c-0.1,0-0.1,0.1-0.2,0.1c-0.2,0.1-0.3,0.2-0.5,0.3c-0.1,0.1-0.2,0.1-0.3,0.1c-0.1,0.1-0.2,0.1-0.3,0.2c-0.3,0.1-0.5,0.3-0.8,0.4
		c-0.2,0.1-0.4,0.1-0.6,0.2c0,0-0.1,0-0.1,0c-0.2,0-0.3,0.1-0.5,0.1c0,0-0.1,0-0.1,0c0,0,0,0-0.1,0c-0.2,0-0.4,0-0.6,0
		c0,0-0.1,0-0.1,0c0,0-0.1,0-0.1,0c-0.1,0-0.2,0-0.3-0.1c-0.1,0-0.2,0-0.3-0.1c0,0-0.1,0-0.1,0c-0.1,0-0.1-0.1-0.2-0.1
		c0,0-0.1,0-0.1,0c-0.1,0-0.2-0.1-0.2-0.1c0,0,0,0-0.1,0c0,0,0,0-0.1,0c0,0,0,0,0,0c0,0-0.1,0-0.1-0.1c0,0-0.1,0-0.1-0.1
		c0,0-0.1-0.1-0.1-0.1c-0.1-0.1-0.1-0.1-0.2-0.2c0,0-0.1-0.1-0.1-0.1c0,0-0.1-0.1-0.1-0.1c0,0,0,0,0,0c0,0-0.1-0.1-0.1-0.1
		c0,0-0.1-0.1-0.1-0.1c0,0-0.1-0.1-0.1-0.1c0,0-0.1-0.1-0.1-0.1c0,0-0.1-0.1-0.1-0.1c0,0-0.1-0.1-0.1-0.1c-0.1-0.1-0.1-0.2-0.1-0.3
		c0-0.1,0-0.1-0.1-0.2c0,0,0-0.1-0.1-0.1c0-0.1,0-0.1-0.1-0.2c0-0.1-0.1-0.2-0.1-0.3c0,0,0-0.1,0-0.1c0,0,0,0,0-0.1c0,0,0-0.1,0-0.1
		c0-0.1-0.1-0.2-0.1-0.4c0-0.1,0-0.1,0-0.2c0-0.1,0-0.3-0.1-0.4c0-0.1,0-0.1,0-0.2c0-0.1,0-0.3,0-0.4c0-0.1,0-0.2,0-0.4
		c0,0,0-0.1,0-0.1c0-0.1,0-0.2,0-0.3c0-0.1,0-0.1,0-0.2c0,0,0-0.1,0-0.1c0-0.1,0-0.1,0-0.2c0-0.1,0-0.2,0-0.2c0,0,0-0.1,0-0.1
		c0-0.3,0.1-0.7,0.1-1c0-0.1,0-0.1,0-0.2c0.1-0.4,0.2-0.8,0.3-1.1c0.1-0.3,0.1-0.5,0.2-0.8c0.1-0.3,0.2-0.6,0.3-0.8
		c0.1-0.2,0.2-0.4,0.3-0.7c0,0,0,0,0,0c0.2-0.4,0.4-0.8,0.6-1.2c0,0,0-0.1,0-0.1c0.2-0.3,0.3-0.6,0.5-0.8c0.1-0.1,0.2-0.3,0.3-0.4
		c0.1-0.1,0.2-0.3,0.3-0.4c0-0.1,0.1-0.1,0.1-0.2c0-0.1,0.1-0.1,0.1-0.2c0-0.1,0.1-0.1,0.1-0.2c0,0,0,0,0,0c0.1-0.1,0.2-0.2,0.3-0.3
		c0-0.1,0.1-0.1,0.1-0.2c0-0.1,0.1-0.1,0.2-0.2c0.1-0.1,0.1-0.1,0.2-0.2c0-0.1,0.1-0.1,0.1-0.2c0.3-0.4,0.7-0.7,1-1
		c0.1-0.1,0.1-0.1,0.2-0.2c0.1,0,0.1-0.1,0.2-0.1c0.1-0.1,0.2-0.2,0.4-0.3c0.1,0,0.1-0.1,0.2-0.1c0.1,0,0.1-0.1,0.2-0.1
		c0.1-0.1,0.2-0.1,0.3-0.2c0,0,0,0,0,0c0.1,0,0.1-0.1,0.2-0.1c0.1-0.1,0.2-0.1,0.3-0.2c0.1,0,0.1-0.1,0.2-0.1
		c0.2-0.1,0.3-0.1,0.5-0.2c0.1,0,0.2-0.1,0.3-0.1c0.1,0,0.1,0,0.2,0c0.1,0,0.2-0.1,0.3-0.1c0,0,0.1,0,0.1,0c0,0,0.1,0,0.1,0
		c0,0,0.1,0,0.1,0c0,0,0.1,0,0.1,0c0,0,0.1,0,0.1,0c0,0,0.1,0,0.1,0c0,0,0.1,0,0.1,0c0.1,0,0.2,0,0.3,0c0,0,0.1,0,0.1,0
		c0,0,0.1,0,0.1,0c0,0,0,0,0.1,0c0,0,0.1,0,0.1,0c0,0,0.1,0,0.1,0c0,0,0.1,0,0.1,0c0,0,0.1,0,0.1,0c0,0,0.1,0,0.1,0c0,0,0.1,0,0.1,0
		c0.1,0,0.1,0.1,0.2,0.1c0,0,0.1,0,0.1,0.1c0,0,0.1,0,0.1,0.1c0.1,0,0.1,0.1,0.2,0.1c0.1,0,0.1,0.1,0.2,0.2c0,0,0.1,0.1,0.1,0.1
		c0,0,0.1,0.1,0.1,0.1c0,0,0.1,0.1,0.1,0.1c0.1,0.1,0.2,0.2,0.3,0.3c0,0,0.1,0.1,0.1,0.1c0,0,0.1,0.1,0.1,0.1
		c0.1,0.1,0.2,0.2,0.2,0.4c0,0,0,0.1,0.1,0.1c0,0,0,0.1,0.1,0.1c0,0,0,0.1,0.1,0.1c0,0,0,0,0,0.1c0.1,0.1,0.1,0.3,0.2,0.4
		c0,0,0,0.1,0,0.1c0,0,0,0.1,0,0.1c0,0.1,0,0.1,0,0.2c0,0,0,0,0,0c0,0.1,0,0.1,0,0.2c0,0.1,0.1,0.2,0.1,0.4c0,0.1,0,0.1,0,0.2
		c0,0.1,0,0.1,0,0.2c0,0,0,0.1,0,0.1c0,0.1,0,0.1,0,0.2c0,0,0,0,0,0c0,0.1,0,0.1,0,0.2c0,0,0,0,0,0c0,0.1,0,0.3,0,0.4
		c0,0.1,0,0.1,0,0.2C316.5,392.2,316.5,392.4,316.5,392.6z"/>
	<path fill="#1D1D1D" d="M305.5,392.2c-0.2,0.3-0.3,0.5-0.5,0.8l0,0C305.2,392.7,305.3,392.4,305.5,392.2z"/>
	<path d="M306.5,397.2l-2.9-0.6c-0.1,0.4-0.2,0.8-0.3,1.1c0,0.1,0,0.1,0,0.2c-0.1,0.4-0.1,0.7-0.1,1c0,0,0,0.1,0,0.1
		c0,0.1,0,0.2,0,0.2c0,0.1,0,0.1,0,0.2c0,0,0,0.1,0,0.1c0,0.1,0,0.1,0,0.2c0,0.1,0,0.2,0,0.3c0,0,0,0.1,0,0.1L306.5,397.2z"/>
	<path d="M307,400.1l-3.4,2.9c0,0.1,0,0.1,0.1,0.2c0,0.1,0.1,0.2,0.1,0.3c0,0,0.1,0.1,0.1,0.1c0,0,0.1,0.1,0.1,0.1
		c0,0,0.1,0.1,0.1,0.1c0,0,0.1,0.1,0.1,0.1c0,0,0.1,0.1,0.1,0.1c0,0,0.1,0.1,0.1,0.1c0,0,0,0,0,0c0,0,0.1,0.1,0.1,0.1
		c0,0,0.1,0.1,0.1,0.1c0.1,0.1,0.1,0.1,0.2,0.2c0,0,0.1,0.1,0.1,0.1c0,0,0.1,0,0.1,0.1c0,0,0.1,0,0.1,0.1c0,0,0,0,0,0c0,0,0,0,0.1,0
		L307,400.1z"/>
	<path d="M307.9,393.6l-0.7-3.7c-0.1,0.1-0.1,0.1-0.2,0.2c-0.1,0.1-0.1,0.1-0.2,0.2c-0.1,0.1-0.1,0.1-0.1,0.2
		c-0.1,0.1-0.2,0.2-0.3,0.3c0,0,0,0,0,0c0,0.1-0.1,0.1-0.1,0.2c0,0.1-0.1,0.1-0.1,0.2c0,0.1-0.1,0.1-0.1,0.2
		c-0.1,0.1-0.2,0.3-0.3,0.4c-0.1,0.1-0.2,0.3-0.3,0.4c-0.2,0.3-0.3,0.6-0.5,0.8L307.9,393.6z"/>
	<path fill="#1D1D1D" d="M304.4,394.3c0.2-0.4,0.4-0.8,0.6-1.2C304.8,393.5,304.6,393.9,304.4,394.3z"/>
	<path fill="#B4A79F" d="M316.5,391.9c0-0.1,0-0.1,0-0.2c0-0.1,0-0.3,0-0.4c0,0,0,0,0,0c0-0.1,0-0.1,0-0.2c0,0,0,0,0,0
		c0-0.1,0-0.1,0-0.2c0-0.1,0-0.1,0-0.1c0-0.1,0-0.1,0-0.2c0-0.1,0-0.1,0-0.2c0-0.1-0.1-0.3-0.1-0.4c0-0.1,0-0.1,0-0.2c0,0,0,0,0,0
		c0-0.1,0-0.1,0-0.2c0,0,0-0.1,0-0.1c0,0,0-0.1,0-0.1c0-0.1-0.1-0.3-0.2-0.4l-3.2,2.8l1.8-4.6c-0.1,0-0.1-0.1-0.2-0.1
		c0,0-0.1,0-0.1-0.1c0,0-0.1,0-0.1-0.1c-0.1,0-0.1-0.1-0.2-0.1c0,0-0.1,0-0.1,0c0,0-0.1,0-0.1,0c0,0-0.1,0-0.1,0c0,0-0.1,0-0.1,0
		c0,0-0.1,0-0.1,0c0,0-0.1,0-0.1,0c0,0,0,0-0.1,0c0,0-0.1,0-0.1,0c0,0-0.1,0-0.1,0c-0.1,0-0.2,0-0.3,0c0,0-0.1,0-0.1,0
		c0,0-0.1,0-0.1,0v0l-1.8,4.6l-0.7-3.7c0,0,0,0,0,0c-0.1,0.1-0.2,0.1-0.3,0.2c-0.1,0-0.1,0.1-0.2,0.1c-0.1,0-0.1,0.1-0.2,0.1
		c-0.1,0.1-0.2,0.2-0.4,0.3c-0.1,0-0.1,0.1-0.2,0.1c-0.1,0.1-0.1,0.1-0.2,0.2c-0.4,0.3-0.7,0.7-1,1c0,0.1-0.1,0.1-0.1,0.2l0.7,3.7
		L305,393c0,0,0,0.1-0.1,0.1c-0.2,0.4-0.4,0.8-0.6,1.2c0,0,0,0,0,0c-0.1,0.2-0.2,0.4-0.3,0.7c-0.1,0.3-0.2,0.6-0.3,0.8
		c-0.1,0.3-0.2,0.5-0.2,0.8l2.9,0.6l-3.4,2.9c0,0.1,0,0.2,0,0.4c0,0.1,0,0.3,0,0.4c0,0.1,0,0.1,0,0.2c0,0.1,0,0.3,0.1,0.4
		c0,0.1,0,0.1,0,0.2c0,0.1,0.1,0.3,0.1,0.4c0,0,0,0.1,0,0.1c0,0,0,0,0,0.1c0,0,0,0.1,0,0.1c0,0.1,0.1,0.2,0.1,0.3
		c0,0.1,0,0.1,0.1,0.2c0,0.1,0,0.1,0.1,0.1l3.4-2.9l-1.9,4.8c0,0,0,0,0.1,0c0.1,0,0.2,0.1,0.2,0.1c0,0,0.1,0,0.1,0
		c0.1,0,0.1,0.1,0.2,0.1c0,0,0.1,0,0.1,0c0.1,0,0.2,0.1,0.3,0.1c0.1,0,0.2,0,0.3,0.1c0,0,0.1,0,0.1,0c0,0,0.1,0,0.1,0
		c0.2,0,0.4,0,0.6,0c0,0,0,0,0.1,0l1.9-4.8l0.7,3.8c0.2-0.1,0.3-0.2,0.5-0.3c0.1,0,0.1-0.1,0.2-0.1c0.1,0,0.1-0.1,0.2-0.1
		c0.1,0,0.1-0.1,0.2-0.1c0.1,0,0.1-0.1,0.2-0.1c0.1,0,0.1-0.1,0.2-0.1c0.1-0.1,0.1-0.1,0.2-0.2c0.1-0.1,0.1-0.1,0.2-0.2
		c0.1-0.1,0.1-0.1,0.2-0.2c0.1-0.1,0.1-0.1,0.2-0.2c0.2-0.2,0.3-0.3,0.5-0.5c0.1-0.1,0.1-0.1,0.2-0.2l-0.7-3.8l2.8,0.6
		c0.1-0.2,0.2-0.4,0.3-0.7c0.1-0.1,0.1-0.3,0.2-0.4c0.2-0.5,0.4-1.1,0.6-1.6c0-0.1,0-0.2,0.1-0.2c0.1-0.2,0.1-0.5,0.2-0.7l-2.8-0.6
		L316.5,391.9z M310.2,398.1c-1,0.9-2,0.7-2.2-0.5c-0.2-1.1,0.4-2.7,1.4-3.6c1-0.9,2-0.7,2.2,0.5
		C311.8,395.6,311.2,397.3,310.2,398.1z"/>
	<path fill="#1D1D1D" d="M305,393C305,393,305,393,305,393C305,393,305,393,305,393L305,393z"/>
	<path fill="#1D1D1D" d="M307.3,405.4C307.3,405.3,307.3,405.4,307.3,405.4L307.3,405.4C307.3,405.3,307.3,405.3,307.3,405.4z"/>
	<path fill="#1D1D1D" d="M305.1,404.9C305.1,404.9,305.2,404.9,305.1,404.9C305.2,404.9,305.1,404.9,305.1,404.9L305.1,404.9z"/>
	<path fill="#000002" d="M309.4,394c-1,0.9-1.6,2.5-1.4,3.6c0.2,1.1,1.2,1.3,2.2,0.5c1-0.9,1.6-2.5,1.4-3.6
		C311.4,393.4,310.4,393.2,309.4,394z"/>
	<linearGradient id="SVGID_18_" gradientUnits="userSpaceOnUse" x1="302.2502" y1="407.1318" x2="311.411" y2="383.3709">
		<stop  offset="0" style="stop-color:#603E23;stop-opacity:0"/>
		<stop  offset="0.6458" style="stop-color:#603E23"/>
		<stop  offset="1" style="stop-color:#603E23;stop-opacity:0"/>
	</linearGradient>
	<path fill="url(#SVGID_18_)" d="M305,407.6c-1.4-0.6-2.5-2.1-2.9-4.3c-1-5.2,2-12.7,6.6-16.7c1.8-1.5,3.5-2.3,5.1-2.4
		c-1.7-0.1-3.8,0.6-5.9,2.4c-4.7,4-7.6,11.5-6.6,16.7c0.4,2.2,1.5,3.6,2.9,4.3c0.7,0.3,1.4,0.4,2.3,0.4
		C306,407.9,305.5,407.8,305,407.6z"/>
	<path fill="#9B908A" d="M314.3,387.2c0,0-0.1,0-0.1-0.1c0,0-0.1,0-0.1-0.1c-0.1,0-0.1-0.1-0.2-0.1c0,0-0.1,0-0.1,0c0,0-0.1,0-0.1,0
		c0,0-0.1,0-0.1,0c0,0-0.1,0-0.1,0c0,0-0.1,0-0.1,0c0,0-0.1,0-0.1,0c0,0,0,0-0.1,0c0,0-0.1,0-0.1,0c0,0-0.1,0-0.1,0
		c-0.1,0-0.2,0-0.3,0c0,0-0.1,0-0.1,0c0,0-0.1,0-0.1,0v0l-1.8,4.6l-0.7-3.7c0,0,0,0,0,0c-0.1,0.1-0.2,0.1-0.3,0.2
		c-0.1,0-0.1,0.1-0.2,0.1c-0.1,0-0.1,0.1-0.2,0.1c-0.1,0.1-0.2,0.2-0.4,0.3c-0.1,0-0.1,0.1-0.2,0.1c-0.1,0.1-0.1,0.1-0.2,0.2
		c-0.4,0.3-0.7,0.7-1,1c0,0.1-0.1,0.1-0.1,0.2l0.7,3.7L305,393c0,0,0,0.1-0.1,0.1c-0.2,0.4-0.4,0.8-0.6,1.2c0,0,0,0,0,0
		c-0.1,0.2-0.2,0.4-0.3,0.7c-0.1,0.3-0.2,0.6-0.3,0.8c-0.1,0.3-0.2,0.5-0.2,0.8l2.9,0.6l-3.4,2.9c0,0.1,0,0.2,0,0.4
		c0,0.1,0,0.3,0,0.4c0,0.1,0,0.1,0,0.2c0,0.1,0,0.3,0.1,0.4c0,0.1,0,0.1,0,0.2c0,0.1,0.1,0.3,0.1,0.4c0,0,0,0.1,0,0.1c0,0,0,0,0,0.1
		c0,0,0,0.1,0,0.1c0,0.1,0.1,0.2,0.1,0.3c0,0.1,0,0.1,0.1,0.2c0,0.1,0,0.1,0.1,0.1l3.4-2.9l-1.8,4.5l3.5-6c-0.4-0.1-0.6-0.4-0.7-1
		c-0.2-1.1,0.4-2.7,1.4-3.6c0.8-0.7,1.6-0.7,2-0.1l1.5-2.6l1.6-4.1C314.4,387.3,314.4,387.2,314.3,387.2z"/>
	<polygon fill="#FF668B" points="273.3,356 263.3,359.1 265.2,359.5 265.2,359.5 273.7,356.7 282.5,354.3 293,352.6 281.9,353.9 	
		"/>
	<polygon fill="#511C32" points="262,404.1 267.1,401.6 267.1,400.4 262,402.9 	"/>
	<polygon fill="#ECBC99" points="262,402.5 267.1,399.9 267.1,398.7 262,401.3 	"/>
	<polygon fill="#C7C9C8" points="262,403.3 267.1,400.7 267.1,399.6 262,402.1 	"/>
	<linearGradient id="SVGID_19_" gradientUnits="userSpaceOnUse" x1="221.8182" y1="362.981" x2="228.3416" y2="374.2799">
		<stop  offset="0" style="stop-color:#541C31"/>
		<stop  offset="1" style="stop-color:#541C31;stop-opacity:0.2"/>
	</linearGradient>
	<path fill="url(#SVGID_19_)" d="M209.2,386.8c13.3-10.8,29.6-19.8,48-26.2l-7.2-3.1l-7.5-2.4h0c-1.4,0-2.8,0.2-4,0.6
		c-2.5,0.8-16.8,7.1-21.6,9.8c-4.2,2.3-9.9,5.9-11.2,6.7l-11.1,7.3l0,0l0,0L209.2,386.8z"/>
	
		<linearGradient id="SVGID_20_" gradientUnits="userSpaceOnUse" x1="315.1071" y1="166.1875" x2="315.1071" y2="152.9164" gradientTransform="matrix(0.9542 -0.2992 0.2992 0.9542 -41.1098 315.0605)">
		<stop  offset="0" style="stop-color:#FF99B1;stop-opacity:0"/>
		<stop  offset="0.4425" style="stop-color:#FF99B1"/>
		<stop  offset="1" style="stop-color:#FF99B1;stop-opacity:0"/>
	</linearGradient>
	<path opacity="0.5" fill="url(#SVGID_20_)" d="M323.5,371.4l-0.5-1.7l-0.2-0.8v0c-1.2-1.4-2.7-2.9-4.5-4.4c-0.6-0.5-1.2-1-1.8-1.5
		l-27,8.5l0.6,0.5l5.4,5.4l-3.3-1.2l2.5,2.6l1.8,4.8l9.6-3c2.2-1.9,4.8-3.2,7.5-3.1c0.5,0,1.1,0.1,1.6,0.2l9.9-3.1L323.5,371.4z"/>
	<path fill="none" stroke="#742540" stroke-width="0.5" stroke-miterlimit="10" d="M250.8,378.7l5.2,10.9l3.1,9.3l1.4,7.4l0.6,4.6
		 M261,410.9l0.6,4l1.2,4.3l1.8,1.3l33-16.5l0.9-6.9l-0.5-9.2l-3.4-9.1l-2.5-2.6"/>
</g>
</svg>
