<?xml version="1.0" encoding="utf-8"?>
<!-- Generator: Adobe Illustrator 18.0.0, SVG Export Plug-In . SVG Version: 6.00 Build 0)  -->
<!DOCTYPE svg PUBLIC "-//W3C//DTD SVG 1.1//EN" "http://www.w3.org/Graphics/SVG/1.1/DTD/svg11.dtd">
<svg version="1.1" id="Layer_1" xmlns="http://www.w3.org/2000/svg" xmlns:xlink="http://www.w3.org/1999/xlink" x="0px" y="0px"
	 viewBox="0 0 50 50" enable-background="new 0 0 50 50" xml:space="preserve">
<g>
	<path fill="#FFFFFF" d="M25,15.2L25,15.2c-0.8,0-1.5-0.7-1.5-1.5l0-5.8c0-0.8,0.7-1.5,1.5-1.5l0,0c0.8,0,1.5,0.7,1.5,1.5l0,5.8
		C26.5,14.6,25.8,15.2,25,15.2z"/>
	<path fill="#FFFFFF" d="M25,43.6L25,43.6c-0.8,0-1.5-0.7-1.5-1.5l0-5.8c0-0.8,0.7-1.5,1.5-1.5l0,0c0.8,0,1.5,0.7,1.5,1.5l0,5.8
		C26.5,42.9,25.8,43.6,25,43.6z"/>
	<path fill="#FFFFFF" d="M17,18.5c-0.4,0-0.8-0.1-1.1-0.4L11.9,14c-0.6-0.6-0.6-1.5,0-2.1s1.5-0.6,2.1,0l4.1,4.1
		c0.6,0.6,0.6,1.5,0,2.1C17.8,18.4,17.4,18.5,17,18.5z"/>
	<path fill="#FFFFFF" d="M37.1,38.6c-0.4,0-0.8-0.1-1.1-0.4L31.9,34c-0.6-0.6-0.6-1.5,0-2.1s1.5-0.6,2.1,0l4.1,4.1
		c0.6,0.6,0.6,1.5,0,2.1C37.9,38.4,37.5,38.6,37.1,38.6z"/>
	<path fill="#FFFFFF" d="M13.7,26.5H7.9c-0.8,0-1.5-0.7-1.5-1.5s0.7-1.5,1.5-1.5h5.8c0.8,0,1.5,0.7,1.5,1.5S14.6,26.5,13.7,26.5z"/>
	<path fill="#FFFFFF" d="M42.1,26.5h-5.8c-0.8,0-1.5-0.7-1.5-1.5s0.7-1.5,1.5-1.5h5.8c0.8,0,1.5,0.7,1.5,1.5S42.9,26.5,42.1,26.5z"
		/>
	<path fill="#FFFFFF" d="M12.9,38.6c-0.4,0-0.8-0.1-1.1-0.4c-0.6-0.6-0.6-1.5,0-2.1l4.1-4.1c0.6-0.6,1.5-0.6,2.1,0s0.6,1.5,0,2.1
		L14,38.1C13.7,38.4,13.3,38.6,12.9,38.6z"/>
	<path fill="#FFFFFF" d="M33,18.5c-0.4,0-0.8-0.1-1.1-0.4c-0.6-0.6-0.6-1.5,0-2.1l4.1-4.1c0.6-0.6,1.5-0.6,2.1,0
		c0.6,0.6,0.6,1.5,0,2.1L34,18.1C33.7,18.4,33.4,18.5,33,18.5z"/>
	<path fill="#FFFFFF" d="M25.1,32.5c-4.3,0-7.7-3.5-7.7-7.7s3.5-7.7,7.7-7.7c4.3,0,7.7,3.5,7.7,7.7S29.3,32.5,25.1,32.5z M25.1,20.1
		c-2.6,0-4.7,2.1-4.7,4.7s2.1,4.7,4.7,4.7s4.7-2.1,4.7-4.7S27.7,20.1,25.1,20.1z"/>
</g>
</svg>
