<?xml version="1.0" encoding="utf-8"?>
<!-- Generator: Adobe Illustrator 18.0.0, SVG Export Plug-In . SVG Version: 6.00 Build 0)  -->
<!DOCTYPE svg PUBLIC "-//W3C//DTD SVG 1.1//EN" "http://www.w3.org/Graphics/SVG/1.1/DTD/svg11.dtd">
<svg version="1.1" id="Layer_1" xmlns="http://www.w3.org/2000/svg" xmlns:xlink="http://www.w3.org/1999/xlink" x="0px" y="0px"
	 viewBox="0 0 50 50" enable-background="new 0 0 50 50" xml:space="preserve">
<g>
	<path fill="#FFFFFF" d="M14.1,48c-0.3,0-0.6-0.1-0.8-0.4c-0.3-0.5-0.2-1.1,0.2-1.5l18.6-13.6c0.5-0.3,1.1-0.2,1.5,0.2
		c0.3,0.5,0.2,1.1-0.2,1.5L14.7,47.8C14.5,48,14.3,48,14.1,48z"/>
	<path fill="#FFFFFF" d="M34.8,47.5c-0.2,0-0.4-0.1-0.6-0.2L16.8,34.6c-0.5-0.3-0.6-1-0.2-1.5c0.3-0.5,1-0.6,1.5-0.2l17.4,12.7
		c0.5,0.3,0.6,1,0.2,1.5C35.4,47.4,35.1,47.5,34.8,47.5z"/>
	<path fill="#FFFFFF" d="M17,34c-0.3,0-0.6-0.2-0.8-0.4c-0.3-0.5-0.2-1.1,0.2-1.4l13.8-9.9c0.5-0.3,1.1-0.2,1.4,0.2
		c0.3,0.5,0.2,1.1-0.2,1.4l-13.8,9.9C17.4,34,17.2,34,17,34z"/>
	<path fill="#FFFFFF" d="M32.7,33.8c-0.2,0-0.4-0.1-0.6-0.2l-14-8.8c-0.5-0.3-0.6-0.9-0.3-1.4c0.3-0.5,0.9-0.6,1.4-0.3l14,8.8
		c0.5,0.3,0.6,0.9,0.3,1.4C33.4,33.6,33,33.8,32.7,33.8z"/>
	<path fill="#FFFFFF" d="M18.7,24.9c-0.3,0-0.6-0.1-0.8-0.4c-0.4-0.4-0.3-1.1,0.1-1.5L28.6,14c0.4-0.4,1.1-0.3,1.5,0.1
		c0.4,0.4,0.3,1.1-0.1,1.5l-10.6,9.1C19.1,24.9,18.9,24.9,18.7,24.9z"/>
	<path fill="#FFFFFF" d="M31,24.7c-0.2,0-0.5-0.1-0.7-0.2l-10.4-8.7c-0.4-0.4-0.5-1-0.1-1.5c0.4-0.4,1-0.5,1.5-0.1l10.4,8.7
		c0.4,0.4,0.5,1,0.1,1.5C31.6,24.5,31.3,24.7,31,24.7z"/>
	<path fill="#FFFFFF" d="M14.1,48c-0.1,0-0.1,0-0.2,0c-0.6-0.1-0.9-0.6-0.8-1.2l6.2-34.5c0-0.1,0.1-0.2,0.1-0.3l4.5-9
		c0.2-0.4,0.6-0.6,0.9-0.6c0.4,0,0.8,0.2,0.9,0.6l4.5,9.2c0,0.1,0.1,0.2,0.1,0.3l5.7,33.9c0.1,0.6-0.3,1.1-0.9,1.2
		c-0.6,0.1-1.1-0.3-1.2-0.9l-5.7-33.7l-3.6-7.2l-3.5,7l-6.2,34.4C15,47.7,14.6,48,14.1,48z"/>
	<path fill="#FFFFFF" d="M20.7,15.1c-0.4,0-0.8-0.2-0.9-0.6c-0.3-0.5,0-1.1,0.5-1.4l2.2-1.1l-8.5-4.4c-0.4-0.2-0.6-0.6-0.6-1
		c0-0.4,0.3-0.8,0.7-0.9L24.4,2c0.2-0.1,0.5-0.1,0.7,0L36,5.8c0.4,0.1,0.7,0.5,0.7,0.9c0,0.4-0.2,0.8-0.6,1l-9,4.4l2,1
		c0.5,0.3,0.7,0.9,0.5,1.4c-0.3,0.5-0.9,0.7-1.4,0.5l-3.4-1.7L21.2,15C21,15,20.9,15.1,20.7,15.1z M17,6.9l7.8,4l8.2-4l-8.2-2.8
		L17,6.9z"/>
	<path fill="#FFFFFF" d="M35.5,12.9c-1,0-1.8-0.8-1.8-1.8s0.8-1.8,1.8-1.8s1.8,0.8,1.8,1.8S36.5,12.9,35.5,12.9z M35.5,10.4
		c-0.4,0-0.7,0.3-0.7,0.7s0.3,0.7,0.7,0.7c0.4,0,0.7-0.3,0.7-0.7S35.9,10.4,35.5,10.4z"/>
	<path fill="#FFFFFF" d="M35.7,9.9c-0.3,0-0.5-0.2-0.5-0.5V7.3c0-0.3,0.2-0.5,0.5-0.5c0.3,0,0.5,0.2,0.5,0.5v2.1
		C36.2,9.6,35.9,9.9,35.7,9.9z"/>
	<path fill="#FFFFFF" d="M14.2,12.9c-1,0-1.8-0.8-1.8-1.8s0.8-1.8,1.8-1.8s1.8,0.8,1.8,1.8S15.2,12.9,14.2,12.9z M14.2,10.4
		c-0.4,0-0.7,0.3-0.7,0.7s0.3,0.7,0.7,0.7c0.4,0,0.7-0.3,0.7-0.7S14.6,10.4,14.2,10.4z"/>
	<path fill="#FFFFFF" d="M14.4,9.9c-0.3,0-0.5-0.2-0.5-0.5V7.3c0-0.3,0.2-0.5,0.5-0.5c0.3,0,0.5,0.2,0.5,0.5v2.1
		C14.9,9.6,14.7,9.9,14.4,9.9z"/>
	<path fill="#FFFFFF" d="M8,17.9c-1.8,0-3.5-1-5.3-3c-0.2-0.2-0.2-0.6,0-0.8c0.2-0.2,0.6-0.2,0.8,0c1.8,2,3.5,2.8,5.1,2.5
		c3.1-0.6,4.9-5,4.9-5.1l0.1-0.3l0.4-0.1c0.4,0,0.6,0.2,1,1.1c0.5,0.9,1.2,2.4,2,3.1c0.2,0.2,0.2,0.6,0,0.8c-0.2,0.2-0.6,0.2-0.8,0
		c-0.9-0.9-1.7-2.3-2.2-3.3c-0.8,1.5-2.6,4.2-5.3,4.8C8.6,17.9,8.3,17.9,8,17.9z"/>
	<path fill="#FFFFFF" d="M42,17.9c-0.3,0-0.6,0-1-0.1c-2.7-0.6-4.5-3.3-5.3-4.8c-0.5,1-1.3,2.4-2.2,3.3c-0.2,0.2-0.6,0.2-0.8,0
		c-0.2-0.2-0.2-0.6,0-0.8c0.8-0.8,1.6-2.3,2-3.1c0.4-0.9,0.6-1.1,1-1.1c0.2,0,0.4,0.2,0.5,0.4c0,0,1.9,4.5,4.9,5.1
		c1.6,0.3,3.4-0.5,5.1-2.5c0.2-0.2,0.6-0.3,0.8,0c0.2,0.2,0.3,0.6,0,0.8C45.6,16.9,43.8,17.9,42,17.9z"/>
</g>
</svg>
