<?xml version="1.0" encoding="utf-8"?>
<!-- Generator: Adobe Illustrator 18.0.0, SVG Export Plug-In . SVG Version: 6.00 Build 0)  -->
<!DOCTYPE svg PUBLIC "-//W3C//DTD SVG 1.1//EN" "http://www.w3.org/Graphics/SVG/1.1/DTD/svg11.dtd">
<svg version="1.1" id="Layer_1" xmlns="http://www.w3.org/2000/svg" xmlns:xlink="http://www.w3.org/1999/xlink" x="0px" y="0px"
	 viewBox="0 0 1280 720" enable-background="new 0 0 1280 720" xml:space="preserve">
<path fill="#272525" d="M327.5,217.9v96.5L214.5,371V222.5l8.6,4.3l10.3-5.1c0,0-0.5-1.1-1.2-1.4l-10.4-5.2
	c-0.6-0.3-1.2-0.3-1.2-0.3s-1.6-0.1-3.7,2.1l-2.2-1.1V213l-3.6-1.8l-3.6,1.8l0,161.6l-88.2,44l455.5,227.7l541.8-270.9l-60.9-30.4
	V201.2l-3.6-1.8l-3.6,1.8v2.8l-2.2,1.1c0,0-2.2-2.1-3.7-2.1c-1-0.3-11.3,5.2-11.7,5.6c-0.4,0.4-1.1,1.3-1.1,1.3l10.3,5.1l8.5-4.2
	v130.7l-84.2-42.1v12.5l-345.9,173V363.3L327.5,217.9l181.6-90.8l0-45.2l8.6,4.4l10.1-5.3c0,0-0.7-1.2-1.4-1.6
	c-0.7-0.3-10.2-5.1-10.2-5.1s-0.5-0.3-1.2-0.2c-0.6,0-2.7,0.8-3.7,2.1l-2.2-1.1v-2.8l-3.6-1.8l-3.6,1.8l0,58.4L327.5,217.9z"/>
</svg>
