<?xml version="1.0" encoding="utf-8"?>
<!-- Generator: Adobe Illustrator 18.0.0, SVG Export Plug-In . SVG Version: 6.00 Build 0)  -->
<!DOCTYPE svg PUBLIC "-//W3C//DTD SVG 1.1//EN" "http://www.w3.org/Graphics/SVG/1.1/DTD/svg11.dtd">
<svg version="1.1" id="Layer_1" xmlns="http://www.w3.org/2000/svg" xmlns:xlink="http://www.w3.org/1999/xlink" x="0px" y="0px"
	 viewBox="0 0 1280 720" enable-background="new 0 0 1280 720" xml:space="preserve">
<g>
	<path fill-rule="evenodd" clip-rule="evenodd" fill="#FFFFFF" d="M418.9,304.3v23.3c0,0,3.9-9.4,18.7-6.5
		c14.8,2.9,19.6-4.3,19.6-4.3v-23.3c0,0-4.7,7.2-19.6,4.3C422.7,294.9,418.9,304.3,418.9,304.3z"/>
	<g>
		<linearGradient id="SVGID_1_" gradientUnits="userSpaceOnUse" x1="414.0513" y1="389.5931" x2="418.8794" y2="389.5931">
			<stop  offset="0" style="stop-color:#8D8F8B"/>
			<stop  offset="1.871829e-02" style="stop-color:#5D5E57"/>
			<stop  offset="7.736695e-02" style="stop-color:#CDC6C2"/>
			<stop  offset="0.4701" style="stop-color:#BBB7B4"/>
			<stop  offset="0.5508" style="stop-color:#7C7E78"/>
			<stop  offset="0.5906" style="stop-color:#656A68"/>
			<stop  offset="0.66" style="stop-color:#7F807A"/>
			<stop  offset="0.71" style="stop-color:#9E9C98"/>
			<stop  offset="0.82" style="stop-color:#9E9C98"/>
			<stop  offset="0.9" style="stop-color:#80817B"/>
			<stop  offset="1" style="stop-color:#A4A29D"/>
		</linearGradient>
		<path fill-rule="evenodd" clip-rule="evenodd" fill="url(#SVGID_1_)" d="M416.5,296.6L416.5,296.6c-1.4,0-2.4,1.1-2.4,2.4v181.3
			c0,1.3,1.1,2.4,2.4,2.4h0c1.3,0,2.4-1.1,2.4-2.4V299C418.9,297.6,417.8,296.6,416.5,296.6z"/>
		<g opacity="0.8">
			<defs>
				<path id="SVGID_2_" opacity="0.8" d="M418.6,304.9l0,23.5c0,0,3.9-9.4,18.8-6.5c14.9,2.9,19.7-4.4,19.7-4.4l0-23.5
					c0,0-4.7,7.3-19.7,4.4C422.5,295.4,418.6,304.9,418.6,304.9z"/>
			</defs>
			<clipPath id="SVGID_3_">
				<use xlink:href="#SVGID_2_"  overflow="visible"/>
			</clipPath>
			<g clip-path="url(#SVGID_3_)">
				
					<linearGradient id="SVGID_4_" gradientUnits="userSpaceOnUse" x1="750.9881" y1="282.7931" x2="789.7883" y2="282.7931" gradientTransform="matrix(0.7735 -0.6337 0.6337 0.7735 -320.3875 569.8904)">
					<stop  offset="0" style="stop-color:#D2D1D8"/>
					<stop  offset="0.5225" style="stop-color:#FFFFFF"/>
					<stop  offset="1" style="stop-color:#B8B7BE"/>
				</linearGradient>
				<path fill-rule="evenodd" clip-rule="evenodd" fill="url(#SVGID_4_)" d="M475.5,299.1c0.1-1.1,0.2-1.6,0.2-2c0-0.1,0-0.2,0-0.2
					c-0.6-0.4-1.9-1.2-2.7-1.4c-1-0.3-2-0.6-2-0.6s0.8-0.5,1.5-0.6c0.7,0,1.7,0.1,1.8,0.5c0.2,0.4,0.7,1.1,1.1,1.4
					c-0.1-0.2-0.3-0.4-0.5-0.7c-0.3-0.6,0.2-1-0.1-1.3c-0.3-0.3-0.8-0.9-1.4-1c-0.2,0-0.3-0.1-0.4-0.2c-0.6,0.8-2,1.6-2.7,2
					c-0.7,0.3-2.7,0.4-4.3,0.4c-1.9,0.1-3.8,0-4.2-0.1c-0.8-0.1-10.4-1.6-16.3-1c-5.4,0.6-11.9,7.9-13,9.3c0.7,0.9,1.6,2,2.3,3.1
					c0.5-0.4,1.1-0.9,1.9-1.5c1.5-1.3,4.2-6.1,10.1-8.6c5.9-2.5,18.6-0.4,21.1-0.5C470,296.2,474.1,298.4,475.5,299.1z"/>
				<path fill-rule="evenodd" clip-rule="evenodd" fill="#FFFFFF" d="M473.1,293.2c-0.2-0.2-0.3-0.4-0.7-0.6c-0.1,0-0.2-0.1-0.4-0.1
					c0,0,0,0.1,0,0.1c0,0.3,0.5,0.6-1.9,2c-1,0.6-2.5,0.9-4,1c1.6,0,3.6-0.1,4.3-0.4C471.1,294.8,472.4,294,473.1,293.2z"/>
				
					<linearGradient id="SVGID_5_" gradientUnits="userSpaceOnUse" x1="754.3714" y1="277.0633" x2="808.1542" y2="285.5816" gradientTransform="matrix(0.7735 -0.6337 0.6337 0.7735 -320.3875 569.8904)">
					<stop  offset="0" style="stop-color:#D2D1D8"/>
					<stop  offset="0.81" style="stop-color:#FFFFFF"/>
					<stop  offset="1" style="stop-color:#D2D1D8"/>
				</linearGradient>
				<path fill-rule="evenodd" clip-rule="evenodd" fill="url(#SVGID_5_)" d="M465.5,291.4c-1.7,0-4.1,0.2-6.5,0.4
					c-1.5,0.1-4.5,0.7-7.5,1.3c3.2-0.1,6.8,0,8.2,0c2.3,0,5.8,1.8,6.5,1.7c0.7-0.1,2.9-0.4,3.2-1.8
					C469.6,292.1,467.2,291.6,465.5,291.4z"/>
				
					<linearGradient id="SVGID_6_" gradientUnits="userSpaceOnUse" x1="747.2267" y1="264.8365" x2="764.2589" y2="267.5341" gradientTransform="matrix(0.7735 -0.6337 0.6337 0.7735 -320.3875 569.8904)">
					<stop  offset="0" style="stop-color:#D2D1D8"/>
					<stop  offset="0.81" style="stop-color:#FFFFFF"/>
					<stop  offset="1" style="stop-color:#D2D1D8"/>
				</linearGradient>
				<path fill-rule="evenodd" clip-rule="evenodd" fill="url(#SVGID_6_)" d="M438.6,295.2c-2.7,0.5-6.4,1.4-11.7,2.9
					c0.1,0.2,0.2,0.4,0.3,0.6c0.3,0.4,1.3,1.2,2.5,2.2c0.5-0.6,2-2.4,3.7-3.6C434.6,296.5,436.8,295.7,438.6,295.2z"/>
				
					<linearGradient id="SVGID_7_" gradientUnits="userSpaceOnUse" x1="724.4257" y1="287.6733" x2="784.8669" y2="287.6733" gradientTransform="matrix(0.7735 -0.6337 0.6337 0.7735 -320.3875 569.8904)">
					<stop  offset="0" style="stop-color:#D2D1D8"/>
					<stop  offset="0.2865" style="stop-color:#FFFFFF"/>
					<stop  offset="0.4944" style="stop-color:#B2B2B2"/>
					<stop  offset="0.7022" style="stop-color:#FFFFFF"/>
					<stop  offset="1" style="stop-color:#D2D1D8"/>
				</linearGradient>
				<path fill-rule="evenodd" clip-rule="evenodd" fill="url(#SVGID_7_)" d="M416.9,326.6c0.9,1.1,1.7,2.2,2.5,3.3
					c0.6-1,1.5-2.4,2.6-3.6c1.4-1.6,1.5-2.6,2.1-3.3c0.6-0.7,4.6-2.3,6.4-3.7c1.8-1.4,2.1-2.4,4.3-4.2c2.2-1.7,3.9-1.6,5.8-2.9
					c2-1.4,5.5-6,6.8-7.5c1.3-1.5,4.4-4.3,8.7-5.3c4.3-1,13.5,2.2,14.3,2.7c0.6,0.3,2.2,2.1,3,3.1c0.2-0.6,0.8-1.8,1.3-2.9
					c-0.7-0.8-1.5-1.5-2.6-2c-2.5-1.2-5.4-3.8-15.3-3.3c-9.9,0.5-13.2,6.3-14.3,7.7c-1.2,1.3-5.5,5.4-5.5,5.4l0,0
					c-0.1,0.1-0.3,0.4-1.3,1.2c-1.3,1.1-2.3,1.4-3.5,2.2c-1.3,0.8-2.4,1.9-3.7,2.8c-1.4,1-3,1.2-4.7,2.2
					C422.4,319.2,417.8,325.4,416.9,326.6z"/>
				
					<linearGradient id="SVGID_8_" gradientUnits="userSpaceOnUse" x1="724.327" y1="293.6141" x2="781.4327" y2="293.6141" gradientTransform="matrix(0.7735 -0.6337 0.6337 0.7735 -320.3875 569.8904)">
					<stop  offset="0" style="stop-color:#D2D1D8"/>
					<stop  offset="0.3146" style="stop-color:#FFFFFF"/>
					<stop  offset="0.5393" style="stop-color:#B2B2B2"/>
					<stop  offset="0.6629" style="stop-color:#FFFFFF"/>
					<stop  offset="1" style="stop-color:#D2D1D8"/>
				</linearGradient>
				<path fill-rule="evenodd" clip-rule="evenodd" fill="url(#SVGID_8_)" d="M421.7,332.7c0.8,1.1,1.7,2.1,2.6,3.2
					c0.9-2.4,2.8-4.3,3.2-4.8c0.5-0.6,1.4-2.3,2.5-3.3c1.1-1,2.3-1.2,2.8-1.4c0.5-0.3,0.5-0.8,0.8-1.5c0.3-0.7,2.4-2.8,3.2-3.7
					c0.7-1,1.7-1.4,3.1-1.8c1.4-0.4,6.6-3.2,9-4.6c2.4-1.4,1.5-1.4,4.6-5.6c3.2-4.2,5.2-4.3,9-4.2c3.8,0.1,8.9,3.1,10.3,3.8
					c0.8,0.5,1.9,0.9,2.7,1.2c-0.1-0.4-0.1-1.4-0.3-2.1c-0.3,0-0.6,0-0.8-0.1c-1.4-0.3-4-2.4-5-3.3c-1.1-0.9-6.8-3.9-11.3-2.8
					c-4.5,1-6.8,4.7-10,8.7c-3.2,4-8.6,4.9-10.3,5.9c-1.7,1-2.8,3.1-5.2,5.6c-2.4,2.6-5,2.7-5.3,3c-0.3,0.2-0.7,1.2-1.2,1.8
					c-0.5,0.6-0.3,0.7-2.1,2.6C422.6,330.5,422,331.9,421.7,332.7z"/>
				
					<linearGradient id="SVGID_9_" gradientUnits="userSpaceOnUse" x1="724.3788" y1="299.1249" x2="779.9503" y2="299.1249" gradientTransform="matrix(0.7735 -0.6337 0.6337 0.7735 -320.3875 569.8904)">
					<stop  offset="0.2079" style="stop-color:#D2D1D8"/>
					<stop  offset="0.3652" style="stop-color:#FFFFFF"/>
					<stop  offset="0.5169" style="stop-color:#B2B2B2"/>
					<stop  offset="0.7416" style="stop-color:#FFFFFF"/>
					<stop  offset="1" style="stop-color:#D2D1D8"/>
				</linearGradient>
				<path fill-rule="evenodd" clip-rule="evenodd" fill="url(#SVGID_9_)" d="M426.9,339.1c0.8,1,1.7,1.9,2.5,2.9
					c0.1-0.7,0.5-2.1,1.1-2.8c0.8-0.9,1.6-1.4,2.6-2.7c0.9-1.3,2.9-3.7,3.8-4.5c0.9-0.8,1.5-1.4,1.6-1.8c0.1-0.4-0.6-2.6-0.2-3
					c0.4-0.4,5.6-1.3,8.8-2.8c3.2-1.5,6.9-3.8,7.7-5c0.7-1.2,2.1-6.5,6.6-7.7c4.5-1.2,11,0.8,13,1.6c1.6,0.7,2.5,1.4,3.8,1.3
					c-0.4-0.5-1.3-1.3-1.4-1.6c-0.2-0.4-0.3-1.1-0.6-1.3c-0.2-0.1-0.5-0.3-0.7-0.5c-0.5,0-1-0.1-1.2-0.1c-0.4-0.1-0.8-0.9-1.2-1.3
					c-0.4-0.4-2.3-1-5.3-1.7c-3-0.7-7.7-0.6-9.3,0.4c-1.6,0.9-4.2,6.2-4.9,7c-0.7,0.8-2,1.6-5.5,3.8c-3.5,2.2-11.5,5-12,5.4
					c-0.4,0.4,0.2,1.6,0.2,2.2c0.1,0.6-0.5,0.9-1.6,1.7c-1.1,0.9-2.5,2.2-3.5,3.5c-0.9,1.3-2.3,2.6-3.2,3.7
					C427.3,336.5,427,338.2,426.9,339.1z"/>
				<path fill-rule="evenodd" clip-rule="evenodd" fill="#8F0000" d="M475.7,296.9c-0.6-0.4-1.9-1.2-2.7-1.4c-1-0.3-2-0.6-2-0.6
					s0.8-0.5,1.5-0.6c0.7,0,1.7,0.1,1.8,0.5c0.2,0.4,0.7,1.1,1.1,1.4C475.5,296.5,475.6,296.7,475.7,296.9z"/>
				
					<linearGradient id="SVGID_10_" gradientUnits="userSpaceOnUse" x1="750.7139" y1="277.4967" x2="788.7462" y2="277.4967" gradientTransform="matrix(0.7735 -0.6337 0.6337 0.7735 -320.3875 569.8904)">
					<stop  offset="0" style="stop-color:#8F0000"/>
					<stop  offset="0.5" style="stop-color:#FF0000"/>
					<stop  offset="1" style="stop-color:#8F0000"/>
				</linearGradient>
				<path fill-rule="evenodd" clip-rule="evenodd" fill="url(#SVGID_10_)" d="M432.6,303.7c1.1-1.3,7.6-8.6,13-9.3
					c6-0.7,15.5,0.8,16.3,1c0.8,0.1,5.9,0.5,8.2-0.9c2.3-1.4,1.9-1.7,1.9-2c0,0,0-0.1,0-0.1c-1.1-0.3-4-0.9-5.4-1c-0.3,0-0.7,0-1,0
					c1.7,0.2,4.1,0.7,3.9,1.7c-0.3,1.4-2.5,1.7-3.2,1.8c-0.7,0.1-4.2-1.7-6.5-1.7c-1.5,0-5.1-0.1-8.2,0c-2.9,0.6-5.6,1.1-6.9,1.2
					c-1.2,0.1-2.9,0.2-6,0.9c-1.9,0.5-4.1,1.3-5.2,2.1c-1.7,1.2-3.2,3-3.7,3.6c0.7,0.6,1.4,1.2,2,1.8
					C431.9,303,432.2,303.3,432.6,303.7z"/>
				
					<linearGradient id="SVGID_11_" gradientUnits="userSpaceOnUse" x1="750.7211" y1="285.5238" x2="787.2839" y2="285.5238" gradientTransform="matrix(0.7735 -0.6337 0.6337 0.7735 -320.3875 569.8904)">
					<stop  offset="0" style="stop-color:#8F0000"/>
					<stop  offset="0.4607" style="stop-color:#FF0000"/>
					<stop  offset="1" style="stop-color:#8F0000"/>
				</linearGradient>
				<path fill-rule="evenodd" clip-rule="evenodd" fill="url(#SVGID_11_)" d="M474.9,302.1c0.3-0.7,0.5-1.3,0.5-1.9
					c0-0.4,0.1-0.8,0.1-1.1c-1.4-0.8-5.5-2.9-7.6-2.9c-2.5,0-15.2-2-21.1,0.5c-5.9,2.5-8.6,7.3-10.1,8.6c-0.7,0.6-1.4,1.1-1.9,1.5
					c1.2,1.6,2.2,3,2.2,3s0,0,0,0l0,0c0,0,4.4-4.1,5.5-5.4c1.2-1.3,4.4-7.2,14.3-7.7c9.9-0.5,12.8,2.2,15.3,3.3
					C473.3,300.6,474.2,301.3,474.9,302.1z"/>
				
					<linearGradient id="SVGID_12_" gradientUnits="userSpaceOnUse" x1="724.3574" y1="291.0815" x2="782.0071" y2="291.0815" gradientTransform="matrix(0.7735 -0.6337 0.6337 0.7735 -320.3875 569.8904)">
					<stop  offset="5.617980e-03" style="stop-color:#8F0000"/>
					<stop  offset="0.2978" style="stop-color:#FF0000"/>
					<stop  offset="0.5449" style="stop-color:#8F0000"/>
					<stop  offset="0.7753" style="stop-color:#FF0000"/>
					<stop  offset="1" style="stop-color:#8F0000"/>
				</linearGradient>
				<path fill-rule="evenodd" clip-rule="evenodd" fill="url(#SVGID_12_)" d="M419.5,329.9c0.7,0.9,1.5,1.9,2.2,2.8
					c0.3-0.8,0.9-2.2,2.2-3.6c1.8-1.9,1.7-1.9,2.1-2.6c0.5-0.6,0.9-1.6,1.2-1.8c0.3-0.2,2.9-0.4,5.3-3c2.4-2.6,3.5-4.7,5.2-5.6
					c1.7-1,7.1-1.9,10.3-5.9c3.2-4,5.5-7.6,10-8.7c4.5-1,10.3,2,11.3,2.8c1.1,0.9,3.6,3,5,3.3c0.3,0,0.5,0.1,0.8,0.1
					c-0.1-0.2-0.1-0.4-0.2-0.5c-0.5-0.5-1.4-1.2-1.3-1.9c0-0.1,0-0.2,0.1-0.3c-0.9-1-2.4-2.7-3-3.1c-0.8-0.5-10-3.6-14.3-2.7
					c-4.3,1-7.4,3.8-8.7,5.3c-1.3,1.5-4.8,6.1-6.8,7.5c-2,1.4-3.7,1.2-5.8,2.9c-2.2,1.7-2.4,2.7-4.3,4.2c-1.8,1.4-5.8,3-6.4,3.7
					c-0.6,0.7-0.7,1.8-2.1,3.3C421,327.5,420.1,328.9,419.5,329.9z"/>
				
					<linearGradient id="SVGID_13_" gradientUnits="userSpaceOnUse" x1="724.3271" y1="295.7234" x2="780.364" y2="295.7234" gradientTransform="matrix(0.7735 -0.6337 0.6337 0.7735 -320.3875 569.8904)">
					<stop  offset="0" style="stop-color:#8F0000"/>
					<stop  offset="0.3202" style="stop-color:#FF0000"/>
					<stop  offset="0.5843" style="stop-color:#8F0000"/>
					<stop  offset="0.809" style="stop-color:#FF0000"/>
					<stop  offset="1" style="stop-color:#8F0000"/>
				</linearGradient>
				<path fill-rule="evenodd" clip-rule="evenodd" fill="url(#SVGID_13_)" d="M424.3,335.9c0.9,1.1,1.8,2.1,2.7,3.2
					c0.1-0.8,0.4-2.5,1.1-3.4c1-1.1,2.3-2.5,3.2-3.7c0.9-1.3,2.4-2.6,3.5-3.5c1.1-0.9,1.7-1.1,1.6-1.7c-0.1-0.6-0.6-1.8-0.2-2.2
					c0.4-0.4,8.5-3.1,12-5.4c3.5-2.2,4.8-3,5.5-3.8c0.7-0.8,3.4-6.1,4.9-7c1.6-0.9,6.3-1,9.3-0.4c3,0.7,4.9,1.3,5.3,1.7
					c0.4,0.4,0.8,1.2,1.2,1.3c0.2,0.1,0.7,0.1,1.2,0.1c-0.2-0.2-0.3-0.3-0.3-0.5c0-0.3,0.3-0.5,0.2-0.7c0,0,0-0.1,0-0.1
					c-0.7-0.3-1.8-0.7-2.7-1.2c-1.3-0.8-6.5-3.7-10.3-3.8c-3.8-0.1-5.8,0-9,4.2c-3.2,4.2-2.3,4.2-4.6,5.6c-2.4,1.4-7.6,4.1-9,4.6
					c-1.4,0.4-2.3,0.9-3.1,1.8c-0.7,1-2.9,3-3.2,3.7c-0.3,0.7-0.3,1.2-0.8,1.5c-0.5,0.3-1.7,0.4-2.8,1.4c-1.1,1-2,2.8-2.5,3.3
					C427.1,331.5,425.1,333.5,424.3,335.9z"/>
				
					<linearGradient id="SVGID_14_" gradientUnits="userSpaceOnUse" x1="724.5308" y1="301.2478" x2="779.6768" y2="301.2478" gradientTransform="matrix(0.7735 -0.6337 0.6337 0.7735 -320.3875 569.8904)">
					<stop  offset="0.1461" style="stop-color:#8F0000"/>
					<stop  offset="0.3202" style="stop-color:#FF0000"/>
					<stop  offset="0.5" style="stop-color:#8F0000"/>
					<stop  offset="0.8202" style="stop-color:#FF0000"/>
					<stop  offset="1" style="stop-color:#8F0000"/>
				</linearGradient>
				<path fill-rule="evenodd" clip-rule="evenodd" fill="url(#SVGID_14_)" d="M429.5,341.9c0.8,0.8,1.6,1.7,2.4,2.5
					c0,0,0.7-2.4,1.6-3.3c0.9-0.9,2.1-1.6,2.5-2.4c0.4-0.8,1.1-1.9,1.7-2.4c0.6-0.5,0.8-0.7,1-0.9c0.1-0.3-0.6-2.4,0.6-3.9
					c1.2-1.5,4.3-4.2,4.4-4.2c0.1-0.1,2.7-0.2,6.1-1.3c3.4-1.1,4.7-1.2,5-1.7c0.4-0.5,0.8-5.9,7.1-8.8c6.3-2.9,14.4,1.5,14.9,1.4
					c0.5-0.2,1.7-1.7,1.8-2c0-0.1-0.1-0.2-0.2-0.4c-1.3,0.1-2.2-0.6-3.8-1.3c-2-0.8-8.5-2.8-13-1.6c-4.5,1.2-5.9,6.5-6.6,7.7
					c-0.7,1.2-4.5,3.5-7.7,5c-3.2,1.5-8.4,2.4-8.8,2.8c-0.4,0.4,0.3,2.6,0.2,3c-0.1,0.4-0.7,1-1.6,1.8c-0.9,0.8-2.9,3.2-3.8,4.5
					c-0.9,1.3-1.8,1.8-2.6,2.7C430,339.8,429.6,341.2,429.5,341.9z"/>
				
					<linearGradient id="SVGID_15_" gradientUnits="userSpaceOnUse" x1="719.6987" y1="285.9025" x2="742.3126" y2="259.8882" gradientTransform="matrix(0.7735 -0.6337 0.6337 0.7735 -320.3875 569.8904)">
					<stop  offset="0" style="stop-color:#0000FF"/>
					<stop  offset="0.24" style="stop-color:#09053A"/>
					<stop  offset="0.35" style="stop-color:#09053A"/>
					<stop  offset="0.41" style="stop-color:#09053A"/>
					<stop  offset="0.55" style="stop-color:#0000FF"/>
					<stop  offset="0.78" style="stop-color:#09053A"/>
					<stop  offset="0.82" style="stop-color:#09053A"/>
					<stop  offset="1" style="stop-color:#0000FF"/>
				</linearGradient>
				<path fill-rule="evenodd" clip-rule="evenodd" fill="url(#SVGID_15_)" d="M399.5,306.6c6.5,6,12,13,17.4,20
					c0.9-1.2,5.5-7.4,7-8.4c1.7-1,3.3-1.2,4.7-2.2c1.4-1,2.4-2,3.7-2.8c1.3-0.8,2.2-1.1,3.5-2.2c1.3-1.1,1.3-1.2,1.3-1.2
					s-3.9-5.5-5.4-7.1c-1.5-1.6-4-3.4-4.4-4c-0.1-0.2-0.2-0.4-0.3-0.6c-1.6,0.5-3.3,1-5.2,1.5C406.2,304.4,411.5,303.8,399.5,306.6z
					"/>
				
					<linearGradient id="SVGID_16_" gradientUnits="userSpaceOnUse" x1="729.2738" y1="277.1161" x2="741.2125" y2="263.3822" gradientTransform="matrix(0.7735 -0.6337 0.6337 0.7735 -320.3875 569.8904)">
					<stop  offset="0" style="stop-color:#7B7B81"/>
					<stop  offset="0.21" style="stop-color:#A6A7AF"/>
					<stop  offset="0.38" style="stop-color:#FFFFFF"/>
					<stop  offset="0.65" style="stop-color:#A2A2AA"/>
					<stop  offset="1" style="stop-color:#FFFFFF"/>
				</linearGradient>
				<path fill-rule="evenodd" clip-rule="evenodd" fill="url(#SVGID_16_)" d="M420.1,300.2l-0.3,0.1c0,0.1,0,0.2,0,0.2
					c0,0-0.3,0.3-0.3,0.4c0,0,0.5,0.1,0.5,0c0,0,0.4,0.5,0.4,0.6c0,0,0.1-0.5,0.1-0.6c0,0,0.5,0,0.6,0c0,0-0.4-0.3-0.5-0.4
					c0,0-0.1-0.3-0.1-0.3c0,0-0.3,0.1-0.3,0.1C420.2,300.2,420.2,300.2,420.1,300.2L420.1,300.2z M422.9,300.3c0,0,0.6,0.1,0.6,0.1
					c0,0,0.3-0.3,0.3-0.3c0,0,0,0.4,0,0.4c0,0,0.3,0.3,0.3,0.3c0,0-0.2,0.1-0.2,0.1c0,0,0.1,0.4,0.1,0.5c0,0-0.5-0.4-0.5-0.5
					c0,0-0.3,0-0.4,0C423.3,300.8,422.9,300.3,422.9,300.3L422.9,300.3z M426.4,300.6c0,0,0.5,0.1,0.5,0.1c0,0,0.3-0.2,0.3-0.2
					c0,0,0.2,0.3,0.2,0.4c0,0,0.4,0.3,0.5,0.3c0,0-0.4,0-0.5,0c0,0,0,0.5-0.1,0.5c0,0-0.4-0.4-0.4-0.4c0,0-0.5,0.1-0.6,0.1
					c0,0,0.3-0.3,0.3-0.3C426.7,300.9,426.4,300.6,426.4,300.6L426.4,300.6z M413.6,302.5c0.1,0,0.4,0,0.5-0.1
					c0,0.1,0.7,0.4,0.8,0.5c0,0-0.5-0.1-0.5,0c0,0-0.1,0.5-0.1,0.5c0,0-0.3-0.4-0.3-0.5c0,0-0.5,0-0.5,0c0,0,0.2-0.2,0.2-0.2
					C413.7,302.7,413.7,302.6,413.6,302.5L413.6,302.5z M417.1,302.5c0.2,0.1,0.6,0,0.8-0.2c0,0,0.2,0.2,0.2,0.3
					c0,0,0.4,0.1,0.4,0.1c-0.2,0-0.4,0.2-0.5,0.4c0,0-0.3-0.2-0.3-0.3c0,0-0.5,0.1-0.5,0.1C417.3,302.9,417.1,302.6,417.1,302.5
					L417.1,302.5z M420.6,302.5c0,0,0.5,0,0.5,0.1c0,0,0.2-0.2,0.3-0.3c0,0,0.2,0.4,0.1,0.4c0,0,0.6,0.5,0.6,0.5
					c0,0-0.6,0.1-0.6,0.1c0,0,0,0.4-0.1,0.4c0,0-0.4-0.6-0.4-0.6c0,0-0.5,0.1-0.6,0.1c0,0,0.2-0.4,0.2-0.4
					C420.7,302.7,420.6,302.5,420.6,302.5L420.6,302.5z M423.9,302.8c0,0,0.5,0.2,0.6,0.2c0,0,0.5-0.4,0.5-0.4c0,0-0.1,0.6-0.1,0.6
					c0,0,0.4,0.5,0.5,0.5c0,0-0.5,0-0.5,0c0,0-0.1,0.4-0.1,0.5c0,0-0.3-0.6-0.3-0.6c0,0-0.6-0.1-0.6-0.1c0,0,0.4-0.2,0.4-0.3
					C424.2,303.3,423.9,302.8,423.9,302.8L423.9,302.8z M427.2,303.3c0,0,0.5,0.4,0.6,0.4c0,0,0.4-0.4,0.5-0.4c0,0-0.1,0.6-0.1,0.6
					c0,0,0.4,0.4,0.5,0.4c0,0-0.5,0.1-0.5,0.1c0,0,0,0.5-0.1,0.6c0,0-0.4-0.5-0.4-0.5c0,0-0.6-0.1-0.6,0c0,0,0.3-0.4,0.4-0.4
					C427.4,303.9,427.2,303.3,427.2,303.3L427.2,303.3z M430.2,303.9c0,0,0.6,0.3,0.7,0.3c0,0,0.4-0.2,0.4-0.3c0,0,0.1,0.5,0,0.6
					c0,0,0.5,0.5,0.6,0.5c0,0-0.6,0-0.6,0c0,0-0.1,0.6-0.1,0.7c0,0-0.4-0.7-0.4-0.7c0,0-0.6-0.1-0.6-0.1c0,0,0.3-0.4,0.4-0.4
					C430.4,304.5,430.2,304,430.2,303.9L430.2,303.9z M410.7,304.3c0,0,0.6,0.2,0.7,0.2c0,0,0.2-0.1,0.3-0.1c0,0.1,0.1,0.1,0.2,0.2
					c0,0,0.6,0.2,0.6,0.2c0,0-0.6,0.1-0.6,0.1c0,0-0.1,0.2-0.1,0.3c0,0-0.3-0.2-0.3-0.3c0,0-0.7,0-0.8,0c0,0,0.2-0.2,0.3-0.2
					C410.9,304.6,410.7,304.3,410.7,304.3L410.7,304.3z M414.3,304.3c0,0,0.6,0.2,0.7,0.3c0,0,0.4-0.3,0.4-0.3c0,0,0,0.4-0.1,0.4
					c0,0,0.7,0.3,0.7,0.4c0,0-0.6,0-0.7,0c0,0-0.1,0.6-0.1,0.7c0,0-0.4-0.6-0.4-0.6c0,0-0.7,0-0.7,0c0,0,0.5-0.3,0.5-0.3
					C414.6,304.7,414.3,304.3,414.3,304.3L414.3,304.3z M417.9,304.6c0,0,0.5,0.3,0.6,0.3c0.1-0.1,0.4-0.3,0.4-0.4c0,0,0,0.6,0,0.6
					c0,0,0.6,0.3,0.7,0.3c0,0-0.7,0.1-0.7,0.1c0,0-0.1,0.6-0.1,0.7c0,0-0.3-0.6-0.4-0.6c0,0-0.7,0-0.7,0c0,0,0.5-0.4,0.5-0.5
					C418.1,305.1,417.9,304.7,417.9,304.6L417.9,304.6z M421.2,305.3c0,0,0.6,0.3,0.6,0.3c0,0,0.3-0.3,0.4-0.3c0,0,0,0.5,0,0.5
					c0,0,0.5,0.3,0.5,0.3c0,0-0.6,0.1-0.6,0.1c0,0-0.2,0.6-0.2,0.7c0,0-0.2-0.6-0.2-0.6c0,0-0.6-0.1-0.6-0.1c0,0,0.4-0.3,0.5-0.3
					C421.5,305.8,421.2,305.3,421.2,305.3L421.2,305.3z M424.4,305.9c0,0,0.6,0.3,0.6,0.3c0,0,0.5-0.4,0.5-0.4c0,0-0.2,0.6-0.2,0.6
					c0,0,0.4,0.5,0.5,0.5c0,0-0.5,0-0.5,0c0,0-0.1,0.5-0.1,0.6c0,0-0.3-0.6-0.3-0.6c0,0-0.6,0.1-0.7,0.2c0,0,0.5-0.4,0.5-0.5
					C424.7,306.5,424.4,305.9,424.4,305.9L424.4,305.9z M427.6,306.7c0,0,0.5,0.3,0.6,0.3c0,0,0.5-0.2,0.5-0.2c0,0-0.1,0.4-0.1,0.4
					c0,0,0.3,0.4,0.4,0.4c0,0-0.5,0-0.5,0c0,0-0.2,0.5-0.2,0.6c0,0-0.3-0.5-0.3-0.6c0,0-0.6-0.1-0.6-0.1c0,0,0.4-0.3,0.5-0.3
					C427.8,307.2,427.6,306.7,427.6,306.7L427.6,306.7z M430.7,307.4c0,0,0.5,0.3,0.5,0.3c0,0,0.4-0.4,0.5-0.4c0,0,0,0.6-0.1,0.7
					c0,0,0.4,0.4,0.4,0.4c0,0-0.4,0.1-0.5,0.1c0,0-0.2,0.6-0.2,0.6c0,0-0.3-0.6-0.3-0.6c0,0-0.6,0-0.6,0c0,0,0.4-0.4,0.4-0.4
					C430.9,308,430.7,307.5,430.7,307.4L430.7,307.4z M433.8,308.2c0,0,0.4,0.3,0.5,0.3c0,0,0.4-0.3,0.5-0.3c0,0,0,0.5,0,0.5
					c0,0,0.5,0.5,0.5,0.5c0,0-0.5,0.1-0.6,0.1c0,0-0.2,0.5-0.2,0.5c0,0-0.3-0.5-0.3-0.6c0,0-0.5-0.1-0.6-0.1c0,0,0.4-0.4,0.4-0.4
					C434,308.7,433.8,308.2,433.8,308.2L433.8,308.2z M404.6,306c0,0,0.3,0.1,0.3,0.1c0,0,0.4-0.1,0.5-0.2c0,0-0.1,0.3-0.1,0.4
					c0,0,0.5,0.2,0.6,0.2c0,0-0.5,0.1-0.5,0.1c0,0-0.3,0.3-0.3,0.4c0,0-0.2-0.4-0.2-0.5c0,0-0.6-0.3-0.6-0.3c0,0,0.4,0,0.5,0
					C404.8,306.2,404.6,306,404.6,306L404.6,306z M407.8,306.1c0,0,0.5,0.3,0.5,0.3c0,0,0.4-0.3,0.4-0.3c0,0,0,0.4,0,0.4
					c0,0,0.6,0.5,0.6,0.5c0,0-0.6,0-0.7,0c0,0-0.2,0.7-0.2,0.7c0,0-0.3-0.7-0.3-0.7c0,0-0.6,0-0.6,0c0,0,0.5-0.4,0.5-0.4
					C408.1,306.5,407.9,306.1,407.8,306.1L407.8,306.1z M411.3,306.5c0,0,0.4,0.3,0.5,0.3c0,0,0.6-0.3,0.6-0.4c0,0-0.1,0.5-0.1,0.6
					c0,0,0.4,0.4,0.5,0.5c0,0-0.6,0-0.7,0c0,0-0.2,0.5-0.2,0.5c0,0-0.3-0.6-0.3-0.6c0,0-0.5,0-0.5,0c0,0,0.5-0.4,0.5-0.4
					C411.5,307,411.3,306.6,411.3,306.5L411.3,306.5z M414.7,307c0,0,0.5,0.3,0.5,0.3c0,0,0.6-0.3,0.6-0.3c0,0-0.2,0.5-0.2,0.6
					c0,0,0.4,0.5,0.5,0.6c0,0-0.5-0.1-0.6-0.1c0,0-0.4,0.5-0.4,0.6c0,0-0.3-0.6-0.3-0.7c0,0-0.5,0-0.6,0c0,0,0.5-0.4,0.5-0.4
					C414.8,307.7,414.8,307.1,414.7,307L414.7,307z M418.1,307.9c0,0,0.4,0.3,0.5,0.3c0,0,0.5-0.3,0.5-0.3c0,0-0.1,0.4-0.2,0.5
					c0,0,0.3,0.3,0.4,0.3c0,0-0.6,0.1-0.6,0.1c0,0-0.5,0.4-0.5,0.4c0,0-0.1-0.4-0.1-0.4c0,0-0.4,0-0.5,0c0,0,0.5-0.4,0.5-0.4
					C418.1,308.3,418.1,307.9,418.1,307.9L418.1,307.9z M421.1,308.4c0,0,0.5,0.4,0.6,0.4c0,0,0.5-0.3,0.6-0.3c0,0-0.2,0.5-0.2,0.5
					c0,0,0.4,0.4,0.4,0.4c0,0-0.6,0-0.7,0c0,0-0.5,0.6-0.5,0.6c0,0,0-0.5,0-0.6c0,0-0.4-0.1-0.5-0.1c0,0,0.4-0.3,0.4-0.3
					C421.3,309,421.2,308.5,421.1,308.4L421.1,308.4z M424.5,309.3c0,0,0.4,0.3,0.4,0.3c0,0,0.6-0.3,0.6-0.3c0,0-0.3,0.5-0.3,0.6
					c0,0,0.3,0.4,0.4,0.4c0,0-0.6-0.1-0.6-0.1c0,0-0.3,0.5-0.3,0.6c0,0-0.1-0.5-0.1-0.6c0,0-0.6,0-0.6,0c0,0,0.6-0.4,0.6-0.4
					C424.6,309.7,424.5,309.3,424.5,309.3L424.5,309.3z M427.7,310c0,0,0.5,0.4,0.5,0.4c0,0,0.6-0.4,0.6-0.4c0,0-0.3,0.5-0.3,0.5
					c0,0,0.5,0.5,0.5,0.5c0,0-0.6,0-0.7,0c0,0-0.3,0.5-0.3,0.5c0,0-0.3-0.5-0.3-0.6c0,0-0.6,0-0.6,0c0,0,0.6-0.4,0.6-0.4
					C427.8,310.5,427.7,310,427.7,310L427.7,310z M431,310.8c0,0,0.4,0.3,0.4,0.3c0,0,0.4-0.3,0.5-0.4c0,0-0.1,0.5-0.1,0.6
					c0,0,0.4,0.5,0.4,0.6c0,0-0.5-0.1-0.6-0.1c0,0-0.4,0.5-0.4,0.5c0,0-0.1-0.5-0.1-0.5c0,0-0.6-0.1-0.6-0.1c0,0,0.5-0.4,0.6-0.4
					C431.1,311.3,431,310.9,431,310.8L431,310.8z M407.6,308.9c0,0,0.5,0.3,0.5,0.3c0,0,0.6-0.3,0.6-0.3c0,0-0.2,0.5-0.2,0.5
					c0,0,0.5,0.4,0.6,0.4c0,0-0.7,0.1-0.7,0.1c0,0-0.2,0.6-0.2,0.7c0,0-0.3-0.5-0.3-0.6c0,0-0.6,0.1-0.6,0.1c0,0,0.4-0.6,0.5-0.6
					C407.8,309.5,407.6,309,407.6,308.9L407.6,308.9z M410.7,309.3c0,0,0.6,0.4,0.6,0.4c0,0,0.5-0.3,0.5-0.3c0,0-0.2,0.4-0.2,0.5
					c0,0,0.6,0.5,0.6,0.5c0,0-0.7,0-0.8,0c0,0-0.2,0.7-0.2,0.7c0,0-0.2-0.6-0.3-0.6c0,0-0.6-0.1-0.7-0.1c0,0,0.4-0.4,0.5-0.5
					C410.9,309.9,410.7,309.4,410.7,309.3L410.7,309.3z M413.9,309.9c0,0,0.4,0.3,0.5,0.3c0,0,0.7-0.3,0.7-0.4c0,0-0.3,0.5-0.3,0.6
					c0,0,0.5,0.4,0.6,0.4c0,0-0.7,0-0.8,0c0,0-0.3,0.6-0.3,0.6c0,0-0.1-0.6-0.1-0.6c0,0-0.6-0.1-0.6-0.1c0,0,0.5-0.3,0.5-0.4
					C414,310.4,413.9,309.9,413.9,309.9L413.9,309.9z M417,310.4c0,0,0.4,0.3,0.5,0.4c0,0,0.7-0.3,0.8-0.3c0,0-0.3,0.5-0.3,0.6
					c0,0,0.3,0.5,0.4,0.5c0,0-0.6,0-0.7,0c0,0-0.2,0.7-0.2,0.7c0,0-0.2-0.6-0.3-0.6c0,0-0.6,0-0.6,0c0,0,0.5-0.4,0.5-0.5
					C417,311,417,310.4,417,310.4L417,310.4z M420.1,311c0,0,0.6,0.4,0.6,0.4c0,0,0.7-0.2,0.7-0.2c0,0-0.3,0.5-0.3,0.5
					c0,0,0.4,0.5,0.4,0.5c0,0-0.7-0.1-0.7-0.1c0,0-0.3,0.6-0.4,0.7c0,0-0.1-0.6-0.1-0.6c0,0-0.6-0.2-0.7-0.2c0,0,0.5-0.3,0.6-0.3
					C420.2,311.7,420.1,311.1,420.1,311L420.1,311z M423.5,312.1c0,0,0.5,0.3,0.5,0.3c0,0,0.6-0.2,0.6-0.2c0,0-0.2,0.5-0.2,0.5
					c0,0,0.6,0.6,0.7,0.6c0,0-0.9-0.1-0.9-0.1c0,0-0.2,0.5-0.2,0.6c0,0-0.3-0.6-0.3-0.7c0,0-0.6-0.2-0.7-0.2c0,0,0.6-0.3,0.6-0.4
					C423.6,312.5,423.6,312.1,423.5,312.1L423.5,312.1z M426.9,313.1c0,0,0.6,0.4,0.6,0.4c0,0,0.7-0.3,0.7-0.3c0,0-0.3,0.6-0.3,0.7
					c0,0,0.5,0.5,0.5,0.5c0,0-0.6-0.1-0.7-0.1c0,0-0.4,0.6-0.5,0.6c0,0-0.2-0.6-0.2-0.7c0,0-0.6-0.2-0.7-0.2c0,0,0.6-0.3,0.6-0.3
					C427.1,313.6,426.9,313.1,426.9,313.1L426.9,313.1z M410.8,312.7c0,0,0.6,0.3,0.6,0.3c0,0,0.5-0.4,0.5-0.5c0,0-0.1,0.7-0.1,0.7
					c0,0,0.5,0.4,0.6,0.4c0,0-0.6,0.1-0.7,0.1c0,0-0.1,0.8-0.1,0.9c0,0-0.3-0.7-0.3-0.7c0,0-0.7-0.1-0.7-0.1c0,0,0.4-0.4,0.4-0.4
					C411,313.4,410.8,312.8,410.8,312.7L410.8,312.7z M413.7,313.3c0,0,0.5,0.2,0.5,0.2c0,0,0.4-0.3,0.4-0.3c0,0,0,0.4,0,0.5
					c0,0,0.6,0.5,0.6,0.5c0,0-0.6,0-0.6,0c0,0-0.2,0.6-0.2,0.7c0,0-0.3-0.6-0.3-0.6c-0.1,0-0.5,0.1-0.5,0.1c0,0,0.3-0.5,0.3-0.5
					C413.9,313.9,413.7,313.4,413.7,313.3L413.7,313.3z M416.7,313.7c0,0,0.5,0.3,0.5,0.3c0,0,0.4-0.4,0.4-0.4c0,0,0,0.6,0,0.6
					c0,0,0.6,0.5,0.6,0.6c0,0-0.6,0-0.7,0c0,0-0.1,0.6-0.1,0.7c0,0-0.4-0.6-0.4-0.7c0,0-0.6,0.1-0.6,0.1c0,0,0.4-0.6,0.5-0.6
					C416.9,314.3,416.7,313.7,416.7,313.7L416.7,313.7z M419.7,314.4c0,0,0.4,0.3,0.4,0.3c0,0,0.5-0.3,0.5-0.3c0,0-0.1,0.6-0.1,0.6
					c0,0,0.6,0.3,0.6,0.4c0,0-0.6,0.1-0.7,0.1c0,0-0.3,0.5-0.3,0.5c0,0-0.3-0.4-0.3-0.5c0,0-0.5-0.1-0.5-0.1c0,0,0.4-0.5,0.5-0.5
					C419.8,315,419.7,314.5,419.7,314.4L419.7,314.4z M422.7,315.1c0,0,0.6,0.3,0.6,0.3c0,0,0.6-0.3,0.6-0.3c0,0-0.2,0.5-0.3,0.6
					c0,0,0.5,0.5,0.5,0.5c0,0-0.7,0-0.7,0c0,0-0.4,0.6-0.4,0.6c0,0-0.2-0.6-0.2-0.6c0,0-0.5-0.1-0.6-0.1c0,0,0.5-0.5,0.5-0.5
					C422.8,315.6,422.7,315.1,422.7,315.1L422.7,315.1z M414,316.7c0,0,0.5,0.3,0.6,0.4c0,0,0.4-0.3,0.4-0.3c0,0,0,0.5,0,0.6
					c0,0,0.6,0.5,0.7,0.5c0,0-0.6,0-0.7,0c0,0-0.2,0.6-0.2,0.6c0,0-0.3-0.6-0.3-0.6c0,0-0.4,0-0.5,0c0,0,0.3-0.5,0.3-0.5
					C414.3,317.3,414,316.7,414,316.7L414,316.7z M416.9,317.2c0,0,0.5,0.4,0.5,0.4c0,0,0.4-0.3,0.5-0.4c0,0-0.1,0.6-0.1,0.6
					c0,0,0.6,0.4,0.6,0.4c0,0-0.5,0.1-0.6,0.1c0,0,0,0.5,0,0.6c0,0-0.3-0.4-0.4-0.5c0,0-0.4,0-0.5,0c0,0,0.2-0.4,0.3-0.4
					C417.1,317.9,416.9,317.3,416.9,317.2L416.9,317.2z M419.6,317.7c0.1,0,0.4,0.3,0.5,0.3c0,0,0.4-0.3,0.5-0.3
					c0,0.1-0.1,0.6-0.1,0.6c0.1,0,0.3,0.4,0.4,0.4c-0.1,0-0.4,0.1-0.5,0.1c0,0.1-0.2,0.7-0.2,0.8c0-0.1-0.2-0.7-0.3-0.7
					c-0.1,0-0.5-0.1-0.6-0.1c0,0,0.4-0.4,0.5-0.5C419.7,318.3,419.6,317.8,419.6,317.7L419.6,317.7z M417.2,320.8
					c0,0,0.4,0.2,0.5,0.2c0,0,0.5-0.3,0.5-0.4c0,0-0.1,0.7-0.1,0.7c0,0,0.5,0.5,0.5,0.5c0,0-0.5,0-0.5,0c0,0-0.1,0.6-0.1,0.6
					c0,0-0.4-0.5-0.4-0.6c0,0-0.6,0-0.6,0c0,0,0.4-0.5,0.5-0.5C417.4,321.3,417.2,320.8,417.2,320.8L417.2,320.8z M407.7,304.4
					c-0.1,0-0.2,0.1-0.3,0.1c0,0,0,0,0,0c0,0.1-0.1,0.2-0.1,0.2c0.2,0,0.5,0.1,0.6,0.3c0,0,0.2-0.2,0.2-0.3c0,0,0.7,0,0.7,0
					c0,0-0.7-0.2-0.7-0.2c0,0-0.1-0.1-0.1-0.1c0,0-0.1,0.1-0.2,0.1C407.9,304.5,407.8,304.4,407.7,304.4z"/>
			</g>
		</g>
		
			<path fill-rule="evenodd" clip-rule="evenodd" fill="none" stroke="#F1F1F2" stroke-width="0.5" stroke-linecap="round" stroke-linejoin="round" stroke-miterlimit="10" d="
			M414.2,306.3c0,0-6.9,54.3,1.2,83.4c8.1,29.1,8.1,56.7,1.1,92.7"/>
	</g>
</g>
</svg>
