<?xml version="1.0" encoding="utf-8"?>
<!-- Generator: Adobe Illustrator 18.0.0, SVG Export Plug-In . SVG Version: 6.00 Build 0)  -->
<!DOCTYPE svg PUBLIC "-//W3C//DTD SVG 1.1//EN" "http://www.w3.org/Graphics/SVG/1.1/DTD/svg11.dtd">
<svg version="1.1" id="Layer_1" xmlns="http://www.w3.org/2000/svg" xmlns:xlink="http://www.w3.org/1999/xlink" x="0px" y="0px"
	 viewBox="0 0 1280 720" enable-background="new 0 0 1280 720" xml:space="preserve">
<linearGradient id="SVGID_1_" gradientUnits="userSpaceOnUse" x1="866.9833" y1="239.5877" x2="850.2971" y2="202.1098">
	<stop  offset="0" style="stop-color:#F1F0ED;stop-opacity:0"/>
	<stop  offset="0.5277" style="stop-color:#F1F0ED;stop-opacity:0"/>
	<stop  offset="0.8053" style="stop-color:#F7F6EF;stop-opacity:0.3527"/>
	<stop  offset="1" style="stop-color:#FFFEF2;stop-opacity:0.6"/>
</linearGradient>
<polygon fill-rule="evenodd" clip-rule="evenodd" fill="url(#SVGID_1_)" points="836.2,208.4 840.6,210.6 884.2,188.8 909.6,212.4 
	840.6,251.3 810.8,236.3 827.5,218 "/>
<g>
	<defs>
		<polygon id="SVGID_2_" points="481.2,146.4 574.5,99.1 677.3,150.6 677.3,271.5 583.6,318.7 583.6,197.2 		"/>
	</defs>
	<clipPath id="SVGID_3_">
		<use xlink:href="#SVGID_2_"  overflow="visible"/>
	</clipPath>
	<g clip-path="url(#SVGID_3_)">
		<linearGradient id="SVGID_4_" gradientUnits="userSpaceOnUse" x1="623.7267" y1="211.0781" x2="607.0405" y2="173.6002">
			<stop  offset="0" style="stop-color:#F1F0ED;stop-opacity:0"/>
			<stop  offset="0.5277" style="stop-color:#F1F0ED;stop-opacity:0"/>
			<stop  offset="0.8053" style="stop-color:#F7F6EF;stop-opacity:0.3527"/>
			<stop  offset="1" style="stop-color:#FFFEF2;stop-opacity:0.6"/>
		</linearGradient>
		<polygon fill-rule="evenodd" clip-rule="evenodd" fill="url(#SVGID_4_)" points="592.9,179.9 597.3,182.1 641,160.3 666.3,183.9 
			597.3,222.8 567.6,207.8 584.2,189.4 		"/>
		<linearGradient id="SVGID_5_" gradientUnits="userSpaceOnUse" x1="576.3279" y1="187.6048" x2="559.6416" y2="150.1269">
			<stop  offset="0" style="stop-color:#F1F0ED;stop-opacity:0"/>
			<stop  offset="0.5277" style="stop-color:#F1F0ED;stop-opacity:0"/>
			<stop  offset="0.8053" style="stop-color:#F7F6EF;stop-opacity:0.3527"/>
			<stop  offset="1" style="stop-color:#FFFEF2;stop-opacity:0.6"/>
		</linearGradient>
		<polygon fill-rule="evenodd" clip-rule="evenodd" fill="url(#SVGID_5_)" points="545.5,156.4 549.9,158.6 593.6,136.8 
			618.9,160.5 549.9,199.4 520.2,184.3 536.8,166 		"/>
	</g>
</g>
<g>
	<defs>
		<polygon id="SVGID_6_" points="579.8,96.9 673.5,50.2 767.8,98 767.8,217.9 682.1,268.7 682.3,147.8 		"/>
	</defs>
	<clipPath id="SVGID_7_">
		<use xlink:href="#SVGID_6_"  overflow="visible"/>
	</clipPath>
	<g clip-path="url(#SVGID_7_)">
		<linearGradient id="SVGID_8_" gradientUnits="userSpaceOnUse" x1="716.8064" y1="164.4426" x2="700.1202" y2="126.9647">
			<stop  offset="0" style="stop-color:#F0EFEC;stop-opacity:0"/>
			<stop  offset="0.5277" style="stop-color:#F1F0ED;stop-opacity:0"/>
			<stop  offset="0.8053" style="stop-color:#F7F6EF;stop-opacity:0.3527"/>
			<stop  offset="1" style="stop-color:#FFFEF2;stop-opacity:0.6"/>
		</linearGradient>
		<polygon fill-rule="evenodd" clip-rule="evenodd" fill="url(#SVGID_8_)" points="686,133.3 690.4,135.5 734,113.6 759.4,137.3 
			690.4,176.2 660.7,161.1 677.3,142.8 		"/>
		<linearGradient id="SVGID_9_" gradientUnits="userSpaceOnUse" x1="669.9962" y1="140.676" x2="653.3099" y2="103.1981">
			<stop  offset="0" style="stop-color:#F0EFEC;stop-opacity:0"/>
			<stop  offset="0.5277" style="stop-color:#F1F0ED;stop-opacity:0"/>
			<stop  offset="0.8053" style="stop-color:#F7F6EF;stop-opacity:0.3527"/>
			<stop  offset="1" style="stop-color:#FFFEF2;stop-opacity:0.6"/>
		</linearGradient>
		<polygon fill-rule="evenodd" clip-rule="evenodd" fill="url(#SVGID_9_)" points="639.2,109.5 643.6,111.7 687.2,89.9 712.6,113.5 
			643.6,152.4 613.9,137.4 630.5,119 		"/>
	</g>
</g>
<g>
	<linearGradient id="SVGID_10_" gradientUnits="userSpaceOnUse" x1="464.3703" y1="243.4778" x2="447.6841" y2="205.9999">
		<stop  offset="0" style="stop-color:#F0EFEC;stop-opacity:0"/>
		<stop  offset="0.5277" style="stop-color:#F1F0ED;stop-opacity:0"/>
		<stop  offset="0.8053" style="stop-color:#F7F6EF;stop-opacity:0.3527"/>
		<stop  offset="1" style="stop-color:#FFFEF2;stop-opacity:0.6"/>
	</linearGradient>
	<polygon fill-rule="evenodd" clip-rule="evenodd" fill="url(#SVGID_10_)" points="433.6,212.3 438,214.5 481.6,192.7 507,216.3 
		438,255.2 408.2,240.2 424.9,221.8 	"/>
	<linearGradient id="SVGID_11_" gradientUnits="userSpaceOnUse" x1="511.5807" y1="267.058" x2="494.8945" y2="229.5801">
		<stop  offset="0" style="stop-color:#F1F0ED;stop-opacity:0"/>
		<stop  offset="0.5277" style="stop-color:#F1F0ED;stop-opacity:0"/>
		<stop  offset="0.8053" style="stop-color:#F7F6EF;stop-opacity:0.3527"/>
		<stop  offset="1" style="stop-color:#FFFEF2;stop-opacity:0.6"/>
	</linearGradient>
	<polygon fill-rule="evenodd" clip-rule="evenodd" fill="url(#SVGID_11_)" points="480.8,235.9 485.2,238.1 528.8,216.2 
		554.2,239.9 485.2,278.8 455.4,263.8 472.1,245.4 	"/>
</g>
<g>
	<linearGradient id="SVGID_12_" gradientUnits="userSpaceOnUse" x1="632.3259" y1="327.9171" x2="615.6396" y2="290.4392">
		<stop  offset="0" style="stop-color:#F3EDC7;stop-opacity:0"/>
		<stop  offset="0.5277" style="stop-color:#F0F0F0;stop-opacity:0"/>
		<stop  offset="0.79" style="stop-color:#F6F6F6;stop-opacity:0.3333"/>
		<stop  offset="1" style="stop-color:#FFFFFF;stop-opacity:0.6"/>
	</linearGradient>
	<polygon fill-rule="evenodd" clip-rule="evenodd" fill="url(#SVGID_12_)" points="601.5,296.7 605.9,298.9 649.6,277.1 
		674.9,300.8 605.9,339.7 576.2,324.6 592.8,306.3 	"/>
	<linearGradient id="SVGID_13_" gradientUnits="userSpaceOnUse" x1="679.5363" y1="351.4973" x2="662.8501" y2="314.0194">
		<stop  offset="0" style="stop-color:#F3EDC7;stop-opacity:0"/>
		<stop  offset="0.5277" style="stop-color:#F0F0F0;stop-opacity:0"/>
		<stop  offset="0.79" style="stop-color:#F6F6F6;stop-opacity:0.3333"/>
		<stop  offset="1" style="stop-color:#FFFFFF;stop-opacity:0.6"/>
	</linearGradient>
	<polygon fill-rule="evenodd" clip-rule="evenodd" fill="url(#SVGID_13_)" points="648.7,320.3 653.1,322.5 696.8,300.7 
		722.1,324.3 653.1,363.3 623.4,348.2 640,329.9 	"/>
</g>
</svg>
