<?xml version="1.0" encoding="utf-8"?>
<!-- Generator: Adobe Illustrator 18.0.0, SVG Export Plug-In . SVG Version: 6.00 Build 0)  -->
<!DOCTYPE svg PUBLIC "-//W3C//DTD SVG 1.1//EN" "http://www.w3.org/Graphics/SVG/1.1/DTD/svg11.dtd">
<svg version="1.1" id="Layer_1" xmlns="http://www.w3.org/2000/svg" xmlns:xlink="http://www.w3.org/1999/xlink" x="0px" y="0px"
	 viewBox="0 0 1280 720" enable-background="new 0 0 1280 720" xml:space="preserve">
<g>
	<g>
		
			<image overflow="visible" opacity="0.22" width="61" height="39" xlink:href="51882BF5C2FE90B5.png"  transform="matrix(1 0 0 1 830 178)">
		</image>
		<g>
			<g>
				<polygon fill-rule="evenodd" clip-rule="evenodd" fill="#FCFCFC" points="840.6,210.4 836.2,208.2 879.8,186.4 884.2,188.5 				
					"/>
				<polygon fill-rule="evenodd" clip-rule="evenodd" fill="#FCFCFC" points="840.6,208.7 836.2,206.5 879.8,184.7 884.2,186.9 				
					"/>
				
					<rect x="861" y="172.5" transform="matrix(0.4467 0.8947 -0.8947 0.4467 653.1022 -662.234)" fill-rule="evenodd" clip-rule="evenodd" fill="#434244" width="2" height="48.8"/>
				<polygon fill-rule="evenodd" clip-rule="evenodd" fill="#505051" points="839.7,206.9 836.2,206.5 879.8,184.7 883.3,185.1 				
					"/>
				<polygon fill-rule="evenodd" clip-rule="evenodd" fill="#A6A8AA" points="840.6,208.7 840.6,210.4 836.2,208.2 836.2,206.5 				
					"/>
				<polygon fill-rule="evenodd" clip-rule="evenodd" fill="#D0D1D3" points="884.2,186.9 884.2,188.5 840.6,210.4 840.6,208.7 				
					"/>
				<polygon fill-rule="evenodd" clip-rule="evenodd" fill="#59595B" points="840.6,208.7 839.7,206.9 836.2,206.5 				"/>
			</g>
		</g>
	</g>
	
		<line fill-rule="evenodd" clip-rule="evenodd" fill="none" stroke="#F1F1F2" stroke-width="0.5" stroke-miterlimit="10" x1="848.3" y1="202.6" x2="848.3" y2="173.2"/>
	
		<line fill-rule="evenodd" clip-rule="evenodd" fill="none" stroke="#F1F1F2" stroke-width="0.5" stroke-miterlimit="10" x1="871.9" y1="191.1" x2="871.9" y2="161.7"/>
</g>
<g>
	<g>
		<g>
			
				<image overflow="visible" opacity="0.22" width="62" height="39" xlink:href="51882BF5C2FE90B7.png"  transform="matrix(1 0 0 1 679 103)">
			</image>
			<g>
				<g>
					<polygon fill-rule="evenodd" clip-rule="evenodd" fill="#FCFCFC" points="690.4,135.5 686,133.3 729.6,111.4 734,113.6 					
						"/>
					<polygon fill-rule="evenodd" clip-rule="evenodd" fill="#FCFCFC" points="690.4,133.8 686,131.6 729.6,109.8 734,111.9 					
						"/>
					
						<rect x="710.8" y="97.6" transform="matrix(0.4467 0.8947 -0.8947 0.4467 502.9761 -569.3258)" fill-rule="evenodd" clip-rule="evenodd" fill="#434244" width="2" height="48.8"/>
					<polygon fill-rule="evenodd" clip-rule="evenodd" fill="#505051" points="689.5,132 686,131.6 729.6,109.7 733.2,110.2 					
						"/>
					<polygon fill-rule="evenodd" clip-rule="evenodd" fill="#A6A8AA" points="690.4,133.8 690.4,135.5 686,133.3 686,131.6 					
						"/>
					<polygon fill-rule="evenodd" clip-rule="evenodd" fill="#D0D1D3" points="734,111.9 734,113.6 690.4,135.5 690.4,133.8 					
						"/>
					<polygon fill-rule="evenodd" clip-rule="evenodd" fill="#59595B" points="690.4,133.8 689.5,132 686,131.6 					"/>
				</g>
			</g>
		</g>
		
			<line fill-rule="evenodd" clip-rule="evenodd" fill="none" stroke="#F1F1F2" stroke-width="0.5" stroke-miterlimit="10" x1="698.2" y1="127.7" x2="698.2" y2="98.3"/>
		
			<line fill-rule="evenodd" clip-rule="evenodd" fill="none" stroke="#F1F1F2" stroke-width="0.5" stroke-miterlimit="10" x1="721.7" y1="116.2" x2="721.7" y2="86.8"/>
	</g>
	<g>
		<g>
			
				<image overflow="visible" opacity="0.22" width="61" height="39" xlink:href="51882BF5C2FE90B2.png"  transform="matrix(1 0 0 1 633 79)">
			</image>
			<g>
				<g>
					<polygon fill-rule="evenodd" clip-rule="evenodd" fill="#FCFCFC" points="643.6,111.7 639.2,109.5 682.8,87.7 687.2,89.9 					
						"/>
					<polygon fill-rule="evenodd" clip-rule="evenodd" fill="#FCFCFC" points="643.6,110 639.2,107.8 682.8,86 687.2,88.2 					"/>
					
						<rect x="664" y="73.8" transform="matrix(0.4467 0.8947 -0.8947 0.4467 455.8111 -540.5955)" fill-rule="evenodd" clip-rule="evenodd" fill="#434244" width="2" height="48.8"/>
					<polygon fill-rule="evenodd" clip-rule="evenodd" fill="#505051" points="642.7,108.2 639.2,107.8 682.8,86 686.3,86.4 					
						"/>
					<polygon fill-rule="evenodd" clip-rule="evenodd" fill="#A6A8AA" points="643.6,110 643.6,111.7 639.2,109.5 639.2,107.8 					
						"/>
					<polygon fill-rule="evenodd" clip-rule="evenodd" fill="#D0D1D3" points="687.2,88.2 687.2,89.9 643.6,111.7 643.6,110 					
						"/>
					<polygon fill-rule="evenodd" clip-rule="evenodd" fill="#59595B" points="643.6,110 642.7,108.2 639.2,107.8 					"/>
				</g>
			</g>
		</g>
		
			<line fill-rule="evenodd" clip-rule="evenodd" fill="none" stroke="#F1F1F2" stroke-width="0.5" stroke-miterlimit="10" x1="651.3" y1="103.9" x2="651.3" y2="74.5"/>
		
			<line fill-rule="evenodd" clip-rule="evenodd" fill="none" stroke="#F1F1F2" stroke-width="0.5" stroke-miterlimit="10" x1="674.9" y1="92.4" x2="674.9" y2="63"/>
	</g>
</g>
<g>
	<g>
		
			<image overflow="visible" opacity="0.22" width="61" height="39" xlink:href="51882BF5C2FE90B3.png"  transform="matrix(1 0 0 1 427 182)">
		</image>
		<g>
			<g>
				<polygon fill-rule="evenodd" clip-rule="evenodd" fill="#FCFCFC" points="438,214.5 433.6,212.3 477.2,190.5 481.6,192.7 				
					"/>
				<polygon fill-rule="evenodd" clip-rule="evenodd" fill="#FCFCFC" points="438,212.8 433.6,210.6 477.2,188.8 481.6,191 				"/>
				
					<rect x="458.4" y="176.6" transform="matrix(0.4467 0.8947 -0.8947 0.4467 434.0098 -299.7404)" fill-rule="evenodd" clip-rule="evenodd" fill="#434244" width="2" height="48.8"/>
				<polygon fill-rule="evenodd" clip-rule="evenodd" fill="#505051" points="437.1,211 433.6,210.6 477.2,188.8 480.7,189.2 				
					"/>
				<polygon fill-rule="evenodd" clip-rule="evenodd" fill="#A6A8AA" points="438,212.8 438,214.5 433.6,212.3 433.6,210.6 				"/>
				<polygon fill-rule="evenodd" clip-rule="evenodd" fill="#D0D1D3" points="481.6,191 481.6,192.7 438,214.5 438,212.8 				"/>
				<polygon fill-rule="evenodd" clip-rule="evenodd" fill="#59595B" points="438,212.8 437.1,211 433.6,210.6 				"/>
			</g>
		</g>
	</g>
	
		<line fill-rule="evenodd" clip-rule="evenodd" fill="none" stroke="#F1F1F2" stroke-width="0.5" stroke-miterlimit="10" x1="445.7" y1="206.7" x2="445.7" y2="177.3"/>
	
		<line fill-rule="evenodd" clip-rule="evenodd" fill="none" stroke="#F1F1F2" stroke-width="0.5" stroke-miterlimit="10" x1="469.3" y1="195.2" x2="469.3" y2="165.8"/>
	<g>
		
			<image overflow="visible" opacity="0.22" width="61" height="39" xlink:href="51882BF5C2FE90BD.png"  transform="matrix(1 0 0 1 474 206)">
		</image>
		<g>
			<g>
				<polygon fill-rule="evenodd" clip-rule="evenodd" fill="#FCFCFC" points="485.2,238.1 480.8,235.9 524.4,214 528.8,216.2 				
					"/>
				<polygon fill-rule="evenodd" clip-rule="evenodd" fill="#FCFCFC" points="485.2,236.4 480.8,234.2 524.4,212.4 528.8,214.6 				
					"/>
				
					<rect x="505.6" y="200.2" transform="matrix(0.4467 0.8947 -0.8947 0.4467 481.2296 -328.9319)" fill-rule="evenodd" clip-rule="evenodd" fill="#434244" width="2" height="48.8"/>
				<polygon fill-rule="evenodd" clip-rule="evenodd" fill="#505051" points="484.3,234.6 480.8,234.2 524.4,212.4 527.9,212.8 				
					"/>
				<polygon fill-rule="evenodd" clip-rule="evenodd" fill="#A6A8AA" points="485.2,236.4 485.2,238.1 480.8,235.9 480.8,234.2 				
					"/>
				<polygon fill-rule="evenodd" clip-rule="evenodd" fill="#D0D1D3" points="528.8,214.6 528.8,216.2 485.2,238.1 485.2,236.4 				
					"/>
				<polygon fill-rule="evenodd" clip-rule="evenodd" fill="#59595B" points="485.2,236.4 484.3,234.6 480.8,234.2 				"/>
			</g>
		</g>
	</g>
	
		<line fill-rule="evenodd" clip-rule="evenodd" fill="none" stroke="#F1F1F2" stroke-width="0.5" stroke-miterlimit="10" x1="492.9" y1="230.3" x2="492.9" y2="200.9"/>
	
		<line fill-rule="evenodd" clip-rule="evenodd" fill="none" stroke="#F1F1F2" stroke-width="0.5" stroke-miterlimit="10" x1="516.5" y1="218.8" x2="516.5" y2="189.4"/>
</g>
<g>
	<g>
		
			<image overflow="visible" opacity="0.22" width="61" height="38" xlink:href="51882BF5C2FE90BF.png"  transform="matrix(1 0 0 1 595 267)">
		</image>
		<g>
			<g>
				<polygon fill-rule="evenodd" clip-rule="evenodd" fill="#FCFCFC" points="605.9,298.9 601.5,296.7 645.2,274.9 649.6,277.1 				
					"/>
				<polygon fill-rule="evenodd" clip-rule="evenodd" fill="#FCFCFC" points="605.9,297.2 601.5,295 645.2,273.2 649.6,275.4 				
					"/>
				
					<rect x="626.3" y="261.1" transform="matrix(0.4467 0.8947 -0.8947 0.4467 602.491 -403.2872)" fill-rule="evenodd" clip-rule="evenodd" fill="#434244" width="2" height="48.8"/>
				<polygon fill-rule="evenodd" clip-rule="evenodd" fill="#505051" points="605,295.5 601.5,295 645.2,273.2 648.7,273.7 				"/>
				<polygon fill-rule="evenodd" clip-rule="evenodd" fill="#A6A8AA" points="605.9,297.2 605.9,298.9 601.5,296.7 601.5,295 				
					"/>
				<polygon fill-rule="evenodd" clip-rule="evenodd" fill="#D0D1D3" points="649.6,275.4 649.6,277.1 605.9,298.9 605.9,297.2 				
					"/>
				<polygon fill-rule="evenodd" clip-rule="evenodd" fill="#59595B" points="605.9,297.2 605,295.5 601.5,295 				"/>
			</g>
		</g>
	</g>
	
		<line fill-rule="evenodd" clip-rule="evenodd" fill="none" stroke="#F1F1F2" stroke-width="0.5" stroke-miterlimit="10" x1="613.7" y1="291.2" x2="613.7" y2="261.7"/>
	
		<line fill-rule="evenodd" clip-rule="evenodd" fill="none" stroke="#F1F1F2" stroke-width="0.5" stroke-miterlimit="10" x1="637.2" y1="279.7" x2="637.2" y2="250.2"/>
	<g>
		
			<image overflow="visible" opacity="0.22" width="61" height="39" xlink:href="51882BF5C2FE90B0.png"  transform="matrix(1 0 0 1 642 290)">
		</image>
		<g>
			<g>
				<polygon fill-rule="evenodd" clip-rule="evenodd" fill="#FCFCFC" points="653.1,322.5 648.7,320.3 692.4,298.5 696.8,300.7 				
					"/>
				<polygon fill-rule="evenodd" clip-rule="evenodd" fill="#FCFCFC" points="653.1,320.8 648.7,318.6 692.4,296.8 696.8,299 				
					"/>
				
					<rect x="673.5" y="284.6" transform="matrix(0.4467 0.8947 -0.8947 0.4467 649.7108 -432.4787)" fill-rule="evenodd" clip-rule="evenodd" fill="#434244" width="2" height="48.8"/>
				<polygon fill-rule="evenodd" clip-rule="evenodd" fill="#505051" points="652.2,319.1 648.7,318.6 692.4,296.8 695.9,297.2 				
					"/>
				<polygon fill-rule="evenodd" clip-rule="evenodd" fill="#A6A8AA" points="653.1,320.8 653.1,322.5 648.7,320.3 648.7,318.6 				
					"/>
				<polygon fill-rule="evenodd" clip-rule="evenodd" fill="#D0D1D3" points="696.8,299 696.8,300.7 653.1,322.5 653.1,320.8 				
					"/>
				<polygon fill-rule="evenodd" clip-rule="evenodd" fill="#59595B" points="653.1,320.8 652.2,319.1 648.7,318.6 				"/>
			</g>
		</g>
	</g>
	
		<line fill-rule="evenodd" clip-rule="evenodd" fill="none" stroke="#F1F1F2" stroke-width="0.5" stroke-miterlimit="10" x1="660.9" y1="314.7" x2="660.9" y2="285.3"/>
	
		<line fill-rule="evenodd" clip-rule="evenodd" fill="none" stroke="#F1F1F2" stroke-width="0.5" stroke-miterlimit="10" x1="684.4" y1="303.2" x2="684.4" y2="273.8"/>
</g>
<g>
	<g>
		<g>
			
				<image overflow="visible" opacity="0.22" width="61" height="39" xlink:href="51882BF5C2FE90B1.png"  transform="matrix(1 0 0 1 586 150)">
			</image>
			<g>
				<g>
					<polygon fill-rule="evenodd" clip-rule="evenodd" fill="#FCFCFC" points="597.3,182.1 592.9,179.9 636.6,158.1 641,160.3 					
						"/>
					<polygon fill-rule="evenodd" clip-rule="evenodd" fill="#FCFCFC" points="597.3,180.4 592.9,178.2 636.6,156.4 641,158.6 					
						"/>
					
						<rect x="617.7" y="144.2" transform="matrix(0.4467 0.8947 -0.8947 0.4467 493.1976 -460.2434)" fill-rule="evenodd" clip-rule="evenodd" fill="#434244" width="2" height="48.8"/>
					<polygon fill-rule="evenodd" clip-rule="evenodd" fill="#505051" points="596.4,178.6 592.9,178.2 636.6,156.4 640.1,156.8 
											"/>
					<polygon fill-rule="evenodd" clip-rule="evenodd" fill="#A6A8AA" points="597.3,180.4 597.3,182.1 592.9,179.9 592.9,178.2 
											"/>
					<polygon fill-rule="evenodd" clip-rule="evenodd" fill="#D0D1D3" points="641,158.6 641,160.3 597.3,182.1 597.3,180.4 					
						"/>
					<polygon fill-rule="evenodd" clip-rule="evenodd" fill="#59595B" points="597.3,180.4 596.4,178.6 592.9,178.2 					"/>
				</g>
			</g>
		</g>
		
			<line fill-rule="evenodd" clip-rule="evenodd" fill="none" stroke="#F1F1F2" stroke-width="0.5" stroke-miterlimit="10" x1="605.1" y1="174.3" x2="605.1" y2="144.9"/>
		
			<line fill-rule="evenodd" clip-rule="evenodd" fill="none" stroke="#F1F1F2" stroke-width="0.5" stroke-miterlimit="10" x1="628.6" y1="162.8" x2="628.6" y2="133.4"/>
	</g>
	<g>
		<g>
			
				<image overflow="visible" opacity="0.22" width="61" height="39" xlink:href="51882BF5C2FE90B6.png"  transform="matrix(1 0 0 1 539 126)">
			</image>
			<g>
				<g>
					<polygon fill-rule="evenodd" clip-rule="evenodd" fill="#FCFCFC" points="549.9,158.6 545.5,156.4 589.2,134.6 593.6,136.8 
											"/>
					<polygon fill-rule="evenodd" clip-rule="evenodd" fill="#FCFCFC" points="549.9,156.9 545.5,154.7 589.2,132.9 593.6,135.1 
											"/>
					
						<rect x="570.3" y="120.7" transform="matrix(0.4467 0.8947 -0.8947 0.4467 445.9692 -430.8241)" fill-rule="evenodd" clip-rule="evenodd" fill="#434244" width="2" height="48.8"/>
					<polygon fill-rule="evenodd" clip-rule="evenodd" fill="#505051" points="549,155.2 545.5,154.7 589.2,132.9 592.7,133.4 					
						"/>
					<polygon fill-rule="evenodd" clip-rule="evenodd" fill="#A6A8AA" points="549.9,156.9 549.9,158.6 545.5,156.4 545.5,154.7 
											"/>
					<polygon fill-rule="evenodd" clip-rule="evenodd" fill="#D0D1D3" points="593.6,135.1 593.6,136.8 549.9,158.6 549.9,156.9 
											"/>
					<polygon fill-rule="evenodd" clip-rule="evenodd" fill="#59595B" points="549.9,156.9 549,155.2 545.5,154.7 					"/>
				</g>
			</g>
		</g>
		
			<line fill-rule="evenodd" clip-rule="evenodd" fill="none" stroke="#F1F1F2" stroke-width="0.5" stroke-miterlimit="10" x1="557.7" y1="150.9" x2="557.7" y2="121.4"/>
		
			<line fill-rule="evenodd" clip-rule="evenodd" fill="none" stroke="#F1F1F2" stroke-width="0.5" stroke-miterlimit="10" x1="581.2" y1="139.4" x2="581.2" y2="109.9"/>
	</g>
</g>
</svg>
