<?xml version="1.0" encoding="utf-8"?>
<!-- Generator: Adobe Illustrator 18.0.0, SVG Export Plug-In . SVG Version: 6.00 Build 0)  -->
<!DOCTYPE svg PUBLIC "-//W3C//DTD SVG 1.1//EN" "http://www.w3.org/Graphics/SVG/1.1/DTD/svg11.dtd">
<svg version="1.1" id="Layer_1" xmlns="http://www.w3.org/2000/svg" xmlns:xlink="http://www.w3.org/1999/xlink" x="0px" y="0px"
	 viewBox="0 0 1280 720" enable-background="new 0 0 1280 720" xml:space="preserve">
<polygon opacity="0.3" fill-rule="evenodd" clip-rule="evenodd" fill="#FFFDE9" points="673.5,148.7 673.5,50.1 575,99.3 "/>
<path opacity="0.2" fill-rule="evenodd" clip-rule="evenodd" fill="#FFFDE9" d="M441.8,262.5l24.9-12.6v-0.3
	c0.2-0.1,0.4-0.2,0.6-0.3c-0.1-0.1-0.2-0.1-0.4-0.2v-0.4c0.1-0.1,0.2-0.1,0.3-0.2c0,0,0,0,0,0v-0.4c4.9-2.5,3.6-1.8,8.5-4.3l0.2,0.1
	v-95.3l-137.8,68.9l103.7,52.1L441.8,262.5z"/>
<path opacity="0.3" fill-rule="evenodd" clip-rule="evenodd" fill="#FFFDE9" d="M867.2,147.1l-193.7-97v93.4l8.8,4.4v0l0,0v16.6
	c2.1-1.1,4.2-2.1,6.3-3.2c0,0,0,0,0.1,0c0,0,0.1,0,0.1,0c0,0,0.1,0,0.1,0c0,0,0.1,0,0.1,0c0,0,0.1,0,0.1,0c0,0,0.1,0,0.1,0
	c0,0,0,0,0.1,0c0,0,0,0,0.1,0c0,0,0,0,0.1,0c0,0,0,0,0.1,0c0.1,0.1,0.1,0.1,0.2,0.2c0.1,0.1,0.1,0.1,0.2,0.2
	c0.1,0.1,0.1,0.1,0.2,0.2c0.1,0.1,0.1,0.1,0.2,0.2c0.1,0.1,0.1,0.1,0.2,0.2c0.5,0.5,0.6,0.9,0.5,1.6c0,0.2,0,0.4-0.1,0.6
	c0,0.2-0.1,0.4-0.1,0.6c0,0.2-0.1,0.5-0.1,0.7c0,0.2-0.1,0.5-0.1,0.7c-0.1,0.2-0.1,0.5-0.2,0.7c-0.1,0.3-0.1,0.5-0.2,0.8
	c-0.1,0.3-0.1,0.5-0.2,0.8c-0.1,0.3-0.1,0.5-0.2,0.8c-0.1,0.3-0.2,0.6-0.2,0.8c-0.1,0.3-0.2,0.6-0.2,0.9c-0.1,0.3-0.2,0.6-0.3,0.9
	c-0.1,0.3-0.2,0.6-0.3,0.9c-0.1,0.3-0.2,0.6-0.3,0.9c-0.1,0.3-0.2,0.6-0.3,0.9c-0.1,0.3-0.2,0.6-0.3,0.9c-0.1,0.3-0.2,0.6-0.3,0.9
	c-0.1,0.3-0.2,0.6-0.3,0.9c0,0.1,0,0.1-0.1,0.2l52.3,26.2l42.3,21.1v-27.7l25-12.5v-47l30.9,15.5v8.8L867.2,147.1z M798.8,188
	l-30.9-15.5v-54.3l30.9,15.5V188z"/>
</svg>
