<?xml version="1.0" encoding="utf-8"?>
<!-- Generator: Adobe Illustrator 18.0.0, SVG Export Plug-In . SVG Version: 6.00 Build 0)  -->
<!DOCTYPE svg PUBLIC "-//W3C//DTD SVG 1.1//EN" "http://www.w3.org/Graphics/SVG/1.1/DTD/svg11.dtd">
<svg version="1.1" id="Layer_1" xmlns="http://www.w3.org/2000/svg" xmlns:xlink="http://www.w3.org/1999/xlink" x="0px" y="0px"
	 viewBox="0 0 50 50" enable-background="new 0 0 50 50" xml:space="preserve">
<g>
	<circle fill="#FFFFFF" cx="25.8" cy="9.5" r="2.3"/>
	<path fill="#FFFFFF" d="M23.8,30.3l0.5-2.7l3,2.8l1.4,5.9c0.1,0.6,0.7,1,1.2,1c0.1,0,0.2,0,0.3,0c0.7-0.2,1.1-0.9,0.9-1.5l-1.5-6.3
		c-0.1-0.2-0.2-0.5-0.4-0.6l-4.5-4.1l1.3-7l2.5,3.7c0.4,0.6,1.2,0.7,1.8,0.4l3.1-2c0.6-0.4,0.8-1.2,0.4-1.8
		c-0.4-0.6-1.2-0.8-1.8-0.4L30,18.9l-3.3-5c-0.4-0.6-1.2-0.7-1.8-0.4l-5.8,3.8c-0.3,0.2-0.4,0.4-0.5,0.7L17,23.2
		c-0.2,0.7,0.2,1.4,0.9,1.6c0.1,0,0.2,0.1,0.4,0.1c0.6,0,1.1-0.4,1.2-0.9l1.4-4.8l2.6-1.7l-2.3,12l-5.1,7.3
		c-0.4,0.6-0.3,1.4,0.3,1.8c0.2,0.2,0.5,0.2,0.7,0.2c0.4,0,0.8-0.2,1.1-0.5l5.2-7.5C23.6,30.6,23.7,30.4,23.8,30.3z"/>
	<path fill="#FFFFFF" d="M31.6,30.4c0.2,0.2,0.5,0.2,0.7,0.2c0.4,0,0.8-0.2,1.1-0.6c1.2-1.8,1.9-3.9,1.9-6c0-0.4,0-0.8-0.1-1.1
		c-0.1-0.7-0.7-1.2-1.4-1.1c-0.7,0.1-1.2,0.7-1.1,1.4c0,0.3,0,0.6,0,0.9c0,1.6-0.5,3.2-1.4,4.6C30.9,29.2,31.1,30,31.6,30.4z"/>
	<path fill="#FFFFFF" d="M32.2,9.3c-0.6-0.3-1.4-0.1-1.7,0.5c-0.3,0.6-0.1,1.4,0.5,1.7c4.7,2.4,7.6,7.2,7.6,12.5
		c0,3.5-1.3,6.9-3.7,9.5c-0.5,0.5-0.4,1.3,0.1,1.8c0.2,0.2,0.6,0.3,0.9,0.3c0.3,0,0.7-0.1,0.9-0.4c2.8-3.1,4.4-7.1,4.4-11.3
		C41.2,17.8,37.8,12.1,32.2,9.3z"/>
	<path fill="#FFFFFF" d="M34.3,3.7c-0.6-0.3-1.4,0-1.7,0.6c-0.3,0.6,0,1.4,0.6,1.7c6.9,3.3,11.4,10.3,11.4,18c0,5-1.9,9.8-5.3,13.5
		c-0.5,0.5-0.4,1.3,0.1,1.8c0.2,0.2,0.6,0.3,0.9,0.3c0.3,0,0.7-0.1,0.9-0.4c3.8-4.2,5.9-9.6,5.9-15.2C47.1,15.4,42,7.4,34.3,3.7z"/>
	<path fill="#FFFFFF" d="M17.4,30.6c0.3,0,0.7-0.1,0.9-0.4c0.5-0.5,0.5-1.3,0-1.8L5.1,15.2c-0.5-0.5-1.3-0.5-1.8,0
		c-0.5,0.5-0.5,1.3,0,1.8l13.2,13.2C16.7,30.5,17.1,30.6,17.4,30.6z"/>
	<path fill="#FFFFFF" d="M25,35.1c-0.5-0.5-1.3-0.5-1.8,0c-0.5,0.5-0.5,1.3,0,1.8l9.1,9.1c0.3,0.3,0.6,0.4,0.9,0.4
		c0.3,0,0.7-0.1,0.9-0.4c0.5-0.5,0.5-1.3,0-1.8L25,35.1z"/>
</g>
</svg>
