<?xml version="1.0" encoding="utf-8"?>
<!-- Generator: Adobe Illustrator 18.0.0, SVG Export Plug-In . SVG Version: 6.00 Build 0)  -->
<!DOCTYPE svg PUBLIC "-//W3C//DTD SVG 1.1//EN" "http://www.w3.org/Graphics/SVG/1.1/DTD/svg11.dtd">
<svg version="1.1" id="Layer_1" xmlns="http://www.w3.org/2000/svg" xmlns:xlink="http://www.w3.org/1999/xlink" x="0px" y="0px"
	 viewBox="0 0 50 50" enable-background="new 0 0 50 50" xml:space="preserve">
<g>
	<path fill="#FFFFFF" d="M31.4,28.5H17c-0.6,0-1-0.4-1.2-0.9c-0.1-0.5,0.2-1.1,0.7-1.3l14.4-6.5c0.4-0.2,0.8-0.1,1.1,0.1
		c0.3,0.2,0.5,0.6,0.5,1v6.5C32.6,28,32,28.5,31.4,28.5z M22.5,26.1h7.6v-3.5L22.5,26.1z"/>
	<polygon fill="#FFFFFF" points="17.3,27.3 26.3,23.8 26.3,27.4 	"/>
	<path fill="#FFFFFF" d="M37.4,45H12.6c-0.8,0-1.5-0.7-1.5-1.5v-37c0-0.8,0.7-1.5,1.5-1.5h24.8c0.8,0,1.5,0.7,1.5,1.5v37
		C38.9,44.3,38.2,45,37.4,45z M14.1,42h21.8V8H14.1V42z"/>
	<rect x="12.8" y="38.8" fill="#FFFFFF" width="23.7" height="4.8"/>
	<path fill="#FFFFFF" d="M36.3,9.6H12.6c-0.8,0-1.5-0.7-1.5-1.5c0-0.8,0.7-1.5,1.5-1.5h23.7c0.8,0,1.5,0.7,1.5,1.5
		C37.8,9,37.1,9.6,36.3,9.6z"/>
	<circle fill="#FFFFFF" cx="25.7" cy="41.9" r="1.1"/>
</g>
</svg>
