<?xml version="1.0" encoding="utf-8"?>
<!-- Generator: Adobe Illustrator 18.0.0, SVG Export Plug-In . SVG Version: 6.00 Build 0)  -->
<!DOCTYPE svg PUBLIC "-//W3C//DTD SVG 1.1//EN" "http://www.w3.org/Graphics/SVG/1.1/DTD/svg11.dtd">
<svg version="1.1" id="Layer_1" xmlns="http://www.w3.org/2000/svg" xmlns:xlink="http://www.w3.org/1999/xlink" x="0px" y="0px"
	 viewBox="0 0 1280 720" enable-background="new 0 0 1280 720" xml:space="preserve">
<g>
	<defs>
		<rect id="SVGID_1_" width="1280" height="720"/>
	</defs>
	<clipPath id="SVGID_2_">
		<use xlink:href="#SVGID_1_"  overflow="visible"/>
	</clipPath>
	<g clip-path="url(#SVGID_2_)">
		
			<image overflow="visible" opacity="0.5" width="398" height="717" xlink:href="1C23697371988845.png"  transform="matrix(1 0 0 1 441 255)">
		</image>
		<g>
			<g>
				<g>
					<g>
						<g>
							<g>
								<defs>
									<rect id="SVGID_3_" x="544.5" y="451.2" width="24.6" height="24.6"/>
								</defs>
								<clipPath id="SVGID_4_">
									<use xlink:href="#SVGID_3_"  overflow="visible"/>
								</clipPath>
							</g>
						</g>
						<g>
							<defs>
								<path id="SVGID_5_" d="M737.3,499H546c-2.3,0-4.2-1.9-4.2-4.2v-1.1c0-2.3,1.9-4.2,4.2-4.2h191.3c2.3,0,4.2,1.9,4.2,4.2v1.1
									C741.5,497.2,739.6,499,737.3,499z"/>
							</defs>
							<clipPath id="SVGID_6_">
								<use xlink:href="#SVGID_5_"  overflow="visible"/>
							</clipPath>
						</g>
						<g>
							<g>
								<defs>
									<rect id="SVGID_7_" x="576.8" y="483.4" width="24.2" height="24.2"/>
								</defs>
								<clipPath id="SVGID_8_">
									<use xlink:href="#SVGID_7_"  overflow="visible"/>
								</clipPath>
							</g>
						</g>
					</g>
					<g>
						<g>
							<g>
								<defs>
									<rect id="SVGID_9_" x="544.5" y="535.7" width="24.6" height="24.6"/>
								</defs>
								<clipPath id="SVGID_10_">
									<use xlink:href="#SVGID_9_"  overflow="visible"/>
								</clipPath>
							</g>
						</g>
						<g>
							<defs>
								<path id="SVGID_11_" d="M737.3,583.6H546c-2.3,0-4.2-1.9-4.2-4.2v-1.1c0-2.3,1.9-4.2,4.2-4.2h191.3c2.3,0,4.2,1.9,4.2,4.2
									v1.1C741.5,581.7,739.6,583.6,737.3,583.6z"/>
							</defs>
							<clipPath id="SVGID_12_">
								<use xlink:href="#SVGID_11_"  overflow="visible"/>
							</clipPath>
						</g>
						<g>
							<g>
								<defs>
									<rect id="SVGID_13_" x="629.3" y="567.9" width="24.2" height="24.2"/>
								</defs>
								<clipPath id="SVGID_14_">
									<use xlink:href="#SVGID_13_"  overflow="visible"/>
								</clipPath>
							</g>
						</g>
					</g>
					<g>
						<g>
							<defs>
								<rect id="SVGID_15_" x="544.5" y="620.2" width="24.6" height="24.6"/>
							</defs>
							<clipPath id="SVGID_16_">
								<use xlink:href="#SVGID_15_"  overflow="visible"/>
							</clipPath>
						</g>
					</g>
					<g>
						<defs>
							<path id="SVGID_17_" d="M737.3,668.1H546c-2.3,0-4.2-1.9-4.2-4.2v-1.1c0-2.3,1.9-4.2,4.2-4.2h191.3c2.3,0,4.2,1.9,4.2,4.2
								v1.1C741.5,666.2,739.6,668.1,737.3,668.1z"/>
						</defs>
						<clipPath id="SVGID_18_">
							<use xlink:href="#SVGID_17_"  overflow="visible"/>
						</clipPath>
					</g>
					<g>
						<g>
							<defs>
								<rect id="SVGID_19_" x="629.3" y="652.4" width="24.2" height="24.2"/>
							</defs>
							<clipPath id="SVGID_20_">
								<use xlink:href="#SVGID_19_"  overflow="visible"/>
							</clipPath>
						</g>
					</g>
					<g>
						<g>
							<g>
								<defs>
									<rect id="SVGID_21_" x="544.5" y="704.7" width="24.6" height="24.6"/>
								</defs>
								<clipPath id="SVGID_22_">
									<use xlink:href="#SVGID_21_"  overflow="visible"/>
								</clipPath>
							</g>
						</g>
					</g>
				</g>
			</g>
			<g>
				<g>
					<g>
						<linearGradient id="SVGID_24_" gradientUnits="userSpaceOnUse" x1="710.39" y1="315.2419" x2="710.39" y2="318.3096">
							<stop  offset="0" style="stop-color:#F1F1F1"/>
							<stop  offset="0.548" style="stop-color:#EBECEC"/>
							<stop  offset="0.7855" style="stop-color:#E7E8E8"/>
							<stop  offset="1" style="stop-color:#E3E3E3"/>
						</linearGradient>
						<path fill="url(#SVGID_24_)" d="M732.9,316.7v6.6c0,0.9-0.7,1.5-1.5,1.5h-41.9c-0.9,0-1.5-0.7-1.5-1.5v-6.6
							c0-0.9,0.7-1.5,1.5-1.5h41.9C732.2,315.1,732.9,315.8,732.9,316.7z"/>
					</g>
					<g>
						<linearGradient id="SVGID_26_" gradientUnits="userSpaceOnUse" x1="506.6862" y1="397.9817" x2="506.6862" y2="423.9099">
							<stop  offset="0" style="stop-color:#F1F1F1"/>
							<stop  offset="0.4891" style="stop-color:#EBECEC"/>
							<stop  offset="0.701" style="stop-color:#E7E8E8"/>
							<stop  offset="1" style="stop-color:#E3E3E3"/>
						</linearGradient>
						<path fill="url(#SVGID_26_)" d="M503.4,398h6.6c0.9,0,1.5,0.7,1.5,1.5v22.8c0,0.9-0.7,1.5-1.5,1.5h-6.6
							c-0.9,0-1.5-0.7-1.5-1.5v-22.8C501.8,398.7,502.5,398,503.4,398z"/>
					</g>
					<g>
						<linearGradient id="SVGID_27_" gradientUnits="userSpaceOnUse" x1="506.3778" y1="501.3857" x2="506.3778" y2="521.7673">
							<stop  offset="0" style="stop-color:#F1F1F1"/>
							<stop  offset="0.4891" style="stop-color:#EBECEC"/>
							<stop  offset="0.701" style="stop-color:#E7E8E8"/>
							<stop  offset="1" style="stop-color:#E3E3E3"/>
						</linearGradient>
						<path fill="url(#SVGID_27_)" d="M503.1,501.4h6.6c0.9,0,1.5,0.7,1.5,1.5v17.3c0,0.9-0.7,1.5-1.5,1.5h-6.6
							c-0.9,0-1.5-0.7-1.5-1.5v-17.3C501.5,502.1,502.2,501.4,503.1,501.4z"/>
					</g>
					<g>
						<linearGradient id="SVGID_28_" gradientUnits="userSpaceOnUse" x1="506.3778" y1="452.9247" x2="506.3778" y2="473.3062">
							<stop  offset="0" style="stop-color:#F1F1F1"/>
							<stop  offset="0.4891" style="stop-color:#EBECEC"/>
							<stop  offset="0.701" style="stop-color:#E7E8E8"/>
							<stop  offset="1" style="stop-color:#E3E3E3"/>
						</linearGradient>
						<path fill="url(#SVGID_28_)" d="M503.1,452.9h6.6c0.9,0,1.5,0.7,1.5,1.5v17.3c0,0.9-0.7,1.5-1.5,1.5h-6.6
							c-0.9,0-1.5-0.7-1.5-1.5v-17.3C501.5,453.6,502.2,452.9,503.1,452.9z"/>
					</g>
					<linearGradient id="SVGID_29_" gradientUnits="userSpaceOnUse" x1="641.5372" y1="899.2822" x2="641.5372" y2="318.174">
						<stop  offset="0" style="stop-color:#E3E3E3"/>
						<stop  offset="1" style="stop-color:#FFFFFF"/>
					</linearGradient>
					<path fill="url(#SVGID_29_)" d="M545.3,318.2h192.5c22.5,0,40.7,18.2,40.7,40.7v499.7c0,22.5-18.2,40.7-40.7,40.7H545.3
						c-22.5,0-40.7-18.2-40.7-40.7V358.9C504.6,336.4,522.8,318.2,545.3,318.2z"/>
					<path fill="#EAEAEA" d="M773,368.4h5.5v2.9H773V368.4z"/>
					<path fill="#FFFFFF" stroke="#231F20" stroke-miterlimit="10" d="M545.6,324h191.9c19.6,0,35.5,15.9,35.5,35.5v499.2
						c0,19.6-15.9,35.5-35.5,35.5H545.6c-19.6,0-35.5-15.9-35.5-35.5V359.5C510.1,339.9,526,324,545.6,324z"/>
					<g>
						<linearGradient id="SVGID_30_" gradientUnits="userSpaceOnUse" x1="641.5372" y1="321.839" x2="641.5372" y2="896.3492">
							<stop  offset="0" style="stop-color:#F3F3F3"/>
							<stop  offset="0.5184" style="stop-color:#F0EFEF"/>
							<stop  offset="1" style="stop-color:#EBEBEB"/>
						</linearGradient>
						<path fill="url(#SVGID_30_)" d="M544.5,321.8h194.1c19.6,0,36.6,17,36.6,36.6v501.4c0,19.6-17,36.6-36.6,36.6H544.5
							c-19.6,0-36.6-17-36.6-36.6V358.4C507.9,338.8,524.9,321.8,544.5,321.8z"/>
						<g opacity="0.3">
							<path fill="#F0EFEF" d="M738.6,322.8c19,0,35.6,16.6,35.6,35.6v501.4c0,19-16.6,35.6-35.6,35.6H544.5
								c-19,0-35.6-16.6-35.6-35.6V358.4c0-19,16.6-35.6,35.6-35.6H738.6 M738.6,321.8H544.5c-19.6,0-36.6,17-36.6,36.6v501.4
								c0,19.6,17,36.6,36.6,36.6h194.1c19.6,0,36.6-17,36.6-36.6V358.4C775.2,338.8,758.2,321.8,738.6,321.8L738.6,321.8z"/>
						</g>
					</g>
					<g>
						<path fill="#191819" d="M525,398.5l233.2,0c2,0,3.7,1.6,3.7,3.7v415c0,2-1.6,3.7-3.7,3.7l-233.2,0c-2,0-3.7-1.6-3.7-3.7v-415
							C521.3,400.1,522.9,398.5,525,398.5z"/>
						<path fill="#3A3A3A" d="M524.2,401.4h234.6v416.5H524.2V401.4z"/>
					</g>
					<rect x="521.5" y="398.5" fill="#282D32" width="240" height="32.5"/>
					
						<path fill="none" stroke="#FFFFFF" stroke-width="2" stroke-linecap="round" stroke-linejoin="round" stroke-miterlimit="10" d="
						M537,417.4h10.2 M537,413.4h10.2 M537,409.5h10.2"/>
					<g>
						<g>
							
								<image overflow="visible" opacity="0.15" width="238" height="90" xlink:href="1C23697371988847.png"  transform="matrix(1 0 0 1 522 432)">
							</image>
							<g>
								<path fill="#FFFFFF" d="M532.7,438.5c0,0-3.8,0-3.8,3.8v69.5c0,0,0,3.8,3.8,3.8h217.5c0,0,3.8,0,3.8-3.8v-69.5
									c0,0,0-3.8-3.8-3.8H532.7z"/>
							</g>
						</g>
						<path fill="none" stroke="#BEBDBD" stroke-width="0.365" d="M532.7,438.5c0,0-3.8,0-3.8,3.8v69.5c0,0,0,3.8,3.8,3.8h217.5
							c0,0,3.8,0,3.8-3.8v-69.5c0,0,0-3.8-3.8-3.8H532.7z"/>
						
							<text transform="matrix(1 0 0 1 584.9097 467.7635)" fill="#282D32" font-family="'BrandonGrotesque-Regular'" font-size="16.5">Conference Room</text>
						<text transform="matrix(1 0 0 1 656.479 467.7635)" fill="#282D32" font-family="'BrandonGrotesque-Regular'" font-size="18"> </text>
						<path fill="#66BB46" d="M556.8,476.9c8.3,0,15-6.7,15-15c0-8.3-6.7-15-15-15s-15,6.7-15,15
							C541.8,470.2,548.5,476.9,556.8,476.9"/>
						<defs>
							<filter id="Adobe_OpacityMaskFilter" filterUnits="userSpaceOnUse" x="544.5" y="451.2" width="24.6" height="24.6">
								<feColorMatrix  type="matrix" values="1 0 0 0 0  0 1 0 0 0  0 0 1 0 0  0 0 0 1 0"/>
							</filter>
						</defs>
						<mask maskUnits="userSpaceOnUse" x="544.5" y="451.2" width="24.6" height="24.6" id="SVGID_31_">
							<g filter="url(#Adobe_OpacityMaskFilter)">
								<g>
									<defs>
										<rect id="SVGID_34_" x="543.4" y="450" width="27" height="27"/>
									</defs>
									<clipPath id="SVGID_32_">
										<use xlink:href="#SVGID_34_"  overflow="visible"/>
									</clipPath>
									<g transform="matrix(1 0 0 1 0 0)" clip-path="url(#SVGID_32_)">
										
											<image overflow="visible" width="146" height="146" xlink:href="1C23697371988845.jpg"  transform="matrix(0.1849 0 0 0.1849 543.373 450.0439)">
										</image>
									</g>
								</g>
							</g>
						</mask>
						<g mask="url(#SVGID_31_)">
							<g>
								<defs>
									<rect id="SVGID_36_" x="544.5" y="451.2" width="24.6" height="24.6"/>
								</defs>
								<clipPath id="SVGID_33_">
									<use xlink:href="#SVGID_36_"  overflow="visible"/>
								</clipPath>
								<rect x="544.5" y="451.2" opacity="0.51" clip-path="url(#SVGID_33_)" fill="#231F20" width="24.6" height="24.6"/>
							</g>
						</g>
						<path fill="#FFFFFF" d="M556.8,472c5.6,0,10.1-4.5,10.1-10.1s-4.5-10.1-10.1-10.1c-5.6,0-10.1,4.5-10.1,10.1
							S551.2,472,556.8,472"/>
						<g>
							<defs>
								<path id="SVGID_38_" d="M737.3,499H546c-2.3,0-4.2-1.9-4.2-4.2v-1.1c0-2.3,1.9-4.2,4.2-4.2h191.3c2.3,0,4.2,1.9,4.2,4.2v1.1
									C741.5,497.2,739.6,499,737.3,499z"/>
							</defs>
							<use xlink:href="#SVGID_38_"  overflow="visible" fill="#EFEFEF"/>
							<clipPath id="SVGID_35_">
								<use xlink:href="#SVGID_38_"  overflow="visible"/>
							</clipPath>
							<path clip-path="url(#SVGID_35_)" fill="#F6EB0F" d="M584.7,499H546c-2.3,0-4.2-1.9-4.2-4.2v-1.1c0-2.3,1.9-4.2,4.2-4.2h38.7
								c2.3,0,4.2,1.9,4.2,4.2v1.1C588.8,497.2,587,499,584.7,499z"/>
							<use xlink:href="#SVGID_38_"  overflow="visible" fill="none" stroke="#E2E2E2" stroke-miterlimit="10"/>
						</g>
						<defs>
							<filter id="Adobe_OpacityMaskFilter_1_" filterUnits="userSpaceOnUse" x="576.8" y="483.4" width="24.2" height="24.2">
								<feColorMatrix  type="matrix" values="1 0 0 0 0  0 1 0 0 0  0 0 1 0 0  0 0 0 1 0"/>
							</filter>
						</defs>
						<mask maskUnits="userSpaceOnUse" x="576.8" y="483.4" width="24.2" height="24.2" id="SVGID_37_">
							<g filter="url(#Adobe_OpacityMaskFilter_1_)">
								<g>
									<defs>
										<rect id="SVGID_41_" x="575.7" y="482.3" width="26.6" height="26.6"/>
									</defs>
									<clipPath id="SVGID_39_">
										<use xlink:href="#SVGID_41_"  overflow="visible"/>
									</clipPath>
									<g clip-path="url(#SVGID_39_)">
										
											<image overflow="visible" width="144" height="144" xlink:href="1C23697371988843.jpg"  transform="matrix(0.1849 0 0 0.1849 575.7153 482.2749)">
										</image>
									</g>
								</g>
							</g>
						</mask>
						<g mask="url(#SVGID_37_)">
							<g>
								<defs>
									<rect id="SVGID_43_" x="576.8" y="483.4" width="24.2" height="24.2"/>
								</defs>
								<clipPath id="SVGID_40_">
									<use xlink:href="#SVGID_43_"  overflow="visible"/>
								</clipPath>
								<rect x="576.8" y="483.4" opacity="0.51" clip-path="url(#SVGID_40_)" fill="#231F20" width="24.2" height="24.2"/>
							</g>
						</g>
						<path fill="#FFFFFF" d="M588.9,503.9c5.5,0,9.9-4.4,9.9-9.9c0-5.5-4.4-9.9-9.9-9.9c-5.5,0-9.9,4.4-9.9,9.9
							C579,499.4,583.4,503.9,588.9,503.9"/>
					</g>
					<g>
						<g>
							
								<image overflow="visible" opacity="0.15" width="238" height="90" xlink:href="1C2369737198884D.png"  transform="matrix(1 0 0 1 522 516)">
							</image>
							<g>
								<path fill="#FFFFFF" d="M532.7,523c0,0-3.8,0-3.8,3.8v69.5c0,0,0,3.8,3.8,3.8h217.5c0,0,3.8,0,3.8-3.8v-69.5
									c0,0,0-3.8-3.8-3.8H532.7z"/>
							</g>
						</g>
						<path fill="none" stroke="#BEBDBD" stroke-width="0.365" d="M532.7,523c0,0-3.8,0-3.8,3.8v69.5c0,0,0,3.8,3.8,3.8h217.5
							c0,0,3.8,0,3.8-3.8v-69.5c0,0,0-3.8-3.8-3.8H532.7z"/>
						
							<text transform="matrix(1 0 0 1 584.9097 552.2792)" fill="#282D32" font-family="'BrandonGrotesque-Regular'" font-size="16.5">Section A</text>
						<text transform="matrix(1 0 0 1 656.479 552.2792)" fill="#282D32" font-family="'BrandonGrotesque-Regular'" font-size="18"> </text>
						<path fill="#66BB46" d="M556.8,561.4c8.3,0,15-6.7,15-15c0-8.3-6.7-15-15-15s-15,6.7-15,15
							C541.8,554.7,548.5,561.4,556.8,561.4"/>
						<defs>
							<filter id="Adobe_OpacityMaskFilter_2_" filterUnits="userSpaceOnUse" x="544.5" y="535.7" width="24.6" height="24.6">
								<feColorMatrix  type="matrix" values="1 0 0 0 0  0 1 0 0 0  0 0 1 0 0  0 0 0 1 0"/>
							</filter>
						</defs>
						<mask maskUnits="userSpaceOnUse" x="544.5" y="535.7" width="24.6" height="24.6" id="SVGID_42_">
							<g filter="url(#Adobe_OpacityMaskFilter_2_)">
								<g>
									<defs>
										<rect id="SVGID_46_" x="543.4" y="534.6" width="27" height="27"/>
									</defs>
									<clipPath id="SVGID_44_">
										<use xlink:href="#SVGID_46_"  overflow="visible"/>
									</clipPath>
									<g transform="matrix(1 0 0 1 0 0)" clip-path="url(#SVGID_44_)">
										
											<image overflow="visible" width="146" height="146" xlink:href="1C2369737198884F.jpg"  transform="matrix(0.1849 0 0 0.1849 543.373 534.5602)">
										</image>
									</g>
								</g>
							</g>
						</mask>
						<g mask="url(#SVGID_42_)">
							<g>
								<defs>
									<rect id="SVGID_48_" x="544.5" y="535.7" width="24.6" height="24.6"/>
								</defs>
								<clipPath id="SVGID_45_">
									<use xlink:href="#SVGID_48_"  overflow="visible"/>
								</clipPath>
								<rect x="544.5" y="535.7" opacity="0.51" clip-path="url(#SVGID_45_)" fill="#231F20" width="24.6" height="24.6"/>
							</g>
						</g>
						<path fill="#FFFFFF" d="M556.8,556.6c5.6,0,10.1-4.5,10.1-10.1c0-5.6-4.5-10.1-10.1-10.1c-5.6,0-10.1,4.5-10.1,10.1
							C546.7,552,551.2,556.6,556.8,556.6"/>
						<g>
							<defs>
								<path id="SVGID_50_" d="M737.3,583.6H546c-2.3,0-4.2-1.9-4.2-4.2v-1.1c0-2.3,1.9-4.2,4.2-4.2h191.3c2.3,0,4.2,1.9,4.2,4.2
									v1.1C741.5,581.7,739.6,583.6,737.3,583.6z"/>
							</defs>
							<use xlink:href="#SVGID_50_"  overflow="visible" fill="#EFEFEF"/>
							<clipPath id="SVGID_47_">
								<use xlink:href="#SVGID_50_"  overflow="visible"/>
							</clipPath>
							<path clip-path="url(#SVGID_47_)" fill="#F6EB0F" d="M638,583.6h-92c-2.3,0-4.2-1.9-4.2-4.2v-1.1c0-2.3,1.9-4.2,4.2-4.2h92
								c2.3,0,4.2,1.9,4.2,4.2v1.1C642.1,581.7,640.3,583.6,638,583.6z"/>
							<use xlink:href="#SVGID_50_"  overflow="visible" fill="none" stroke="#E2E2E2" stroke-miterlimit="10"/>
						</g>
						<defs>
							<filter id="Adobe_OpacityMaskFilter_3_" filterUnits="userSpaceOnUse" x="629.3" y="567.9" width="24.2" height="24.2">
								<feColorMatrix  type="matrix" values="1 0 0 0 0  0 1 0 0 0  0 0 1 0 0  0 0 0 1 0"/>
							</filter>
						</defs>
						<mask maskUnits="userSpaceOnUse" x="629.3" y="567.9" width="24.2" height="24.2" id="SVGID_49_">
							<g filter="url(#Adobe_OpacityMaskFilter_3_)">
								<g>
									<defs>
										<rect id="SVGID_53_" x="628.2" y="566.8" width="26.6" height="26.6"/>
									</defs>
									<clipPath id="SVGID_51_">
										<use xlink:href="#SVGID_53_"  overflow="visible"/>
									</clipPath>
									<g clip-path="url(#SVGID_51_)">
										
											<image overflow="visible" width="144" height="144" xlink:href="1C2369737198884D.jpg"  transform="matrix(0.1849 0 0 0.1849 628.237 566.7912)">
										</image>
									</g>
								</g>
							</g>
						</mask>
						<g mask="url(#SVGID_49_)">
							<g>
								<defs>
									<rect id="SVGID_55_" x="629.3" y="567.9" width="24.2" height="24.2"/>
								</defs>
								<clipPath id="SVGID_52_">
									<use xlink:href="#SVGID_55_"  overflow="visible"/>
								</clipPath>
								<rect x="629.3" y="567.9" opacity="0.51" clip-path="url(#SVGID_52_)" fill="#231F20" width="24.2" height="24.2"/>
							</g>
						</g>
						<path fill="#FFFFFF" d="M641.5,588.4c5.5,0,9.9-4.4,9.9-9.9c0-5.5-4.4-9.9-9.9-9.9c-5.5,0-9.9,4.4-9.9,9.9
							C631.5,583.9,636,588.4,641.5,588.4"/>
					</g>
					<g>
						
							<image overflow="visible" opacity="0.15" width="238" height="90" xlink:href="1C23697371988843.png"  transform="matrix(1 0 0 1 522 601)">
						</image>
						<g>
							<path fill="#FFFFFF" d="M532.7,607.5c0,0-3.8,0-3.8,3.8v69.5c0,0,0,3.8,3.8,3.8h217.5c0,0,3.8,0,3.8-3.8v-69.5
								c0,0,0-3.8-3.8-3.8H532.7z"/>
						</g>
					</g>
					<path fill="none" stroke="#BEBDBD" stroke-width="0.365" d="M532.7,607.5c0,0-3.8,0-3.8,3.8v69.5c0,0,0,3.8,3.8,3.8h217.5
						c0,0,3.8,0,3.8-3.8v-69.5c0,0,0-3.8-3.8-3.8H532.7z"/>
					
						<text transform="matrix(1 0 0 1 584.9097 636.7959)" fill="#282D32" font-family="'BrandonGrotesque-Regular'" font-size="16.5">Section B</text>
					<text transform="matrix(1 0 0 1 656.479 636.7959)" fill="#282D32" font-family="'BrandonGrotesque-Regular'" font-size="18"> </text>
					<path fill="#66BB46" d="M556.8,645.9c8.3,0,15-6.7,15-15s-6.7-15-15-15s-15,6.7-15,15S548.5,645.9,556.8,645.9"/>
					<defs>
						<filter id="Adobe_OpacityMaskFilter_4_" filterUnits="userSpaceOnUse" x="544.5" y="620.2" width="24.6" height="24.6">
							<feColorMatrix  type="matrix" values="1 0 0 0 0  0 1 0 0 0  0 0 1 0 0  0 0 0 1 0"/>
						</filter>
					</defs>
					<mask maskUnits="userSpaceOnUse" x="544.5" y="620.2" width="24.6" height="24.6" id="SVGID_54_">
						<g filter="url(#Adobe_OpacityMaskFilter_4_)">
							<g>
								<defs>
									<rect id="SVGID_58_" x="543.4" y="619.1" width="27" height="27"/>
								</defs>
								<clipPath id="SVGID_56_">
									<use xlink:href="#SVGID_58_"  overflow="visible"/>
								</clipPath>
								<g transform="matrix(1 0 0 1 0 0)" clip-path="url(#SVGID_56_)">
									
										<image overflow="visible" width="146" height="146" xlink:href="1C23697371988846.jpg"  transform="matrix(0.1849 0 0 0.1849 543.373 619.0765)">
									</image>
								</g>
							</g>
						</g>
					</mask>
					<g mask="url(#SVGID_54_)">
						<g>
							<defs>
								<rect id="SVGID_60_" x="544.5" y="620.2" width="24.6" height="24.6"/>
							</defs>
							<clipPath id="SVGID_57_">
								<use xlink:href="#SVGID_60_"  overflow="visible"/>
							</clipPath>
							<rect x="544.5" y="620.2" opacity="0.51" clip-path="url(#SVGID_57_)" fill="#231F20" width="24.6" height="24.6"/>
						</g>
					</g>
					<path fill="#FFFFFF" d="M556.8,641.1c5.6,0,10.1-4.5,10.1-10.1s-4.5-10.1-10.1-10.1c-5.6,0-10.1,4.5-10.1,10.1
						S551.2,641.1,556.8,641.1"/>
					<g>
						<defs>
							<path id="SVGID_62_" d="M737.3,668.1H546c-2.3,0-4.2-1.9-4.2-4.2v-1.1c0-2.3,1.9-4.2,4.2-4.2h191.3c2.3,0,4.2,1.9,4.2,4.2
								v1.1C741.5,666.2,739.6,668.1,737.3,668.1z"/>
						</defs>
						<use xlink:href="#SVGID_62_"  overflow="visible" fill="#EFEFEF"/>
						<clipPath id="SVGID_59_">
							<use xlink:href="#SVGID_62_"  overflow="visible"/>
						</clipPath>
						<path clip-path="url(#SVGID_59_)" fill="#F6EB0F" d="M640.1,668.1H546c-2.3,0-4.2-1.9-4.2-4.2v-1.1c0-2.3,1.9-4.2,4.2-4.2
							h94.1c2.3,0,4.2,1.9,4.2,4.2v1.1C644.3,666.2,642.4,668.1,640.1,668.1z"/>
						<use xlink:href="#SVGID_62_"  overflow="visible" fill="none" stroke="#E2E2E2" stroke-miterlimit="10"/>
					</g>
					<defs>
						<filter id="Adobe_OpacityMaskFilter_5_" filterUnits="userSpaceOnUse" x="629.3" y="652.4" width="24.2" height="24.2">
							<feColorMatrix  type="matrix" values="1 0 0 0 0  0 1 0 0 0  0 0 1 0 0  0 0 0 1 0"/>
						</filter>
					</defs>
					<mask maskUnits="userSpaceOnUse" x="629.3" y="652.4" width="24.2" height="24.2" id="SVGID_61_">
						<g filter="url(#Adobe_OpacityMaskFilter_5_)">
							<g>
								<defs>
									<rect id="SVGID_65_" x="628.2" y="651.3" width="26.6" height="26.6"/>
								</defs>
								<clipPath id="SVGID_63_">
									<use xlink:href="#SVGID_65_"  overflow="visible"/>
								</clipPath>
								<g clip-path="url(#SVGID_63_)">
									
										<image overflow="visible" width="144" height="144" xlink:href="111E3DAF6B0BB20E.jpg"  transform="matrix(0.1849 0 0 0.1849 628.237 651.3076)">
									</image>
								</g>
							</g>
						</g>
					</mask>
					<g mask="url(#SVGID_61_)">
						<g>
							<defs>
								<rect id="SVGID_67_" x="629.3" y="652.4" width="24.2" height="24.2"/>
							</defs>
							<clipPath id="SVGID_64_">
								<use xlink:href="#SVGID_67_"  overflow="visible"/>
							</clipPath>
							<rect x="629.3" y="652.4" opacity="0.51" clip-path="url(#SVGID_64_)" fill="#231F20" width="24.2" height="24.2"/>
						</g>
					</g>
					<path fill="#FFFFFF" d="M641.5,672.9c5.5,0,9.9-4.4,9.9-9.9c0-5.5-4.4-9.9-9.9-9.9c-5.5,0-9.9,4.4-9.9,9.9
						C631.5,668.4,636,672.9,641.5,672.9"/>
					<g>
						<g>
							
								<image overflow="visible" opacity="0.15" width="238" height="90" xlink:href="111E3DAF6B0BB20E.png"  transform="matrix(1 0 0 1 522 686)">
							</image>
							<g>
								<path fill="#FFFFFF" d="M532.7,692c0,0-3.8,0-3.8,3.8v69.5c0,0,0,3.8,3.8,3.8h217.5c0,0,3.8,0,3.8-3.8v-69.5
									c0,0,0-3.8-3.8-3.8H532.7z"/>
							</g>
						</g>
						<path fill="none" stroke="#BEBDBD" stroke-width="0.365" d="M532.7,692c0,0-3.8,0-3.8,3.8v69.5c0,0,0,3.8,3.8,3.8h217.5
							c0,0,3.8,0,3.8-3.8v-69.5c0,0,0-3.8-3.8-3.8H532.7z"/>
						
							<text transform="matrix(1 0 0 1 584.9097 721.3124)" fill="#282D32" font-family="'BrandonGrotesque-Regular'" font-size="16.5">Section C</text>
						<text transform="matrix(1 0 0 1 656.479 721.3124)" fill="#282D32" font-family="'BrandonGrotesque-Regular'" font-size="18"> </text>
						<path fill="#66BB46" d="M556.8,730.5c8.3,0,15-6.7,15-15s-6.7-15-15-15s-15,6.7-15,15S548.5,730.5,556.8,730.5"/>
						<defs>
							<filter id="Adobe_OpacityMaskFilter_6_" filterUnits="userSpaceOnUse" x="544.5" y="704.7" width="24.6" height="24.6">
								<feColorMatrix  type="matrix" values="1 0 0 0 0  0 1 0 0 0  0 0 1 0 0  0 0 0 1 0"/>
							</filter>
						</defs>
						<mask maskUnits="userSpaceOnUse" x="544.5" y="704.7" width="24.6" height="24.6" id="SVGID_66_">
							<g filter="url(#Adobe_OpacityMaskFilter_6_)">
								<g>
									<defs>
										<rect id="SVGID_70_" x="543.4" y="703.6" width="27" height="27"/>
									</defs>
									<clipPath id="SVGID_68_">
										<use xlink:href="#SVGID_70_"  overflow="visible"/>
									</clipPath>
									<g transform="matrix(1 0 0 1 0 0)" clip-path="url(#SVGID_68_)">
										
											<image overflow="visible" width="146" height="146" xlink:href="111E3DAF6B0BB20A.jpg"  transform="matrix(0.1849 0 0 0.1849 543.373 703.5929)">
										</image>
									</g>
								</g>
							</g>
						</mask>
						<g mask="url(#SVGID_66_)">
							<g>
								<defs>
									<rect id="SVGID_72_" x="544.5" y="704.7" width="24.6" height="24.6"/>
								</defs>
								<clipPath id="SVGID_69_">
									<use xlink:href="#SVGID_72_"  overflow="visible"/>
								</clipPath>
								<rect x="544.5" y="704.7" opacity="0.51" clip-path="url(#SVGID_69_)" fill="#231F20" width="24.6" height="24.6"/>
							</g>
						</g>
						<path fill="#FFFFFF" d="M556.8,725.6c5.6,0,10.1-4.5,10.1-10.1c0-5.6-4.5-10.1-10.1-10.1c-5.6,0-10.1,4.5-10.1,10.1
							C546.7,721.1,551.2,725.6,556.8,725.6"/>
					</g>
					
						<text transform="matrix(1 0 0 1 603.4883 418.5855)" fill="#FFFFFF" font-family="'BrandonGrotesque-Medium'" font-size="16.5">ACME CO.</text>
					<linearGradient id="SVGID_71_" gradientUnits="userSpaceOnUse" x1="704.999" y1="327.2896" x2="704.999" y2="894.9594">
						<stop  offset="0" style="stop-color:#FFFFFF"/>
						<stop  offset="0.8632" style="stop-color:#FFFFFF;stop-opacity:0"/>
					</linearGradient>
					<path opacity="0.2" fill="url(#SVGID_71_)" d="M637,323.9h100.6c19.6,0,35.5,15.9,35.5,35.5v499.4c0,19.6-15.9,35.5-35.5,35.5
						L637,323.9z"/>
					<path fill="#E9E9E9" d="M504.6,368.4h5.5v2.9h-5.5V368.4z"/>
					<g>
						<linearGradient id="SVGID_73_" gradientUnits="userSpaceOnUse" x1="641.5372" y1="361.6705" x2="641.5372" y2="374.7672">
							<stop  offset="0" style="stop-color:#CDCDCD"/>
							<stop  offset="0.3065" style="stop-color:#DDDDDC"/>
							<stop  offset="1" style="stop-color:#F5F5F5"/>
						</linearGradient>
						<path fill="url(#SVGID_73_)" d="M621.9,374.8c-3.6,0-6.5-2.9-6.5-6.5s2.9-6.5,6.5-6.5h39.3c3.6,0,6.5,2.9,6.5,6.5
							s-2.9,6.5-6.5,6.5H621.9z"/>
						<g opacity="0.5">
							<path fill="#E6E6E5" d="M661.2,362.7c3.1,0,5.5,2.5,5.5,5.5s-2.5,5.5-5.5,5.5h-39.3c-3.1,0-5.5-2.5-5.5-5.5s2.5-5.5,5.5-5.5
								H661.2 M661.2,361.7h-39.3c-3.6,0-6.5,2.9-6.5,6.5s2.9,6.5,6.5,6.5h39.3c3.6,0,6.5-2.9,6.5-6.5S664.8,361.7,661.2,361.7
								L661.2,361.7z"/>
						</g>
					</g>
					<g>
						<linearGradient id="SVGID_75_" gradientUnits="userSpaceOnUse" x1="641.5372" y1="340.5044" x2="641.5372" y2="351.726">
							<stop  offset="0" style="stop-color:#C7C7C7"/>
							<stop  offset="0.4115" style="stop-color:#E3E3E3"/>
							<stop  offset="1" style="stop-color:#F4F5F5"/>
						</linearGradient>
						<path fill="url(#SVGID_75_)" d="M641.5,340.5c3.1,0,5.6,2.5,5.6,5.6c0,3.1-2.5,5.6-5.6,5.6c-3.1,0-5.6-2.5-5.6-5.6
							C635.9,343,638.4,340.5,641.5,340.5z"/>
						<g opacity="0.3">
							<path fill="#E6E6E5" d="M641.5,341.5c2.5,0,4.6,2.1,4.6,4.6c0,2.5-2.1,4.6-4.6,4.6s-4.6-2.1-4.6-4.6
								C636.9,343.6,639,341.5,641.5,341.5 M641.5,340.5c-3.1,0-5.6,2.5-5.6,5.6c0,3.1,2.5,5.6,5.6,5.6c3.1,0,5.6-2.5,5.6-5.6
								C647.1,343,644.6,340.5,641.5,340.5L641.5,340.5z"/>
						</g>
					</g>
					<g>
						<path fill="#BBBCBD" d="M639.8,344.4c0.9-0.9,2.5-0.9,3.4,0c0.9,0.9,0.9,2.5,0,3.4c-0.9,0.9-2.5,0.9-3.4,0
							C638.9,346.9,638.9,345.3,639.8,344.4z"/>
						<path opacity="0.5" fill="#BBBCBD" d="M641.7,344.8c0.3-0.3,0.9-0.3,1.2,0s0.3,0.9,0,1.2c-0.3,0.3-0.9,0.3-1.2,0
							C641.4,345.6,641.4,345.1,641.7,344.8z"/>
					</g>
					<path fill="#383838" stroke="#292929" stroke-miterlimit="10" d="M621.9,365.1h39.2c1.8,0,3.2,1.4,3.2,3.2s-1.4,3.2-3.2,3.2
						h-39.2c-1.8,0-3.2-1.4-3.2-3.2S620.2,365.1,621.9,365.1z"/>
				</g>
			</g>
			<g>
				<g>
					<g>
						<g>
							<g>
								<defs>
									<rect id="SVGID_86_" x="544.5" y="451.2" width="24.6" height="24.6"/>
								</defs>
								<clipPath id="SVGID_76_">
									<use xlink:href="#SVGID_86_"  overflow="visible"/>
								</clipPath>
							</g>
						</g>
						<g>
							<defs>
								<path id="SVGID_88_" d="M737.3,499H546c-2.3,0-4.2-1.9-4.2-4.2v-1.1c0-2.3,1.9-4.2,4.2-4.2h191.3c2.3,0,4.2,1.9,4.2,4.2v1.1
									C741.5,497.2,739.6,499,737.3,499z"/>
							</defs>
							<clipPath id="SVGID_78_">
								<use xlink:href="#SVGID_88_"  overflow="visible"/>
							</clipPath>
						</g>
						<g>
							<g>
								<defs>
									<rect id="SVGID_90_" x="576.8" y="483.4" width="24.2" height="24.2"/>
								</defs>
								<clipPath id="SVGID_80_">
									<use xlink:href="#SVGID_90_"  overflow="visible"/>
								</clipPath>
							</g>
						</g>
					</g>
					<g>
						<g>
							<g>
								<defs>
									<rect id="SVGID_92_" x="544.5" y="535.7" width="24.6" height="24.6"/>
								</defs>
								<clipPath id="SVGID_81_">
									<use xlink:href="#SVGID_92_"  overflow="visible"/>
								</clipPath>
							</g>
						</g>
						<g>
							<defs>
								<path id="SVGID_94_" d="M737.3,583.6H546c-2.3,0-4.2-1.9-4.2-4.2v-1.1c0-2.3,1.9-4.2,4.2-4.2h191.3c2.3,0,4.2,1.9,4.2,4.2
									v1.1C741.5,581.7,739.6,583.6,737.3,583.6z"/>
							</defs>
							<clipPath id="SVGID_82_">
								<use xlink:href="#SVGID_94_"  overflow="visible"/>
							</clipPath>
						</g>
						<g>
							<g>
								<defs>
									<rect id="SVGID_96_" x="629.3" y="567.9" width="24.2" height="24.2"/>
								</defs>
								<clipPath id="SVGID_83_">
									<use xlink:href="#SVGID_96_"  overflow="visible"/>
								</clipPath>
							</g>
						</g>
					</g>
					<g>
						<g>
							<defs>
								<rect id="SVGID_98_" x="544.5" y="620.2" width="24.6" height="24.6"/>
							</defs>
							<clipPath id="SVGID_84_">
								<use xlink:href="#SVGID_98_"  overflow="visible"/>
							</clipPath>
						</g>
					</g>
					<g>
						<defs>
							<path id="SVGID_100_" d="M737.3,668.1H546c-2.3,0-4.2-1.9-4.2-4.2v-1.1c0-2.3,1.9-4.2,4.2-4.2h191.3c2.3,0,4.2,1.9,4.2,4.2
								v1.1C741.5,666.2,739.6,668.1,737.3,668.1z"/>
						</defs>
						<clipPath id="SVGID_85_">
							<use xlink:href="#SVGID_100_"  overflow="visible"/>
						</clipPath>
					</g>
					<g>
						<g>
							<defs>
								<rect id="SVGID_102_" x="629.3" y="652.4" width="24.2" height="24.2"/>
							</defs>
							<clipPath id="SVGID_87_">
								<use xlink:href="#SVGID_102_"  overflow="visible"/>
							</clipPath>
						</g>
					</g>
					<g>
						<g>
							<g>
								<defs>
									<rect id="SVGID_104_" x="544.5" y="704.7" width="24.6" height="24.6"/>
								</defs>
								<clipPath id="SVGID_89_">
									<use xlink:href="#SVGID_104_"  overflow="visible"/>
								</clipPath>
							</g>
						</g>
					</g>
				</g>
			</g>
		</g>
	</g>
</g>
</svg>
