<?xml version="1.0" encoding="utf-8"?>
<!-- Generator: Adobe Illustrator 18.0.0, SVG Export Plug-In . SVG Version: 6.00 Build 0)  -->
<!DOCTYPE svg PUBLIC "-//W3C//DTD SVG 1.1//EN" "http://www.w3.org/Graphics/SVG/1.1/DTD/svg11.dtd">
<svg version="1.1" id="Layer_1" xmlns="http://www.w3.org/2000/svg" xmlns:xlink="http://www.w3.org/1999/xlink" x="0px" y="0px"
	 viewBox="0 0 50 50" enable-background="new 0 0 50 50" xml:space="preserve">
<g>
	<path fill="#FFFFFF" d="M25,48C12.6,48,2.5,37.9,2.5,25.5c0-2.4,0.4-4.7,1.1-7c0.4-1.1,1.6-1.7,2.7-1.4c1.1,0.4,1.7,1.6,1.4,2.7
		c-0.6,1.8-0.9,3.7-0.9,5.7c0,10.1,8.2,18.3,18.3,18.3c10.1,0,18.3-8.2,18.3-18.3S35.1,7.2,25,7.2c-4.5,0-8.9,1.7-12.2,4.7
		c-0.9,0.8-2.2,0.7-3-0.2c-0.8-0.9-0.7-2.2,0.2-3C14.1,5,19.4,3,25,3c12.4,0,22.5,10.1,22.5,22.5C47.5,37.9,37.4,48,25,48z"/>
	<path fill="#FFFFFF" d="M23,33.5c-0.4,0-0.8-0.1-1.1-0.3c-0.6-0.4-1-1.1-1-1.8V19c0-1.2,0.9-2.1,2.1-2.1c1.2,0,2.1,0.9,2.1,2.1v9.1
		l4.3-2c1.1-0.5,2.3,0,2.8,1c0.5,1.1,0,2.3-1,2.8l-7.4,3.4C23.6,33.5,23.3,33.5,23,33.5z"/>
	<path fill="#FFFFFF" d="M16.9,14.6c-0.1,0-0.3,0-0.4,0l-6.8-1.3C8.6,13,7.9,11.9,8,10.8l1.1-7c0.2-1.2,1.3-1.9,2.4-1.8
		c1.2,0.2,1.9,1.3,1.8,2.4l-0.8,5l4.7,0.9c1.2,0.2,1.9,1.3,1.7,2.5C18.8,13.9,17.9,14.6,16.9,14.6z"/>
</g>
</svg>
