<?xml version="1.0" encoding="utf-8"?>
<!-- Generator: Adobe Illustrator 18.1.0, SVG Export Plug-In . SVG Version: 6.00 Build 0)  -->
<!DOCTYPE svg PUBLIC "-//W3C//DTD SVG 1.1//EN" "http://www.w3.org/Graphics/SVG/1.1/DTD/svg11.dtd">
<svg version="1.1" id="Layer_1" xmlns="http://www.w3.org/2000/svg" xmlns:xlink="http://www.w3.org/1999/xlink" x="0px" y="0px"
	 viewBox="0 0 15 15" enable-background="new 0 0 15 15" xml:space="preserve">
<g>
	<path fill="#FFFFFF" d="M14.6,1.8L1.8,14.6c-0.4,0.4-1,0.4-1.4,0l0,0c-0.4-0.4-0.4-1,0-1.4L13.2,0.4c0.4-0.4,1-0.4,1.4,0l0,0
		C15,0.8,15,1.5,14.6,1.8z"/>
	<path fill="#FFFFFF" d="M13.2,14.6L0.4,1.8C0,1.5,0,0.8,0.4,0.4l0,0c0.4-0.4,1-0.4,1.4,0l12.7,12.7c0.4,0.4,0.4,1,0,1.4l0,0
		C14.2,15,13.5,15,13.2,14.6z"/>
</g>
</svg>
