<svg xmlns="http://www.w3.org/2000/svg" viewBox="0 0 27.8 40" enable-background="new 0 0 27.8 40"><g fill="#008CE6"><path d="M20.2 23.5h-14.3c-.6 0-1-.4-1.2-.9-.1-.5.2-1.1.7-1.3l14.4-6.5c.4-.2.8-.1 1.1.1.3.2.5.6.5 1v6.5c0 .6-.5 1.1-1.2 1.1zm-8.8-2.4h7.6v-3.5l-7.6 3.5zM6.2 22.3l9-3.5v3.6zM26.3 40h-24.8c-.8 0-1.5-.7-1.5-1.5v-37c0-.8.7-1.5 1.5-1.5h24.8c.8 0 1.5.7 1.5 1.5v37c0 .8-.7 1.5-1.5 1.5zm-23.3-3h21.8v-34h-21.8v34zM1.6 33.8h23.7v4.8h-23.7zM25.2 4.6h-23.7c-.8 0-1.5-.6-1.5-1.5 0-.8.7-1.5 1.5-1.5h23.7c.8 0 1.5.7 1.5 1.5 0 .9-.7 1.5-1.5 1.5z"/><circle cx="14.6" cy="36.9" r="1.1"/></g></svg>