<svg xmlns="http://www.w3.org/2000/svg" viewBox="0 0 40 40" enable-background="new 0 0 40 40"><g fill="#008CE6"><path d="M20 9.5c-.9 0-1.6-.7-1.6-1.6v-6.3c0-.9.7-1.6 1.6-1.6.9 0 1.6.7 1.6 1.6v6.3c0 .9-.7 1.6-1.6 1.6zM20 40c-.9 0-1.6-.7-1.6-1.6v-6.3c0-.9.7-1.6 1.6-1.6.9 0 1.6.7 1.6 1.6v6.3c0 .9-.7 1.6-1.6 1.6zM11.4 13.1c-.4 0-.8-.2-1.1-.5l-4.4-4.5c-.6-.6-.6-1.7 0-2.3s1.7-.6 2.3 0l4.4 4.4c.6.6.6 1.7 0 2.3-.3.4-.8.6-1.2.6zM33 34.6c-.4 0-.8-.2-1.1-.5l-4.4-4.4c-.6-.6-.6-1.7 0-2.3.6-.6 1.7-.6 2.3 0l4.4 4.4c.6.6.6 1.7 0 2.3-.4.4-.8.5-1.2.5zM7.9 21.6h-6.3c-.9 0-1.6-.7-1.6-1.6s.7-1.6 1.6-1.6h6.3c.9 0 1.6.7 1.6 1.6s-.7 1.6-1.6 1.6zM38.4 21.6h-6.3c-.9 0-1.6-.7-1.6-1.6s.7-1.6 1.6-1.6h6.3c.9 0 1.6.7 1.6 1.6s-.7 1.6-1.6 1.6zM7 34.6c-.4 0-.8-.2-1.1-.5-.6-.6-.6-1.7 0-2.3l4.4-4.4c.6-.6 1.7-.6 2.3 0 .6.6.6 1.7 0 2.3l-4.4 4.4c-.4.4-.8.5-1.2.5zM28.6 13.1c-.4 0-.8-.2-1.1-.5-.6-.6-.6-1.7 0-2.3l4.4-4.4c.6-.6 1.7-.6 2.3 0 .6.6.6 1.7 0 2.3l-4.4 4.4c-.4.3-.8.5-1.2.5zM20.1 28.1c-4.6 0-8.3-3.7-8.3-8.3s3.7-8.3 8.3-8.3c4.6 0 8.3 3.7 8.3 8.3s-3.7 8.3-8.3 8.3zm0-13.4c-2.8 0-5.1 2.3-5.1 5.1s2.3 5.1 5.1 5.1 5.1-2.3 5.1-5.1-2.3-5.1-5.1-5.1z"/></g></svg>