<?xml version="1.0" encoding="utf-8"?>
<!-- Generator: Adobe Illustrator 18.1.0, SVG Export Plug-In . SVG Version: 6.00 Build 0)  -->
<!DOCTYPE svg PUBLIC "-//W3C//DTD SVG 1.1//EN" "http://www.w3.org/Graphics/SVG/1.1/DTD/svg11.dtd">
<svg version="1.1" id="Layer_1" xmlns="http://www.w3.org/2000/svg" xmlns:xlink="http://www.w3.org/1999/xlink" x="0px" y="0px"
	 viewBox="0 0 534 304" enable-background="new 0 0 534 304" xml:space="preserve">
<g>
	<circle fill="#008CE6" stroke="#FFFFFF" stroke-width="2" stroke-miterlimit="10" cx="30" cy="144.9" r="30"/>
	<g>
		<g>
			<path fill="#FFFFFF" d="M43.9,158.8H16.1c-0.6,0-1.1-0.5-1.1-1.1v-9.2c0-0.6,0.5-1.1,1.1-1.1h27.8c0.6,0,1.1,0.5,1.1,1.1v9.2
				C45,158.3,44.5,158.8,43.9,158.8z M17.2,156.6h25.5v-6.9H17.2V156.6z"/>
		</g>
		<g>
			<g>
				<path fill="#FFFFFF" d="M37.2,135.7c-0.3,0-0.5-0.1-0.7-0.3c-1.9-1.5-4.1-2.2-6.4-2.2c-2.4,0-4.6,0.8-6.4,2.2
					c-0.5,0.4-1.2,0.3-1.6-0.2c-0.4-0.5-0.3-1.2,0.2-1.6c2.3-1.8,5-2.7,7.9-2.7c2.9,0,5.6,1,7.9,2.7c0.5,0.4,0.6,1.1,0.2,1.6
					C37.8,135.6,37.5,135.7,37.2,135.7z"/>
			</g>
			<g>
				<path fill="#FFFFFF" d="M34.5,139.7c-0.3,0-0.6-0.1-0.8-0.4c-1-1-2.3-1.5-3.6-1.5c-1.4,0-2.7,0.5-3.6,1.5
					c-0.5,0.5-1.2,0.5-1.7,0s-0.5-1.2,0-1.7c1.4-1.4,3.3-2.2,5.3-2.2c2,0,3.9,0.8,5.3,2.2c0.5,0.5,0.4,1.2,0,1.7
					C35,139.6,34.7,139.7,34.5,139.7z"/>
			</g>
			<g>
				<path fill="#FFFFFF" d="M32.6,143.9c-0.3,0-0.6-0.1-0.8-0.4c-0.9-1-2.6-1-3.5,0c-0.5,0.5-1.2,0.5-1.7,0c-0.5-0.5-0.5-1.2,0-1.7
					c0.9-0.9,2.1-1.4,3.4-1.4c1.3,0,2.5,0.5,3.5,1.5c0.5,0.5,0.4,1.2,0,1.7C33.2,143.7,32.9,143.9,32.6,143.9z"/>
			</g>
		</g>
		<g>
			<circle fill="#FFFFFF" cx="21.9" cy="153.1" r="1.6"/>
		</g>
		<g>
			<circle fill="#FFFFFF" cx="27.9" cy="153.1" r="1.6"/>
		</g>
	</g>
	<path fill="#FFFFFF" d="M526.5,152.4c0,0.7-0.6,1.2-1.2,1.2h-7.5c-0.7,0-1.2-0.6-1.2-1.2c0-0.7,0.6-1.2,1.2-1.2h7.5
		C525.9,151.1,526.5,151.7,526.5,152.4z M525.2,154.9h-7.5c-0.7,0-1.2,0.6-1.2,1.2c0,0.7,0.6,1.2,1.2,1.2c0,1.4,1.1,2.5,2.5,2.5h2.5
		c1.4,0,2.5-1.1,2.5-2.5c0.7,0,1.2-0.6,1.2-1.2C526.5,155.4,525.9,154.9,525.2,154.9z M521.5,122.4c5.5,0,10,4.5,10,10
		c0,3.6-1.9,6.8-5,8.6l-1.2,0.7v1.4v4.2h-7.5v-4.2v-1.4l-1.2-0.7c-3.1-1.8-5-5-5-8.6C511.5,126.8,516,122.4,521.5,122.4
		 M521.5,119.9c-6.9,0-12.5,5.6-12.5,12.5c0,4.6,2.5,8.6,6.2,10.8v4.2c0,1.4,1.1,2.5,2.5,2.5h7.5c1.4,0,2.5-1.1,2.5-2.5v-4.2
		c3.7-2.2,6.2-6.2,6.2-10.8C534,125.5,528.4,119.9,521.5,119.9L521.5,119.9z"/>
	
		<text transform="matrix(1 0 0 1 152.4839 79.0032)" fill="#FFFFFF" font-family="'BrandonGrotesque-Black'" font-size="12" letter-spacing="2">SWITCH</text>
	<g>
		
			<text transform="matrix(1 0 0 1 142.146 179.0032)" fill="#FFFFFF" font-family="'BrandonGrotesque-Black'" font-size="12" letter-spacing="2">DIM 0-10V</text>
	</g>
	
		<text transform="matrix(1 0 0 1 129.228 279.0032)" fill="#FFFFFF" font-family="'BrandonGrotesque-Black'" font-size="12" letter-spacing="2">WALL SWITCH</text>
	<g>
		
			<line fill="none" stroke="#FFFFFF" stroke-width="2" stroke-linecap="round" stroke-linejoin="round" stroke-miterlimit="10" stroke-dasharray="0,4" x1="105" y1="145" x2="65" y2="145"/>
		
			<line fill="none" stroke="#FFFFFF" stroke-width="2" stroke-linecap="round" stroke-linejoin="round" stroke-miterlimit="10" stroke-dasharray="0,4" x1="145" y1="45" x2="105" y2="45"/>
		
			<line fill="none" stroke="#FFFFFF" stroke-width="2" stroke-linecap="round" stroke-linejoin="round" stroke-miterlimit="10" stroke-dasharray="0,4" x1="145" y1="145" x2="105" y2="145"/>
		
			<line fill="none" stroke="#FFFFFF" stroke-width="2" stroke-linecap="round" stroke-linejoin="round" stroke-miterlimit="10" stroke-dasharray="0,4" x1="145" y1="245" x2="105" y2="245"/>
		
			<line fill="none" stroke="#FFFFFF" stroke-width="2" stroke-linecap="round" stroke-linejoin="round" stroke-miterlimit="10" stroke-dasharray="0,4" x1="105" y1="245" x2="105" y2="45"/>
	</g>
	
		<line fill="none" stroke="#FFFFFF" stroke-width="2" stroke-linecap="round" stroke-linejoin="round" stroke-miterlimit="10" stroke-dasharray="0,4" x1="217" y1="245" x2="257" y2="245"/>
	
		<line fill="none" stroke="#FFFFFF" stroke-width="2" stroke-linecap="round" stroke-linejoin="round" stroke-miterlimit="10" stroke-dasharray="0,4" x1="217" y1="145" x2="257" y2="145"/>
	
		<line fill="none" stroke="#FFFFFF" stroke-width="2" stroke-linecap="round" stroke-linejoin="round" stroke-miterlimit="10" stroke-dasharray="0,4" x1="217" y1="45" x2="257" y2="45"/>
	
		<line fill="none" stroke="#FFFFFF" stroke-width="2" stroke-linecap="round" stroke-linejoin="round" stroke-miterlimit="10" stroke-dasharray="0,4" x1="257" y1="45" x2="257" y2="245"/>
	<text transform="matrix(1 0 0 1 331.4575 49.0032)"><tspan x="0" y="0" fill="#FFFFFF" font-family="'BrandonGrotesque-Black'" font-size="12" letter-spacing="2">OCCUPANY</tspan><tspan x="11.9" y="14" fill="#FFFFFF" font-family="'BrandonGrotesque-Black'" font-size="12" letter-spacing="2">SENSOR</tspan></text>
	<g>
		<text transform="matrix(1 0 0 1 335.4058 132.0032)"><tspan x="0" y="0" fill="#FFFFFF" font-family="'BrandonGrotesque-Black'" font-size="12" letter-spacing="2">DAYLIGHT</tspan><tspan x="8" y="14" fill="#FFFFFF" font-family="'BrandonGrotesque-Black'" font-size="12" letter-spacing="2">SENSOR</tspan></text>
	</g>
	<g>
		
			<text transform="matrix(1 0 0 1 340.5474 216.0032)" fill="#FFFFFF" font-family="'BrandonGrotesque-Black'" font-size="12" letter-spacing="2">TRIGGER</text>
	</g>
	<g>
		
			<text transform="matrix(1 0 0 1 335.1235 299.0032)" fill="#FFFFFF" font-family="'BrandonGrotesque-Black'" font-size="12" letter-spacing="2">REPEATER</text>
	</g>
	<g>
		<g>
			<path fill="#FFFFFF" d="M388.5,278.8h-27.8c-0.6,0-1.1-0.5-1.1-1.1v-9.2c0-0.6,0.5-1.1,1.1-1.1h27.8c0.6,0,1.1,0.5,1.1,1.1v9.2
				C389.6,278.3,389.1,278.8,388.5,278.8z M361.8,276.6h25.5v-6.9h-25.5V276.6z"/>
		</g>
		<g>
			<g>
				<path fill="#FFFFFF" d="M381.8,255.7c-0.3,0-0.5-0.1-0.7-0.3c-1.9-1.5-4.1-2.2-6.4-2.2c-2.4,0-4.6,0.8-6.4,2.2
					c-0.5,0.4-1.2,0.3-1.6-0.2c-0.4-0.5-0.3-1.2,0.2-1.6c2.3-1.8,5-2.7,7.9-2.7c2.9,0,5.6,1,7.9,2.7c0.5,0.4,0.6,1.1,0.2,1.6
					C382.4,255.6,382.1,255.7,381.8,255.7z"/>
			</g>
			<g>
				<path fill="#FFFFFF" d="M379.1,259.7c-0.3,0-0.6-0.1-0.8-0.4c-1-1-2.3-1.5-3.6-1.5c-1.4,0-2.7,0.5-3.6,1.5
					c-0.5,0.5-1.2,0.5-1.7,0s-0.5-1.2,0-1.7c1.4-1.4,3.3-2.2,5.3-2.2c2,0,3.9,0.8,5.3,2.2c0.5,0.5,0.4,1.2,0,1.7
					C379.6,259.6,379.3,259.7,379.1,259.7z"/>
			</g>
			<g>
				<path fill="#FFFFFF" d="M377.2,263.9c-0.3,0-0.6-0.1-0.8-0.4c-0.9-1-2.6-1-3.5,0c-0.5,0.5-1.2,0.5-1.7,0c-0.5-0.5-0.5-1.2,0-1.7
					c0.9-0.9,2.1-1.4,3.4-1.4c1.3,0,2.5,0.5,3.5,1.5c0.5,0.5,0.4,1.2,0,1.7C377.8,263.7,377.5,263.9,377.2,263.9z"/>
			</g>
		</g>
		<g>
			<circle fill="#FFFFFF" cx="366.5" cy="273.1" r="1.6"/>
		</g>
		<g>
			<circle fill="#FFFFFF" cx="372.5" cy="273.1" r="1.6"/>
		</g>
	</g>
	<g>
		
			<line fill="none" stroke="#FFFFFF" stroke-width="2" stroke-linecap="round" stroke-linejoin="round" stroke-miterlimit="10" stroke-dasharray="0,4" x1="257" y1="145" x2="297" y2="145"/>
		
			<line fill="none" stroke="#FFFFFF" stroke-width="2" stroke-linecap="round" stroke-linejoin="round" stroke-miterlimit="10" stroke-dasharray="0,4" x1="337" y1="15" x2="297" y2="15"/>
		
			<line fill="none" stroke="#FFFFFF" stroke-width="2" stroke-linecap="round" stroke-linejoin="round" stroke-miterlimit="10" stroke-dasharray="0,4" x1="337" y1="98" x2="297" y2="98"/>
		
			<line fill="none" stroke="#FFFFFF" stroke-width="2" stroke-linecap="round" stroke-linejoin="round" stroke-miterlimit="10" stroke-dasharray="0,4" x1="337" y1="182" x2="297" y2="182"/>
		
			<line fill="none" stroke="#FFFFFF" stroke-width="2" stroke-linecap="round" stroke-linejoin="round" stroke-miterlimit="10" stroke-dasharray="0,4" x1="337" y1="265" x2="297" y2="265"/>
		
			<line fill="none" stroke="#FFFFFF" stroke-width="2" stroke-linecap="round" stroke-linejoin="round" stroke-miterlimit="10" stroke-dasharray="0,4" x1="297" y1="265" x2="297" y2="15"/>
	</g>
	<g>
		
			<line fill="none" stroke="#FFFFFF" stroke-width="2" stroke-linecap="round" stroke-linejoin="round" stroke-miterlimit="10" stroke-dasharray="0,4" x1="489" y1="135" x2="449" y2="135"/>
		
			<line fill="none" stroke="#FFFFFF" stroke-width="2" stroke-linecap="round" stroke-linejoin="round" stroke-miterlimit="10" stroke-dasharray="0,4" x1="409" y1="265" x2="449" y2="265"/>
		
			<line fill="none" stroke="#FFFFFF" stroke-width="2" stroke-linecap="round" stroke-linejoin="round" stroke-miterlimit="10" stroke-dasharray="0,4" x1="409" y1="182" x2="449" y2="182"/>
		
			<line fill="none" stroke="#FFFFFF" stroke-width="2" stroke-linecap="round" stroke-linejoin="round" stroke-miterlimit="10" stroke-dasharray="0,4" x1="409" y1="98" x2="449" y2="98"/>
		
			<line fill="none" stroke="#FFFFFF" stroke-width="2" stroke-linecap="round" stroke-linejoin="round" stroke-miterlimit="10" stroke-dasharray="0,4" x1="409" y1="15" x2="449" y2="15"/>
		
			<line fill="none" stroke="#FFFFFF" stroke-width="2" stroke-linecap="round" stroke-linejoin="round" stroke-miterlimit="10" stroke-dasharray="0,4" x1="449" y1="15" x2="449" y2="265"/>
	</g>
	<g>
		<path fill="#FFFFFF" d="M170.1,48.7c0-0.7,0.4-1.4,0.9-1.7c0,0,0,0-0.1,0h-11.6c-1,0-1.8,1-1.8,2c0,1,0.8,2,1.8,2h11.6
			c0,0,0.1-0.3,0.1-0.3C170.5,50.4,170.1,49.5,170.1,48.7z"/>
		<path fill="#FFFFFF" d="M205.8,47h-11.5c0.7,0,1.3,1.3,1.3,2c0,0.7-0.6,1-1.3,2h11.5c1,0,1.8-1,1.8-2C207.6,48,206.8,47,205.8,47z
			"/>
		<path fill="#FFFFFF" d="M188.2,37.1c-0.6-0.8-1.7-0.9-2.5-0.4l-13.2,9.8c1.1-0.3,2.3,1,2.1,2.1c-0.1,0.4,0,0.9-0.4,1l13.7-10.1
			C188.6,39,188.8,37.9,188.2,37.1z"/>
		<path fill="#FFFFFF" d="M193.1,46.6c0.6,0,1.1,0.2,1.5,0.6C194.2,46.8,193.7,46.6,193.1,46.6c-1.1,0-1.9,0.7-2.1,1.7
			C191.1,47.3,192,46.6,193.1,46.6z"/>
		<path fill="#FFFFFF" d="M190.9,48.7c0-0.2,0-0.3,0-0.4C190.9,48.4,190.9,48.6,190.9,48.7c0,0.9,0.5,1.7,1.3,2
			C191.4,50.4,190.9,49.6,190.9,48.7z"/>
		<path fill="#FFFFFF" d="M194.6,47.2c0.2,0.2,0.4,0.4,0.5,0.7C195,47.6,194.8,47.4,194.6,47.2z"/>
		<path fill="#FFFFFF" d="M193.1,44.2c-2.5,0-4.5,2-4.5,4.5c0,2.5,2,4.5,4.5,4.5s4.5-2,4.5-4.5S195.6,44.2,193.1,44.2z M193.1,50.9
			c-0.3,0-0.6-0.1-0.8-0.2c-0.8-0.3-1.3-1.1-1.3-2c0-0.2,0-0.3,0-0.4c0.2-1,1.1-1.7,2.1-1.7c0.6,0,1.1,0.2,1.5,0.6
			c0.2,0.2,0.4,0.4,0.5,0.7c0.1,0.3,0.2,0.5,0.2,0.8C195.3,49.9,194.3,50.9,193.1,50.9z"/>
		<path fill="#FFFFFF" d="M172.3,44.2c-2.5,0-4.5,2-4.5,4.5c0,2.5,2,4.5,4.5,4.5c2.5,0,4.5-2,4.5-4.5
			C176.8,46.2,174.8,44.2,172.3,44.2z M172.3,50.9c-1.2,0-2.2-1-2.2-2.2c0-1.2,1-2.2,2.2-2.2c1.2,0,2.2,1,2.2,2.2
			C174.5,49.9,173.5,50.9,172.3,50.9z"/>
	</g>
	<g>
		<path fill="#FFFFFF" d="M170.1,248.7c0-0.7,0.4-1.4,0.9-1.7c0,0,0,0-0.1,0h-11.6c-1,0-1.8,1-1.8,2c0,1,0.8,2,1.8,2h11.6
			c0,0,0.1-0.3,0.1-0.3C170.5,250.4,170.1,249.5,170.1,248.7z"/>
		<path fill="#FFFFFF" d="M205.8,247h-11.5c0.7,0,1.3,1.3,1.3,2c0,0.7-0.6,1-1.3,2h11.5c1,0,1.8-1,1.8-2
			C207.6,248,206.8,247,205.8,247z"/>
		<path fill="#FFFFFF" d="M188.2,237.1c-0.6-0.8-1.7-0.9-2.5-0.4l-13.2,9.8c1.1-0.3,2.3,1,2.1,2.1c-0.1,0.4,0,0.9-0.4,1l13.7-10.1
			C188.6,239,188.8,237.9,188.2,237.1z"/>
		<path fill="#FFFFFF" d="M193.1,246.6c0.6,0,1.1,0.2,1.5,0.6C194.2,246.8,193.7,246.6,193.1,246.6c-1.1,0-1.9,0.7-2.1,1.7
			C191.1,247.3,192,246.6,193.1,246.6z"/>
		<path fill="#FFFFFF" d="M190.9,248.7c0-0.2,0-0.3,0-0.4C190.9,248.4,190.9,248.6,190.9,248.7c0,0.9,0.5,1.7,1.3,2
			C191.4,250.4,190.9,249.6,190.9,248.7z"/>
		<path fill="#FFFFFF" d="M194.6,247.2c0.2,0.2,0.4,0.4,0.5,0.7C195,247.6,194.8,247.4,194.6,247.2z"/>
		<path fill="#FFFFFF" d="M193.1,244.2c-2.5,0-4.5,2-4.5,4.5c0,2.5,2,4.5,4.5,4.5s4.5-2,4.5-4.5S195.6,244.2,193.1,244.2z
			 M193.1,250.9c-0.3,0-0.6-0.1-0.8-0.2c-0.8-0.3-1.3-1.1-1.3-2c0-0.2,0-0.3,0-0.4c0.2-1,1.1-1.7,2.1-1.7c0.6,0,1.1,0.2,1.5,0.6
			c0.2,0.2,0.4,0.4,0.5,0.7c0.1,0.3,0.2,0.5,0.2,0.8C195.3,249.9,194.3,250.9,193.1,250.9z"/>
		<path fill="#FFFFFF" d="M172.3,244.2c-2.5,0-4.5,2-4.5,4.5c0,2.5,2,4.5,4.5,4.5c2.5,0,4.5-2,4.5-4.5
			C176.8,246.2,174.8,244.2,172.3,244.2z M172.3,250.9c-1.2,0-2.2-1-2.2-2.2c0-1.2,1-2.2,2.2-2.2c1.2,0,2.2,1,2.2,2.2
			C174.5,249.9,173.5,250.9,172.3,250.9z"/>
	</g>
	<g>
		<path fill="#FFFFFF" d="M196.3,152.4h-27.4c-0.6,0-1.1-0.4-1.3-1c-0.1-0.6,0.2-1.2,0.7-1.5l27.4-12.5c0.4-0.2,0.9-0.1,1.2,0.1
			c0.4,0.2,0.6,0.7,0.6,1.1v12.5C197.6,151.8,197,152.4,196.3,152.4z M174.9,149.8H195v-9.2L174.9,149.8z"/>
		<polygon fill="#FFFFFF" points="169.5,151.1 188.9,141.9 188.9,151.1 		"/>
	</g>
	<g>
		<g>
			<circle fill="#FFFFFF" cx="375.1" cy="4.3" r="1.6"/>
		</g>
		<g>
			<path fill="#FFFFFF" d="M370,14.8c-0.1,0-0.2,0-0.3,0c-0.5-0.1-0.7-0.6-0.6-1.1l1.1-3.5c0.1-0.2,0.2-0.4,0.4-0.5l3.9-2.6
				c0.4-0.3,0.9-0.2,1.2,0.2l2.3,3.4l1.4-0.9c0.4-0.3,0.9-0.1,1.2,0.3c0.3,0.4,0.1,0.9-0.3,1.2l-2.1,1.4c-0.4,0.3-0.9,0.1-1.2-0.3
				L374.8,9l-3,1.9l-1,3.2C370.7,14.5,370.4,14.8,370,14.8z"/>
		</g>
		<g>
			<path fill="#FFFFFF" d="M369.3,24.2c-0.2,0-0.3-0.1-0.5-0.2c-0.4-0.3-0.5-0.8-0.2-1.2l3.4-4.9l1.8-9.6c0.1-0.5,0.5-0.8,1-0.7
				c0.5,0.1,0.8,0.5,0.7,1l-1.8,9.8c0,0.1-0.1,0.2-0.1,0.3l-3.5,5.1C369.9,24.1,369.6,24.2,369.3,24.2z"/>
		</g>
		<g>
			<path fill="#FFFFFF" d="M378,23.2c-0.4,0-0.7-0.3-0.8-0.7l-1-4l-3-2.7c-0.4-0.3-0.4-0.9-0.1-1.2c0.3-0.4,0.9-0.4,1.2-0.1l3.2,2.9
				c0.1,0.1,0.2,0.3,0.3,0.4l1,4.3c0.1,0.5-0.2,0.9-0.6,1.1C378.1,23.2,378,23.2,378,23.2z"/>
		</g>
		<g>
			<path fill="#FFFFFF" d="M379.3,18.2"/>
		</g>
		<g>
			<path fill="#FFFFFF" d="M379.6,17.8"/>
		</g>
		<g>
			<path fill="#FFFFFF" d="M379.6,18.7c-0.2,0-0.3,0-0.5-0.2c-0.4-0.3-0.5-0.8-0.2-1.2c0.6-0.9,1-2,1-3.1c0-0.2,0-0.4,0-0.6
				c-0.1-0.5,0.3-0.9,0.8-1c0.5-0.1,0.9,0.3,1,0.8c0,0.3,0,0.5,0,0.8c0,1.5-0.4,2.9-1.3,4.1C380.2,18.5,379.9,18.7,379.6,18.7z"/>
		</g>
		<g>
			<path fill="#FFFFFF" d="M380.7,13.5"/>
		</g>
		<g>
			<path fill="#FFFFFF" d="M382,22.1c-0.2,0-0.4-0.1-0.6-0.2c-0.4-0.3-0.4-0.9,0-1.2c1.6-1.8,2.5-4.1,2.5-6.5c0-3.6-2-6.8-5.2-8.5
				c-0.4-0.2-0.6-0.7-0.4-1.2c0.2-0.4,0.7-0.6,1.2-0.4c3.8,1.9,6.1,5.8,6.1,10c0,2.8-1.1,5.6-3,7.7C382.4,22,382.2,22.1,382,22.1z"
				/>
		</g>
		<g>
			<path fill="#FFFFFF" d="M371.3,4.3"/>
		</g>
		<g>
			<path fill="#FFFFFF" d="M384.9,24.8c-0.2,0-0.4-0.1-0.6-0.2c-0.4-0.3-0.4-0.9-0.1-1.2c2.3-2.5,3.6-5.8,3.6-9.2
				c0-5.2-3-10-7.7-12.2c-0.4-0.2-0.6-0.7-0.4-1.2c0.2-0.4,0.7-0.6,1.2-0.4c5.3,2.5,8.7,7.9,8.7,13.8c0,3.8-1.4,7.5-4,10.3
				C385.4,24.7,385.2,24.8,384.9,24.8z"/>
		</g>
		<g>
			<path fill="#FFFFFF" d="M384.5,25.2c-0.2,0-0.4-0.1-0.6-0.3c-0.3-0.3-0.3-0.9,0-1.2c0.1-0.1,0.2-0.3,0.4-0.4
				c0.3-0.4,0.9-0.4,1.2-0.1c0.4,0.3,0.4,0.9,0.1,1.2c-0.1,0.1-0.3,0.3-0.4,0.4C385,25.1,384.8,25.2,384.5,25.2z"/>
		</g>
		<g>
			<path fill="#FFFFFF" d="M369.4,18.6c-0.2,0-0.4-0.1-0.6-0.3l-9-9c-0.3-0.3-0.3-0.9,0-1.2c0.3-0.3,0.9-0.3,1.2,0l9,9
				c0.3,0.3,0.3,0.9,0,1.2C369.9,18.6,369.7,18.6,369.4,18.6z"/>
		</g>
		<g>
			<path fill="#FFFFFF" d="M380.2,29.4c-0.2,0-0.4-0.1-0.6-0.3l-6.2-6.2c-0.3-0.3-0.3-0.9,0-1.2c0.3-0.3,0.9-0.3,1.2,0l6.2,6.2
				c0.3,0.3,0.3,0.9,0,1.2C380.6,29.3,380.4,29.4,380.2,29.4z"/>
		</g>
	</g>
	<g>
		<path fill="#FFFFFF" d="M374.6,90L374.6,90c-0.7,0-1.2-0.5-1.2-1.2l0-4.7c0-0.7,0.5-1.2,1.2-1.2l0,0c0.7,0,1.2,0.5,1.2,1.2l0,4.7
			C375.8,89.4,375.3,90,374.6,90z"/>
		<path fill="#FFFFFF" d="M374.6,112.9L374.6,112.9c-0.7,0-1.2-0.5-1.2-1.2l0-4.7c0-0.7,0.5-1.2,1.2-1.2l0,0c0.7,0,1.2,0.5,1.2,1.2
			l0,4.7C375.8,112.3,375.3,112.9,374.6,112.9z"/>
		<path fill="#FFFFFF" d="M368.2,92.6c-0.3,0-0.6-0.1-0.9-0.4L364,89c-0.5-0.5-0.5-1.2,0-1.7c0.5-0.5,1.2-0.5,1.7,0l3.3,3.3
			c0.5,0.5,0.5,1.2,0,1.7C368.8,92.5,368.5,92.6,368.2,92.6z"/>
		<path fill="#FFFFFF" d="M384.3,108.8c-0.3,0-0.6-0.1-0.9-0.4l-3.3-3.3c-0.5-0.5-0.5-1.2,0-1.7c0.5-0.5,1.2-0.5,1.7,0l3.3,3.3
			c0.5,0.5,0.5,1.2,0,1.7C385,108.7,384.7,108.8,384.3,108.8z"/>
		<path fill="#FFFFFF" d="M365.5,99.1h-4.7c-0.7,0-1.2-0.5-1.2-1.2c0-0.7,0.5-1.2,1.2-1.2h4.7c0.7,0,1.2,0.5,1.2,1.2
			C366.7,98.5,366.2,99.1,365.5,99.1z"/>
		<path fill="#FFFFFF" d="M388.4,99.1h-4.7c-0.7,0-1.2-0.5-1.2-1.2c0-0.7,0.5-1.2,1.2-1.2h4.7c0.7,0,1.2,0.5,1.2,1.2
			C389.6,98.5,389.1,99.1,388.4,99.1z"/>
		<path fill="#FFFFFF" d="M364.8,108.8c-0.3,0-0.6-0.1-0.9-0.4c-0.5-0.5-0.5-1.2,0-1.7l3.3-3.3c0.5-0.5,1.2-0.5,1.7,0
			c0.5,0.5,0.5,1.2,0,1.7l-3.3,3.3C365.5,108.7,365.2,108.8,364.8,108.8z"/>
		<path fill="#FFFFFF" d="M381,92.6c-0.3,0-0.6-0.1-0.9-0.4c-0.5-0.5-0.5-1.2,0-1.7l3.3-3.3c0.5-0.5,1.2-0.5,1.7,0
			c0.5,0.5,0.5,1.2,0,1.7l-3.3,3.3C381.6,92.5,381.3,92.6,381,92.6z"/>
		<path fill="#FFFFFF" d="M374.7,103.9c-3.4,0-6.2-2.8-6.2-6.2s2.8-6.2,6.2-6.2c3.4,0,6.2,2.8,6.2,6.2S378.1,103.9,374.7,103.9z
			 M374.7,93.9c-2.1,0-3.8,1.7-3.8,3.8s1.7,3.8,3.8,3.8s3.8-1.7,3.8-3.8S376.8,93.9,374.7,93.9z"/>
	</g>
	<g>
		<path fill="#FFFFFF" d="M376.5,196.9c-0.2,0-0.5-0.1-0.6-0.3c-0.3-0.3-0.3-0.9,0-1.3l4.7-4.7l-4.7-4.8c-0.3-0.4-0.3-0.9,0-1.3
			c0.4-0.3,0.9-0.3,1.3,0l5.3,5.4c0.3,0.3,0.3,0.9,0,1.3l-5.3,5.3C376.9,196.8,376.7,196.9,376.5,196.9z"/>
		<path fill="#FFFFFF" d="M368.2,196.9c-0.2,0-0.5-0.1-0.6-0.3c-0.3-0.3-0.3-0.9,0-1.3l4.7-4.7l-4.7-4.8c-0.3-0.4-0.3-0.9,0-1.3
			s0.9-0.3,1.3,0l5.3,5.4c0.3,0.3,0.3,0.9,0,1.3l-5.3,5.3C368.6,196.8,368.4,196.9,368.2,196.9z"/>
		<g>
			<path fill="#FFFFFF" d="M381.3,171.5c-0.2,0-0.5-0.1-0.7-0.2c-1.8-1.4-3.9-2.1-6.1-2.1c-2.2,0-4.4,0.7-6.1,2.1
				c-0.5,0.4-1.2,0.3-1.6-0.2c-0.4-0.5-0.3-1.2,0.2-1.6c2.2-1.7,4.7-2.6,7.5-2.6c2.8,0,5.4,0.9,7.5,2.6c0.5,0.4,0.6,1.1,0.2,1.6
				C381.9,171.3,381.6,171.5,381.3,171.5z"/>
			<path fill="#FFFFFF" d="M378.7,175.2c-0.3,0-0.6-0.1-0.8-0.3c-0.9-0.9-2.1-1.5-3.5-1.5c-1.3,0-2.5,0.5-3.4,1.4
				c-0.4,0.4-1.1,0.4-1.6,0c-0.4-0.4-0.4-1.1,0-1.6c1.3-1.4,3.1-2.1,5-2.1c1.9,0,3.7,0.8,5.1,2.1c0.4,0.4,0.4,1.1,0,1.6
				C379.3,175.1,379,175.2,378.7,175.2z"/>
			<path fill="#FFFFFF" d="M377,179.2c-0.3,0-0.6-0.1-0.8-0.3c-0.9-0.9-2.5-0.9-3.4,0c-0.4,0.4-1.1,0.4-1.6,0
				c-0.4-0.4-0.4-1.1,0-1.6c0.9-0.9,2-1.4,3.3-1.4c1.2,0,2.4,0.5,3.3,1.4c0.4,0.4,0.4,1.1,0,1.6C377.5,179.1,377.2,179.2,377,179.2z
				"/>
		</g>
	</g>
</g>
</svg>
