<?xml version="1.0" encoding="utf-8"?>
<!-- Generator: Adobe Illustrator 18.1.0, SVG Export Plug-In . SVG Version: 6.00 Build 0)  -->
<svg version="1.1" id="Layer_1" xmlns="http://www.w3.org/2000/svg" xmlns:xlink="http://www.w3.org/1999/xlink" x="0px" y="0px"
	 viewBox="0 0 40 40" enable-background="new 0 0 40 40" xml:space="preserve">
<g>
	<path fill="#64696E" d="M37.1,6.3l2.8-3.5C40.1,2.6,40,2.2,39.8,2L38,0.2c-0.2-0.2-0.6-0.3-0.9-0.1l-3.5,2.8
		c-0.2,0.2-0.3,0.5-0.2,0.8L21.6,15.6l-2.9-2.9c-0.3-0.3-0.7-0.3-1,0l-0.6,0.6l-6.6-6.6c0.4-1.7,0-3.5-1.3-4.8
		C7.8,0.6,5.9,0.1,4.2,0.6l2,2l0.7,2.5L5.1,6.9L2.6,6.2l-2-2c-0.5,1.7,0,3.6,1.3,4.9c1.3,1.3,3.1,1.7,4.8,1.3l6.6,6.6L2,28.5
		c-1.3,1.3-2,3-2,4.8c0,1.8,0.7,3.5,2,4.8c1.3,1.3,3,2,4.8,2c1.8,0,3.5-0.7,4.8-2l11.4-11.4l6.6,6.6c-0.4,1.7,0,3.5,1.3,4.8
		c2,2,5.2,2,7.2,0c2-2,2-5.2,0-7.2c-1.3-1.3-3.1-1.7-4.8-1.3l-6.6-6.6l0.6-0.6c0.1-0.1,0.2-0.3,0.2-0.5s-0.1-0.4-0.2-0.5l-2.9-2.9
		L36.3,6.5C36.6,6.6,36.9,6.6,37.1,6.3z M32.3,32.3c1.2-1.2,3.2-1.2,4.4,0c1.2,1.2,1.2,3.2,0,4.4c-1.2,1.2-3.2,1.2-4.4,0
		C31.1,35.5,31.1,33.5,32.3,32.3z M25.7,21.9l-0.9,0.9l-0.5,0.5l-1.1,1.1l-0.5,0.5l-0.8,0.8L10.5,37.1c-1,1-2.4,1.6-3.8,1.6
		c-1.4,0-2.8-0.6-3.8-1.6c-1-1-1.6-2.4-1.6-3.8c0-1.4,0.6-2.8,1.6-3.8l11.4-11.4l0.8-0.8l0.5-0.5l1.1-1.1l0.5-0.5l0.9-0.9l0.2-0.2
		l2.9,2.9l4.7,4.7L25.7,21.9z M12.9,11.4c0.1-0.1,0.4-0.1,0.5,0l2.8,2.8l-0.5,0.5l-2.8-2.8C12.8,11.8,12.8,11.6,12.9,11.4z
		 M13.1,15.2c-0.1-0.1-0.1-0.4,0-0.5s0.4-0.1,0.5,0l1.1,1.1l-0.5,0.5L13.1,15.2z M24.4,26.1c-0.1,0.1-0.2,0.1-0.2,0.1
		c-0.1,0-0.2,0-0.2-0.1l-0.3-0.3l0.5-0.5l0.3,0.3C24.6,25.7,24.6,26,24.4,26.1z M27.7,25.8c0.1,0.1,0.1,0.4,0,0.5
		c-0.1,0.1-0.2,0.1-0.2,0.1s-0.2,0-0.2-0.1l-2-2l0.5-0.5L27.7,25.8z M35.7,5.2L23.4,17.4l-0.9-0.9L34.8,4.3C35,4.2,35,3.9,35,3.7
		l2.5-2l0.9,0.9l-2,2.5C36.1,5,35.8,5,35.7,5.2z"/>
	<path fill="#64696E" d="M15,22.1c-0.3-0.3-0.7-0.3-1,0L3.7,32.3c-0.3,0.3-0.3,0.7,0,1c0.1,0.1,0.3,0.2,0.5,0.2s0.4-0.1,0.5-0.2
		L15,23C15.3,22.8,15.3,22.3,15,22.1z"/>
	<path fill="#64696E" d="M17,25L6.7,35.3c-0.3,0.3-0.3,0.7,0,1c0.1,0.1,0.3,0.2,0.5,0.2s0.4-0.1,0.5-0.2L17.9,26
		c0.3-0.3,0.3-0.7,0-1S17.2,24.7,17,25z"/>
</g>
</svg>
