<svg xmlns="http://www.w3.org/2000/svg" viewBox="0 0 320 273" enable-background="new 0 0 320 273"><g fill="#fff"><path d="M0 189.4c0-.8.7-1.6 1.6-1.6h3.3c.8 0 1.6.8 1.6 1.6v51.8h24.3c.9 0 1.6.8 1.6 1.6v2.4c0 .8-.7 1.6-1.6 1.6h-29.2c-.9 0-1.6-.8-1.6-1.6v-55.8zM37.6 193.6c0-2.3 1.8-4 4-4 2.3 0 4 1.8 4 4s-1.8 4-4 4c-2.2-.1-4-1.8-4-4zm1.2 21.1c0-.8.8-1.6 1.6-1.6h2.6c.8 0 1.6.8 1.6 1.6v30.5c0 .8-.8 1.6-1.6 1.6h-2.6c-.8 0-1.6-.8-1.6-1.6v-30.5zM57.4 235.6s-2.7-3.5-2.7-8.4c0-7.8 5.5-14.8 14.2-14.8h14.2c.9 0 1.6.7 1.6 1.6v1.4c0 .6-.3 1.3-.9 1.4l-4.6.9s3.8 2.8 3.8 9.4c0 7.7-5.5 14.3-14.2 14.3-5.4 0-8-2.1-8-2.1s-3.7 1.7-3.7 5.1c0 2.1 1.5 4.1 4.6 4.1h12.3c7.1 0 12.6 3.5 12.6 10.8 0 7-7.3 13.7-17.5 13.7-11.3 0-16.2-6.1-16.2-11.6 0-5.1 4-7.3 4.9-7.8v-.3c-2.2-.6-6.2-2.8-6.2-8 .2-6.4 5.8-9.7 5.8-9.7zm11.7 31.9c5.6 0 11.3-3.1 11.3-8 0-1.1-.5-5.5-6.4-5.5h-9.4s-5.6 1.5-5.6 6.5c0 4.1 4.4 7 10.1 7zm8.4-40.5c0-5.6-3.4-9.4-8.4-9.4-5.1 0-8.9 3.9-8.9 9.4 0 5.6 3.7 9.4 8.9 9.4 5 0 8.4-3.9 8.4-9.4zM93.9 189.4c0-.8.8-1.6 1.6-1.6h2.6c.8 0 1.6.8 1.6 1.6v27.3s4.5-4.5 11.3-4.5c8.3 0 13.1 5.3 13.1 15.2v17.8c0 .8-.8 1.6-1.6 1.6h-2.7c-.8 0-1.6-.8-1.6-1.6v-17.8c0-6.4-2.9-9.5-7.6-9.5-6.4 0-10.9 4.7-10.9 4.7v22.6c0 .8-.8 1.6-1.6 1.6h-2.6c-.8 0-1.6-.8-1.6-1.6v-55.8zM132.2 218.2h-4.3c-.9 0-1.6-.8-1.6-1.6v-1.9c0-.9.7-1.6 1.6-1.6h4.3v-9.4c0-.8.8-1.6 1.6-1.6l2.7-.2c.8 0 1.5.8 1.5 1.6v9.5h9.8c.9 0 1.6.7 1.6 1.6v1.9c0 .8-.7 1.6-1.6 1.6h-9.8v19.7c0 3.4.8 4 2.8 4 2.1 0 5.1-1.3 6.2-1.9 1.3-.7 1.6-.2 2 .5l1.3 2.1c.6 1 .3 1.5-.6 2.1-1.2.8-5.7 2.9-9.7 2.9-6.7 0-7.8-4-7.8-9.3v-20zM173.7 212.3c5.1 0 9 2 12.1 5.9.6.8.4 1.8-.3 2.4l-1.6 1.3c-1.3 1.2-1.7.3-2.4-.3-1.7-1.9-4.5-3.5-7.8-3.5-6.3 0-11.2 5.2-11.2 12 0 6.7 4.8 12.1 11.1 12.1 5.1 0 7-2.5 8.9-4.4 1-1 1.6-.8 2.5-.2l.9.7c.8.6 1.1 1.5.6 2.4-2.5 4-7.2 7.1-12.9 7.1-9.4 0-17.3-7.5-17.3-17.6 0-10.1 8.2-17.9 17.4-17.9zM192 189.4c0-.8.8-1.6 1.6-1.6h2.6c.8 0 1.6.8 1.6 1.6v55.8c0 .8-.8 1.6-1.6 1.6h-2.6c-.8 0-1.6-.8-1.6-1.6v-55.8zM224.2 212.3c9.4 0 16.8 8.1 16.8 17.6 0 9.7-7.4 17.8-16.8 17.8s-16.8-8.1-16.8-17.8c.1-9.5 7.5-17.6 16.8-17.6zm0 29.9c6.2 0 11-5.5 11-12.3 0-6.7-4.8-12.1-11-12.1s-11 5.4-11 12.1c.1 6.8 4.9 12.3 11 12.3zM250.1 214.7c0-.8.8-1.6 1.6-1.6h2.7c.8 0 1.6.8 1.6 1.6v17.8c0 6.4 2.9 9.5 7.6 9.5 6.4 0 10-4.8 10-4.8v-22.5c0-.8.8-1.6 1.6-1.6h2.6c.8 0 1.6.8 1.6 1.6v30.5c0 .8-.8 1.6-1.6 1.6h-1.6c-.9 0-1.3-.6-1.5-1.4l-.6-2.2s-4 4.5-11 4.5c-9.8 0-13.1-6.3-13.1-15.3v-17.7zM305.2 212.3c5.6 0 9 2.2 9 2.2v-25c0-.8.8-1.6 1.6-1.6h2.6c.8 0 1.6.8 1.6 1.6v55.8c0 .8-.8 1.6-1.6 1.6h-1.8c-.8 0-1.3-.6-1.4-1.3l-.5-2.3s-4 4.5-10.4 4.5c-8.6 0-15.3-8.1-15.3-17.8 0-9.9 6-17.7 16.2-17.7zm-.3 30.1c6.1 0 9.2-5.6 9.2-5.6v-16.8s-3.5-2-8.2-2c-7.3 0-11 5.3-11 12.1 0 6.5 3.9 12.3 10 12.3z"/></g><g fill="#fff"><path d="M155 5.9c-34.3 0-62.1 27.9-62.1 62.1s27.9 62.1 62.1 62.1c34.3 0 62.1-27.9 62.1-62.1s-27.9-62.1-62.1-62.1m0 130.2c-37.5 0-68.1-30.5-68.1-68.1 0-37.5 30.5-68 68.1-68 37.5 0 68 30.5 68 68.1 0 37.5-30.5 68-68 68M177.4 98.9c-.8 0-1.7-.4-2.3-1 0 0-6.7-7.9-14.2-16.7-1.1-1.3-.9-3.1.4-4.2s3.1-.9 4.2.4c7.4 8.6 14.1 16.6 14.1 16.6 1.1 1.3.9 3.1-.3 4.2-.6.4-1.3.7-1.9.7M133.6 98.9c-.7 0-1.4-.2-1.9-.7-1.3-1.1-1.4-2.9-.4-4.2.3-.3 25.8-30.5 31.9-39.2 1.9-2.7 2.8-5.2 2.8-8 0-6.6-4.9-11.9-10.9-11.9s-10.9 5.3-10.9 11.9c0 2.8.8 5.4 2.6 7.9.3.4 1.1 1.4 2.6 3.1 1.1 1.2 1 3.1-.2 4.2s-3.1 1-4.2-.2c-1.1-1.1-2.4-2.7-3.1-3.7-2.4-3.5-3.7-7.3-3.7-11.4 0-9.8 7.6-17.8 16.9-17.8 9.3 0 16.9 8 16.9 17.8 0 4-1.3 7.7-3.9 11.4-6.3 8.9-31.2 38.3-32.2 39.6-.6.8-1.5 1.2-2.3 1.2M155.2 105.6c-3.9 0-7.8-1.1-11.1-3.2-1.3-.8-1.7-2.6-.9-3.9.8-1.3 2.6-1.7 3.9-.9 5.1 3.1 11.6 3.1 16.6-.2 1.3-.8 3.1-.5 3.9.8.8 1.3.5 3.1-.9 3.9-3.5 2.3-7.5 3.5-11.5 3.5M155.2 93.8c-1.3 0-2.7-.2-3.9-.6-1.5-.5-2.3-2.1-1.8-3.6.5-1.5 2.1-2.3 3.6-1.8 1.4.5 3 .5 4.5-.1 1.5-.5 3.1.2 3.6 1.7s-.2 3.1-1.7 3.6c-1.4.5-2.8.8-4.3.8"/></g></svg>