<svg xmlns="http://www.w3.org/2000/svg" viewBox="0 0 136 136" enable-background="new 0 0 136 136"><g fill="#fff"><path d="M68 5.9c-34.2 0-62.1 27.9-62.1 62.1s27.8 62.1 62.1 62.1c34.2 0 62.1-27.8 62.1-62.1s-27.9-62.1-62.1-62.1m0 130.1c-37.5 0-68-30.5-68-68s30.5-68 68-68 68 30.5 68 68-30.5 68-68 68M90.4 98.8c-.8 0-1.7-.4-2.3-1 0 0-6.7-7.9-14.1-16.7-1.1-1.3-.9-3.1.4-4.2s3.1-.9 4.2.4c7.4 8.8 14.1 16.7 14.1 16.7 1.1 1.3.9 3.1-.3 4.2-.7.3-1.4.6-2 .6M46.6 98.8c-.7 0-1.4-.2-1.9-.7-1.3-1.1-1.4-2.9-.4-4.2.3-.3 25.7-30.5 31.9-39.1 1.9-2.7 2.8-5.2 2.8-8 0-6.6-4.9-11.9-10.9-11.9s-10.9 5.3-10.9 11.9c0 2.8.8 5.4 2.6 7.9.3.4 1.1 1.4 2.6 3.1 1.1 1.2 1 3.1-.2 4.2s-3.1 1-4.2-.2c-1.1-1.1-2.4-2.7-3.1-3.7-2.4-3.5-3.7-7.3-3.7-11.4 0-9.8 7.6-17.8 16.9-17.8 9.3 0 16.9 8 16.9 17.8 0 4-1.3 7.7-3.9 11.4-6.3 8.9-31.2 38.3-32.2 39.5-.6.8-1.4 1.2-2.3 1.2M68.2 105.5c-3.9 0-7.8-1.1-11.1-3.2-1.3-.8-1.7-2.6-.9-3.9.8-1.3 2.6-1.7 3.9-.9 5.1 3.1 11.6 3.1 16.6-.2 1.3-.8 3.1-.5 3.9.8.8 1.3.5 3.1-.9 3.9-3.5 2.3-7.4 3.5-11.5 3.5M68.2 93.7c-1.3 0-2.7-.2-3.9-.6-1.5-.5-2.3-2.1-1.8-3.6.5-1.5 2.1-2.3 3.6-1.8 1.4.5 3 .5 4.5-.1 1.5-.5 3.1.2 3.6 1.7s-.2 3.1-1.7 3.6c-1.4.5-2.8.8-4.3.8"/></g></svg>