<svg xmlns="http://www.w3.org/2000/svg" viewBox="0 0 200 55.9" enable-background="new 0 0 200 55.9"><g fill="#fff"><path d="M68.3 14.8c0-.3.3-.7.7-.7h1.3c.3 0 .7.3.7.7v21.1h9.9c.4 0 .7.3.7.7v1c0 .3-.3.7-.7.7h-12c-.4 0-.7-.3-.7-.7v-22.8zM83.6 16.5c0-.9.7-1.6 1.6-1.6.9 0 1.6.7 1.6 1.6 0 .9-.7 1.6-1.6 1.6-.9 0-1.6-.7-1.6-1.6zm.4 8.6c0-.3.3-.7.7-.7h1.1c.3 0 .7.3.7.7v12.4c0 .3-.3.7-.7.7h-1.1c-.3 0-.7-.3-.7-.7v-12.4zM92.4 33.6s-1.1-1.4-1.1-3.4c0-3.2 2.2-6 5.8-6h5.8c.4 0 .7.3.7.7v.6c0 .2-.1.5-.4.6l-1.9.4s1.5 1.1 1.5 3.8c0 3.1-2.2 5.8-5.8 5.8-2.2 0-3.3-.9-3.3-.9s-1.5.7-1.5 2.1c0 .9.6 1.7 1.9 1.7h4.9c2.9 0 5.1 1.4 5.1 4.4 0 2.8-3 5.6-7.1 5.6-4.6 0-6.6-2.5-6.6-4.7 0-2.1 1.6-3 2-3.2v-.1c-.9-.2-2.5-1.1-2.5-3.3.2-2.8 2.5-4.1 2.5-4.1zm4.7 13c2.3 0 4.6-1.3 4.6-3.3 0-.4-.2-2.2-2.6-2.2h-3.8s-2.3.6-2.3 2.6c0 1.7 1.8 2.9 4.1 2.9zm3.4-16.5c0-2.3-1.4-3.8-3.4-3.8-2.1 0-3.6 1.6-3.6 3.8 0 2.3 1.5 3.8 3.6 3.8s3.4-1.6 3.4-3.8zM107.2 14.8c0-.3.3-.7.7-.7h1.1c.3 0 .7.3.7.7v11.1s1.8-1.8 4.6-1.8c3.4 0 5.3 2.2 5.3 6.2v7.2c0 .3-.3.7-.7.7h-1.1c-.3 0-.7-.3-.7-.7v-7.2c0-2.6-1.2-3.9-3.1-3.9-2.6 0-4.4 1.9-4.4 1.9v9.2c0 .3-.3.7-.7.7h-1.1c-.3 0-.7-.3-.7-.7v-22.7zM123.5 26.5h-1.8c-.4 0-.7-.3-.7-.7v-.8c0-.4.3-.7.7-.7h1.8v-3.8c0-.3.3-.7.7-.7l1.1-.1c.3 0 .6.3.6.7v3.9h4c.4 0 .7.3.7.7v.8c0 .3-.3.7-.7.7h-4v8c0 1.4.3 1.6 1.1 1.6.9 0 2.1-.5 2.5-.8.5-.3.7-.1.8.2l.5.9c.2.4.1.6-.2.9-.5.3-2.3 1.2-3.9 1.2-2.7 0-3.2-1.6-3.2-3.8v-8.2zM140.4 24.1c2.1 0 3.7.8 4.9 2.4.2.3.2.7-.1 1l-.7.5c-.5.5-.7.1-1-.1-.7-.8-1.8-1.4-3.2-1.4-2.6 0-4.6 2.1-4.6 4.9s2 4.9 4.5 4.9c2.1 0 2.8-1 3.6-1.8.4-.4.7-.3 1-.1l.4.3c.3.2.4.6.2 1-1 1.6-2.9 2.9-5.3 2.9-3.8 0-7-3.1-7-7.2.2-4.1 3.6-7.3 7.3-7.3zM147.9 14.8c0-.3.3-.7.7-.7h1.1c.3 0 .7.3.7.7v22.7c0 .3-.3.7-.7.7h-1.1c-.3 0-.7-.3-.7-.7v-22.7zM161 24.1c3.8 0 6.8 3.3 6.8 7.2 0 3.9-3 7.2-6.8 7.2s-6.8-3.3-6.8-7.2c0-3.9 3-7.2 6.8-7.2zm0 12.2c2.5 0 4.5-2.2 4.5-5 0-2.7-2-4.9-4.5-4.9s-4.5 2.2-4.5 4.9 2 5 4.5 5zM171.5 25.1c0-.3.3-.7.7-.7h1.1c.3 0 .7.3.7.7v7.2c0 2.6 1.2 3.9 3.1 3.9 2.6 0 4.1-2 4.1-2v-9.2c0-.3.3-.7.7-.7h1.1c.3 0 .7.3.7.7v12.4c0 .3-.3.7-.7.7h-.7c-.4 0-.5-.2-.6-.6l-.2-.9s-1.6 1.8-4.5 1.8c-4 0-5.3-2.6-5.3-6.2v-7.1zM194 24.1c2.3 0 3.7.9 3.7.9v-10.2c0-.3.3-.7.7-.7h1.1c.3 0 .7.3.7.7v22.7c0 .3-.3.7-.7.7h-.7c-.3 0-.5-.2-.6-.5l-.2-.9s-1.6 1.8-4.2 1.8c-3.5 0-6.2-3.3-6.2-7.2-.2-4.1 2.2-7.3 6.4-7.3zm-.1 12.2c2.5 0 3.7-2.3 3.7-2.3v-6.9s-1.4-.8-3.3-.8c-3 0-4.5 2.2-4.5 4.9 0 2.8 1.6 5.1 4.1 5.1zM28.1 2.4c-14.2 0-25.6 11.5-25.6 25.5 0 14.1 11.5 25.5 25.6 25.5s25.6-11.4 25.6-25.5c0-14-11.5-25.5-25.6-25.5m0 53.5c-15.5 0-28.1-12.5-28.1-28 0-15.4 12.6-27.9 28.1-27.9 15.5 0 28.1 12.5 28.1 27.9-.1 15.5-12.7 28-28.1 28M37.3 40.6c-.3 0-.7-.1-.9-.4 0 0-2.8-3.3-5.8-6.9-.4-.5-.4-1.3.1-1.7.5-.4 1.3-.4 1.7.1 3.1 3.6 5.8 6.9 5.8 6.9.4.5.4 1.3-.1 1.7-.2.2-.5.3-.8.3M19.2 40.6c-.3 0-.6-.1-.8-.3-.5-.4-.6-1.2-.1-1.7.1-.1 10.6-12.5 13.2-16.1.8-1.1 1.2-2.1 1.2-3.3 0-2.7-2-4.9-4.5-4.9s-4.5 2.2-4.5 4.9c0 1.2.4 2.2 1.1 3.3.1.2.5.6 1.1 1.3.5.5.4 1.3-.1 1.7-.5.5-1.3.4-1.7-.1-.4-.5-1-1.1-1.3-1.5-1-1.4-1.5-3-1.5-4.7 0-4 3.1-7.3 7-7.3s7 3.3 7 7.3c0 1.6-.5 3.2-1.6 4.7-2.6 3.7-12.9 15.7-13.3 16.2-.5.3-.8.5-1.2.5M28.2 43.3c-1.6 0-3.2-.5-4.6-1.3-.5-.3-.7-1.1-.4-1.6.3-.5 1.1-.7 1.6-.4 2.1 1.3 4.8 1.3 6.9-.1.5-.3 1.3-.2 1.6.3.3.5.2 1.3-.4 1.6-1.4 1.1-3.1 1.5-4.7 1.5M28.2 38.5c-.6 0-1.1-.1-1.6-.3-.6-.2-.9-.9-.7-1.5.2-.6.9-.9 1.5-.7.6.2 1.3.2 1.8 0 .6-.2 1.3.1 1.5.7.2.6-.1 1.3-.7 1.5-.6.2-1.2.3-1.8.3"/></g></svg>