<?xml version="1.0" encoding="utf-8"?>
<!-- Generator: Adobe Illustrator 18.1.0, SVG Export Plug-In . SVG Version: 6.00 Build 0)  -->
<svg version="1.1" id="Layer_1" xmlns="http://www.w3.org/2000/svg" xmlns:xlink="http://www.w3.org/1999/xlink" x="0px" y="0px"
	 viewBox="0 0 40 30.2" enable-background="new 0 0 40 30.2" xml:space="preserve">
<g>
	<g>
		<g>
			<g>
				<path fill="#64696E" d="M38.4,30.2H1.6c-0.4,0-0.8-0.3-0.8-0.7L0,11.4c0-0.2,0.1-0.4,0.2-0.6c0.1-0.2,0.3-0.2,0.6-0.2h38.5
					c0.2,0,0.4,0.1,0.6,0.2c0.1,0.2,0.2,0.4,0.2,0.6l-0.9,18C39.1,29.8,38.8,30.2,38.4,30.2z M2.4,28.6h35.2l0.8-16.5H1.6L2.4,28.6z
					"/>
			</g>
		</g>
		<g>
			<g>
				<path fill="#64696E" d="M39.2,12.1H0.8c-0.3,0-0.5-0.2-0.7-0.4c-0.1-0.3-0.1-0.6,0-0.8l4.3-6.4c0.1-0.2,0.4-0.3,0.6-0.3h4.4
					c0.4,0,0.8,0.3,0.8,0.8S9.9,5.7,9.5,5.7h-4l-3.3,4.9h35.5l-3.3-4.9h-4c-0.4,0-0.8-0.3-0.8-0.8s0.3-0.8,0.8-0.8h4.4
					c0.3,0,0.5,0.1,0.6,0.3l4.3,6.4c0.2,0.2,0.2,0.5,0,0.8C39.8,12,39.5,12.1,39.2,12.1z"/>
			</g>
		</g>
		<g>
			<g>
				<path fill="#64696E" d="M23.5,5.7h-7.1c-0.4,0-0.8-0.3-0.8-0.8s0.3-0.8,0.8-0.8h7.1c0.4,0,0.8,0.3,0.8,0.8S24,5.7,23.5,5.7z"/>
			</g>
		</g>
		<g>
			<g>
				<path fill="#64696E" d="M9.2,21.6c-0.4,0-0.8-0.3-0.8-0.8v-4.2c0-0.4,0.3-0.8,0.8-0.8s0.8,0.3,0.8,0.8v4.2
					C9.9,21.3,9.6,21.6,9.2,21.6z"/>
			</g>
		</g>
		<g>
			<g>
				<path fill="#64696E" d="M30.8,21.6c-0.4,0-0.8-0.3-0.8-0.8v-4.2c0-0.4,0.3-0.8,0.8-0.8c0.4,0,0.8,0.3,0.8,0.8v4.2
					C31.6,21.3,31.3,21.6,30.8,21.6z"/>
			</g>
		</g>
		<g>
			<g>
				<path fill="#64696E" d="M38.9,18.5H1.1c-0.4,0-0.8-0.3-0.8-0.8c0-0.4,0.3-0.8,0.8-0.8h37.9c0.4,0,0.8,0.3,0.8,0.8
					C39.7,18.1,39.4,18.5,38.9,18.5z"/>
			</g>
		</g>
		<g>
			<g>
				<path fill="#64696E" d="M27,8.1c-0.4,0-0.8-0.3-0.8-0.8V1.5H13.8v5.7c0,0.4-0.3,0.8-0.8,0.8s-0.8-0.3-0.8-0.8V0.8
					C12.2,0.3,12.6,0,13,0h14c0.4,0,0.8,0.3,0.8,0.8v6.5C27.8,7.7,27.4,8.1,27,8.1z"/>
			</g>
		</g>
	</g>
</g>
</svg>
