<?xml version="1.0" encoding="utf-8"?>
<!-- Generator: Adobe Illustrator 18.1.0, SVG Export Plug-In . SVG Version: 6.00 Build 0)  -->
<!DOCTYPE svg PUBLIC "-//W3C//DTD SVG 1.1//EN" "http://www.w3.org/Graphics/SVG/1.1/DTD/svg11.dtd">
<svg version="1.1" id="Layer_1" xmlns="http://www.w3.org/2000/svg" xmlns:xlink="http://www.w3.org/1999/xlink" x="0px" y="0px"
	 viewBox="0 0 20 16" enable-background="new 0 0 20 16" xml:space="preserve">
<g>
	<path fill="#FFFFFF" d="M19,2H1C0.4,2,0,1.6,0,1v0c0-0.6,0.4-1,1-1h18c0.6,0,1,0.4,1,1v0C20,1.6,19.6,2,19,2z"/>
	<path fill="#FFFFFF" d="M19,9H1C0.4,9,0,8.6,0,8v0c0-0.6,0.4-1,1-1h18c0.6,0,1,0.4,1,1v0C20,8.6,19.6,9,19,9z"/>
	<path fill="#FFFFFF" d="M19,16H1c-0.6,0-1-0.4-1-1v0c0-0.6,0.4-1,1-1h18c0.6,0,1,0.4,1,1v0C20,15.6,19.6,16,19,16z"/>
</g>
</svg>
