<?xml version="1.0" encoding="utf-8"?>
<!-- Generator: Adobe Illustrator 18.1.0, SVG Export Plug-In . SVG Version: 6.00 Build 0)  -->
<svg version="1.1" id="Layer_1" xmlns="http://www.w3.org/2000/svg" xmlns:xlink="http://www.w3.org/1999/xlink" x="0px" y="0px"
	 viewBox="0 0 40.2 40.2" enable-background="new 0 0 40.2 40.2" xml:space="preserve">
<g>
	<g>
		<g>
			<path fill="#64696E" d="M5.1,35.1c-0.1,0-0.2,0-0.4-0.1c-0.4-0.2-0.6-0.7-0.4-1.2l7.9-17.1c0.1-0.3,0.4-0.5,0.8-0.5
				c0.3,0,0.6,0.2,0.8,0.5l4.1,8.8l9.5-20.7c0.1-0.3,0.5-0.5,0.8-0.5c0,0,0,0,0,0c0.3,0,0.7,0.2,0.8,0.5L31,9.3l1.9-2.2
				c0.2-0.2,0.4-0.3,0.7-0.3c0.3,0,0.5,0.2,0.7,0.4l5.3,8.3c0.3,0.4,0.1,0.9-0.3,1.2c-0.4,0.3-0.9,0.1-1.2-0.3l-4.7-7.3l-2,2.3
				c-0.2,0.2-0.5,0.3-0.8,0.3c-0.3,0-0.5-0.2-0.7-0.5l-1.7-3.9l-9.5,20.6c-0.1,0.3-0.4,0.5-0.8,0.5c-0.3,0-0.6-0.2-0.8-0.5l-4.1-8.8
				L5.9,34.6C5.8,34.9,5.5,35.1,5.1,35.1z"/>
		</g>
	</g>
	<g>
		<g>
			<path fill="#64696E" d="M39.3,40.1H0.9c-0.5,0-0.8-0.4-0.8-0.9c0-0.5,0.4-0.9,0.8-0.9h38.4c0.5,0,0.8,0.4,0.8,0.9
				C40.1,39.7,39.8,40.1,39.3,40.1z"/>
		</g>
	</g>
	<g>
		<g>
			<path fill="#64696E" d="M1,40.1c-0.5,0-0.9-0.4-0.9-0.9V1c0-0.5,0.4-0.9,0.9-0.9S1.9,0.5,1.9,1v38.3C1.9,39.7,1.5,40.1,1,40.1z"
				/>
		</g>
	</g>
</g>
</svg>
