<svg xmlns="http://www.w3.org/2000/svg" viewBox="0 0 41.3 40" enable-background="new 0 0 41.3 40"><g fill="#008CE6"><circle cx="21.4" cy="5.5" r="2.2"/><path d="M19.5 24.9l.5-2.5 2.8 2.6 1.4 5.5c.1.5.6.9 1.2.9h.3c.6-.2 1-.8.9-1.4l-1.6-5.9c-.1-.2-.2-.4-.4-.6l-4.2-3.8 1.2-6.5 2.3 3.5c.4.5 1.1.7 1.6.3l2.9-1.9c.6-.4.7-1.1.4-1.7-.4-.6-1.1-.7-1.7-.4l-1.9 1.2-3.1-4.7c-.4-.5-1.1-.7-1.7-.3l-5.4 3.5c-.2.2-.4.4-.5.7l-1.5 4.9c0 .7.4 1.4 1 1.5l.3.1c.5 0 1-.3 1.1-.9l1.3-4.4 2.4-1.6-2.1 11.2-4.6 6.8c-.4.5-.2 1.3.3 1.7.2.1.4.2.7.2.4 0 .8-.2 1-.5l4.9-7 .2-.5zM26.8 25c.2.1.4.2.7.2.4 0 .8-.2 1-.5 1.1-1.7 1.7-3.6 1.7-5.6 0-.4 0-.7-.1-1-.1-.7-.7-1.1-1.3-1.1-.7.1-1.1.7-1.1 1.3v.8c0 1.5-.5 3-1.3 4.3-.2.5-.1 1.2.4 1.6zM27.4 5.3c-.6-.3-1.3-.1-1.6.5-.3.6-.1 1.3.5 1.6 4.4 2.3 7.1 6.7 7.1 11.6 0 3.3-1.2 6.5-3.5 8.9-.4.5-.4 1.2.1 1.7.2.2.5.3.8.3.3 0 .6-.1.9-.4 2.7-2.9 4.1-6.6 4.1-10.5 0-5.7-3.2-11-8.4-13.7zM29.3.1c-.6-.3-1.3 0-1.6.6-.3.6 0 1.3.6 1.6 6.4 3.1 10.6 9.7 10.6 16.8 0 4.7-1.7 9.2-4.9 12.6-.4.5-.4 1.2.1 1.7.2.2.5.3.8.3.3 0 .6-.1.9-.4 3.6-3.9 5.6-8.9 5.6-14.2-.1-8.1-4.8-15.5-12.1-19zM13.5 25.2c.3 0 .6-.1.8-.4.5-.5.5-1.2 0-1.7l-12.3-12.3c-.5-.5-1.2-.5-1.7 0s-.5 1.2 0 1.7l12.3 12.3c.3.3.6.4.9.4zM20.7 29.5c-.5-.5-1.2-.5-1.7 0s-.5 1.2 0 1.7l8.5 8.5c.2.2.5.4.8.4s.6-.1.8-.4c.5-.5.5-1.2 0-1.7l-8.4-8.5z"/></g></svg>