<svg xmlns="http://www.w3.org/2000/svg" viewBox="0 0 80 27" enable-background="new 0 0 80 27"><path d="M.1 0h18.7c4.8 0 6.1 2.4 6.1 6v1.3c0 2.7-.6 4.3-3.5 5v.1c1.8.3 3.4 1.1 3.4 4.5v3.4h-6.2v-2.4c0-2.1-.6-2.8-2.5-2.8h-9.8v5.2h-6.2v-20.3zm6.2 9.9h10.3c1.7 0 2.3-.7 2.3-2.1v-.7c-.1-1.7-1-2.1-2.9-2.1h-9.7v4.9zm29-9.9h8.1l11.1 20.2h-6.9l-1.9-3.6h-12.6l-1.8 3.6h-6.9l10.9-20.2zm.1 12.3h7.9l-4-7.6-3.9 7.6zm18.6-12.3h17.9c4.9 0 7.4 1.3 7.4 5.3 0 3.5-1.3 4.1-3 4.6v.1c2.7.3 3.7 1.8 3.7 4.8 0 4.4-2.6 5.4-6.2 5.4h-19.8v-20.2zm6.2 8h11c1.2 0 1.8-.4 1.8-1.6 0-1.2-.7-1.6-1.8-1.6h-11v3.2zm0 7.3h11.1c1.3 0 2.2-.3 2.2-1.5 0-1.4-.9-1.7-2.2-1.7h-11.1v3.2zm-60.2 11.6v-5.2h.7v4.6h3v.6h-3.7zm10.5 0v-5.2h.7v5.2h-.7zm10.8.1c-2.2 0-3.1-1.2-3.1-2.7 0-1.3.8-2.7 3-2.7 1.5 0 2.4.5 2.6 1.5h-.8c-.2-.7-.9-.9-1.7-.9-1.5 0-2.3.9-2.3 2.1 0 1.2.8 2.2 2.3 2.2.6 0 1.2-.1 1.7-.3v-1.3h-1.7v-.6h2.4v2.4c-.7.2-1.5.3-2.4.3zm13.8-.1v-2.4h-3.3v2.4h-.8v-5.2h.7v2.2h3.3v-2.2h.8v5.2h-.7zm10.4-4.6v4.6h-.7v-4.6h-2.2v-.6h5.2v.6h-2.3zm8.8 4.6v-5.2h.8v5.2h-.8zm12 0l-3.2-4.5v4.5h-.7v-5.2h1.1l3.2 4.5v-4.5h.7v5.2h-1.1zm11.2.1c-2.2 0-3.1-1.2-3.1-2.7 0-1.3.8-2.7 3-2.7 1.5 0 2.4.5 2.6 1.5h-.8c-.2-.7-.9-.9-1.7-.9-1.5 0-2.3.9-2.3 2.1 0 1.2.8 2.2 2.3 2.2.6 0 1.2-.1 1.7-.3v-1.3h-1.7v-.6h2.5v2.4c-.9.2-1.6.3-2.5.3z" fill="#fff"/></svg>