<svg xmlns="http://www.w3.org/2000/svg" viewBox="0 0 40 40" enable-background="new 0 0 40 40"><g fill="#008CE6"><path d="M10.6 40c-.3 0-.6-.1-.7-.4-.3-.4-.2-1 .2-1.3l16.1-11.8c.4-.3 1-.2 1.3.2.3.4.2 1-.2 1.3l-16.2 11.8c-.2.1-.4.2-.5.2zM28.5 39.5c-.2 0-.4-.1-.5-.2l-15.1-11c-.4-.3-.5-.9-.2-1.3s.9-.5 1.3-.2l15.1 11c.4.3.5.9.2 1.3-.3.3-.6.4-.8.4zM13 27.8c-.3 0-.6-.1-.7-.4-.3-.4-.2-1 .2-1.3l11.9-8.6c.4-.3 1-.2 1.3.2.3.4.2 1-.2 1.3l-11.9 8.6c-.2.2-.4.2-.6.2zM26.7 27.6c-.2 0-.3 0-.5-.1l-12.2-7.7c-.4-.3-.5-.8-.3-1.2.3-.4.8-.5 1.2-.3l12.2 7.7c.4.3.5.8.3 1.2-.1.3-.4.4-.7.4zM14.5 19.9c-.3 0-.5-.1-.7-.3-.3-.4-.3-.9.1-1.3l9.2-7.9c.4-.3.9-.3 1.3.1.3.4.3.9-.1 1.3l-9.2 7.9c-.2.2-.4.2-.6.2zM25.2 19.7c-.2 0-.4-.1-.6-.2l-9-7.5c-.4-.3-.4-.9-.1-1.3.3-.4.9-.4 1.3-.1l9 7.5c.4.3.4.9.1 1.3-.2.2-.4.3-.7.3zM10.6 40h-.2c-.5-.1-.8-.6-.7-1l5.4-30c0-.1 0-.2.1-.2l3.9-7.8c.2-.3.5-.5.8-.5.3 0 .7.2.8.5l3.9 8c0 .1.1.2.1.2l5 29.4c.1.5-.2 1-.7 1-.5.1-1-.2-1-.7l-5-29.3-3.1-6.3-3.1 6-5.4 29.8c0 .6-.4.9-.8.9zM16.3 11.4c-.3 0-.7-.2-.8-.5-.2-.4 0-1 .4-1.2l1.9-.9-7.4-3.8c-.4-.2-.5-.5-.5-.9s.3-.7.6-.8l9-3.3h.6l9.5 3.3c.3.1.6.4.6.8s-.2.7-.5.9l-7.8 3.8 1.7.9c.4.2.6.8.4 1.2-.2.4-.8.6-1.2.4l-3-1.5-3.1 1.5c-.1.1-.3.1-.4.1zm-3.3-7.1l6.8 3.5 7.1-3.5-7.1-2.5-6.8 2.5zM29.1 9.5c-.8 0-1.5-.7-1.5-1.5s.7-1.5 1.5-1.5 1.5.7 1.5 1.5-.6 1.5-1.5 1.5zm0-2.2c-.3 0-.6.3-.6.6s.3.6.6.6.6-.3.6-.6c.1-.3-.2-.6-.6-.6zM29.3 6.9c-.2 0-.5-.2-.5-.5v-1.8c0-.2.2-.5.5-.5.2 0 .5.2.5.5v1.8c-.1.3-.3.5-.5.5zM10.7 9.5c-.8 0-1.5-.7-1.5-1.5s.7-1.5 1.5-1.5 1.5.7 1.5 1.5-.7 1.5-1.5 1.5zm0-2.2c-.3 0-.6.3-.6.6s.3.6.6.6.6-.3.6-.6-.3-.6-.6-.6zM10.8 6.9c-.2 0-.5-.2-.5-.5v-1.8c0-.2.2-.5.5-.5.2 0 .5.2.5.5v1.8c-.1.3-.3.5-.5.5zM5.2 13.7c-1.5 0-3.1-.9-4.6-2.6-.2-.2-.2-.5 0-.7s.5-.2.7 0c1.5 1.7 3 2.5 4.5 2.2 2.7-.5 4.3-4.4 4.3-4.4l.1-.2h.3c.4 0 .5.2.9.9.4.8 1.1 2.1 1.8 2.7.2.2.2.5 0 .7-.2.2-.5.2-.7 0-.8-.7-1.5-2-1.9-2.9-.7 1.3-2.2 3.7-4.6 4.2-.2.1-.5.1-.8.1zM34.8 13.7c-.3 0-.6 0-.8-.1-2.3-.5-3.9-2.9-4.6-4.2-.4.8-1.1 2.1-1.9 2.9-.2.2-.5.2-.7 0-.2-.2-.2-.5 0-.7.7-.7 1.4-2 1.8-2.7.4-.7.5-1 .9-.9.2 0 .4.2.4.4 0 0 1.6 3.9 4.3 4.4 1.4.3 2.9-.5 4.5-2.2.2-.2.5-.2.7 0 .2.2.2.5 0 .7-1.5 1.5-3.1 2.4-4.6 2.4z"/></g></svg>