<svg xmlns="http://www.w3.org/2000/svg" viewBox="0 0 45 45" enable-background="new 0 0 45 45"><g fill="#fff"><path d="M22.5 45c-12.4 0-22.5-9.9-22.5-22 0-2.3.4-4.6 1.1-6.9.4-1.1 1.6-1.7 2.7-1.3 1.1.4 1.7 1.5 1.4 2.6-.6 1.8-.9 3.7-.9 5.6 0 9.9 8.2 17.9 18.3 17.9 10.1 0 18.3-8 18.3-17.9s-8.3-17.9-18.4-17.9c-4.5 0-8.9 1.6-12.2 4.6-.9.8-2.2.7-3-.2-.8-.8-.7-2.1.1-2.9 4.2-3.6 9.5-5.6 15.1-5.6 12.4 0 22.5 9.8 22.5 22 0 12.1-10.1 22-22.5 22zM20.5 30.9c-.4 0-.8-.1-1.1-.3-.6-.4-1-1-1-1.7v-12.3c0-1.1.9-2.1 2.1-2.1 1.2 0 2.1.9 2.1 2.1v8.9l4.3-2c1.1-.5 2.3 0 2.8 1s0 2.3-1 2.8l-7.4 3.3c-.2.2-.5.3-.8.3zM14.4 12.3h-.4l-6.8-1.3c-1.1-.2-1.9-1.3-1.7-2.4l1.1-6.9c.2-1.1 1.3-1.9 2.5-1.7 1.2.2 1.9 1.2 1.8 2.4l-.8 4.9 4.7.9c1.2.2 1.9 1.3 1.7 2.4-.2 1-1.1 1.7-2.1 1.7z"/></g></svg>