<?xml version="1.0" encoding="utf-8"?>
<!-- Generator: Adobe Illustrator 18.1.0, SVG Export Plug-In . SVG Version: 6.00 Build 0)  -->
<svg version="1.1" id="Layer_1" xmlns="http://www.w3.org/2000/svg" xmlns:xlink="http://www.w3.org/1999/xlink" x="0px" y="0px"
	 viewBox="0 0 40.2 30" enable-background="new 0 0 40.2 30" xml:space="preserve">
<g>
	<path fill="#64696E" d="M29.2,9.2c-0.4-0.4-1.1-0.4-1.5,0c-0.4,0.4-0.4,1.1,0,1.5c1.1,1.1,1.7,2.5,1.7,4c0,1.5-0.6,3-1.7,4
		c-0.4,0.4-0.4,1.1,0,1.5c0.2,0.2,0.5,0.3,0.8,0.3s0.6-0.1,0.8-0.3c1.5-1.5,2.3-3.5,2.3-5.6C31.5,12.7,30.7,10.7,29.2,9.2z"/>
	<path fill="#64696E" d="M32.5,6.3c-0.4-0.4-1.1-0.4-1.5,0c-0.4,0.4-0.4,1.1,0,1.5c3.8,3.8,3.8,10.1,0,13.9c-0.4,0.4-0.4,1.1,0,1.5
		c0.2,0.2,0.5,0.3,0.8,0.3c0.3,0,0.6-0.1,0.8-0.3C37.2,18.6,37.2,11,32.5,6.3z"/>
	<path fill="#64696E" d="M35.4,3.4C35,3,34.3,3,33.9,3.4s-0.4,1.1,0,1.5c2.6,2.6,4.1,6.1,4.1,9.9s-1.5,7.2-4.1,9.9
		c-0.4,0.4-0.4,1.1,0,1.5c0.2,0.2,0.5,0.3,0.8,0.3c0.3,0,0.6-0.1,0.8-0.3c3-3,4.7-7.1,4.7-11.4S38.5,6.5,35.4,3.4z"/>
	<path fill="#64696E" d="M19,12h-1.4V6.8c0-3.7-3-6.8-6.8-6.8s-6.8,3-6.8,6.8V12H2.8c-1.5,0-2.7,1.2-2.7,2.7l1.2,12.5
		C1.2,28.7,2.5,30,4,30h13.9c1.5,0,2.7-1.2,2.7-2.7l1.2-12.5C21.7,13.3,20.5,12,19,12z M12.3,25.6H9.5l-0.5-4.5
		c0-1.1,0.9-1.9,1.9-1.9c1.1,0,2,0.9,2,1.9L12.3,25.6z M14.8,12H7V6.8c0-2.1,1.7-3.9,3.9-3.9c2.1,0,3.9,1.7,3.9,3.9V12z"/>
</g>
</svg>
