<?xml version="1.0" encoding="utf-8"?>
<!-- Generator: Adobe Illustrator 18.1.0, SVG Export Plug-In . SVG Version: 6.00 Build 0)  -->
<svg version="1.1" id="Layer_1" xmlns="http://www.w3.org/2000/svg" xmlns:xlink="http://www.w3.org/1999/xlink" x="0px" y="0px"
	 viewBox="0 0 44.7 40" enable-background="new 0 0 44.7 40" xml:space="preserve">
<g>
	<path fill="#64696E" d="M39.8,16.2v12.7c2.7,0,4.8-2.8,4.8-6.3C44.7,19,42.5,16.2,39.8,16.2z"/>
	<path fill="#64696E" d="M0.1,22.5c0,3.5,2.2,6.3,4.8,6.3V16.2C2.2,16.2,0.1,19,0.1,22.5z"/>
	<path fill="#64696E" d="M22.4,0C12.2,0,5.8,6.7,5.8,17.4c0,0.7,0.4,1.3,0.9,1.6v9.4c0,0.5,0.4,0.9,0.9,0.9s0.9-0.4,0.9-0.9V19
		c0.6-0.3,0.9-0.9,0.9-1.6c0-4.1,1.2-13.6,12.8-13.6c9.5,0,12.8,7.3,12.8,13.6c0,0.7,0.4,1.3,0.9,1.6v7c0,0,0,0,0,0c0,0,0,0,0,0
		c0,2.1-0.4,5.9-2.9,8.5c-1.7,1.7-4,2.5-6.9,2.6c-0.2-0.6-0.7-1-1.4-1h-3.5c-0.8,0-1.4,0.6-1.4,1.4v1c0,0.8,0.6,1.4,1.4,1.4h3.5
		c0.7,0,1.2-0.4,1.4-1c3.4,0,6.2-1.1,8.2-3.1c3.1-3.1,3.5-7.5,3.5-9.8l0,0v-7c0.6-0.3,0.9-0.9,0.9-1.6C38.9,8.8,33.8,0,22.4,0z"/>
</g>
</svg>
